<?xml version="1.0" encoding="UTF-8"?>
<svg version="1.1" xmlns="http://www.w3.org/2000/svg" width="1600" height="1600">
<path d="M0 0 C44.22 0 88.44 0 134 0 C133.30290783 5.57673737 132.55834705 10.10068974 131.03689575 15.3896637 C130.73678764 16.44221656 130.73678764 16.44221656 130.43061674 17.51603311 C129.76164187 19.85683211 129.08418845 22.1950883 128.40673828 24.53344727 C127.91917661 26.23288598 127.43214956 27.93247815 126.94561005 29.63220978 C125.88824448 33.3217008 124.82706394 37.01006575 123.76295853 40.69761848 C122.03445193 46.68763481 120.31431396 52.68003613 118.59506226 58.67271423 C116.09616834 67.3796833 113.59324272 76.08548475 111.08764648 84.79052734 C107.07608128 98.72829628 103.07314904 112.66853655 99.07226562 126.609375 C98.734544 127.78612156 98.39682237 128.96286811 98.04886675 130.17527366 C96.67279297 134.97008895 95.29675431 139.76491432 93.9208262 144.55977142 C91.81882918 151.88480484 89.7162569 159.20967283 87.61328053 166.53442514 C78.04984627 199.84546251 68.51806993 233.1653809 59.0234375 266.49609375 C58.72256367 267.55228196 58.42168984 268.60847018 58.11169863 269.69666409 C54.48126985 282.44138628 50.85239046 295.18654939 47.22402608 307.93185943 C41.40202941 328.38241926 35.57697527 348.8321082 29.75 369.28125 C29.44553939 370.34974458 29.14107879 371.41823915 28.8273921 372.51911235 C14.43499092 423.02708827 -0.02895177 473.51451206 -14.5 524 C-37.84222938 605.43487985 -61.0967918 686.89447849 -84.30070686 768.3688736 C-89.93409065 788.14887294 -95.56936689 807.9283325 -101.20656586 827.70724487 C-102.44423932 832.04983604 -103.68175346 836.39247257 -104.91916656 840.73513794 C-108.54459662 853.45817757 -112.17145061 866.18080912 -115.80162126 878.90249705 C-117.38114495 884.43791382 -118.96002768 889.97351133 -120.53722954 895.50959015 C-122.00020937 900.64462189 -123.4650476 905.7791197 -124.93136477 910.91319942 C-125.47073461 912.80294582 -126.00942164 914.69288724 -126.54739499 916.58303165 C-127.28095508 919.15994503 -128.01693538 921.73615474 -128.7535553 924.31219482 C-128.96854925 925.06962549 -129.1835432 925.82705616 -129.40505213 926.60743928 C-130.88586496 931.77172992 -130.88586496 931.77172992 -132 934 C-176.22 934 -220.44 934 -266 934 C-265.30290783 928.42326263 -264.55834705 923.89931026 -263.03689575 918.6103363 C-262.83682368 917.9086344 -262.6367516 917.20693249 -262.43061674 916.48396689 C-261.76164187 914.14316789 -261.08418845 911.8049117 -260.40673828 909.46655273 C-259.91917661 907.76711402 -259.43214956 906.06752185 -258.94561005 904.36779022 C-257.88824448 900.6782992 -256.82706394 896.98993425 -255.76295853 893.30238152 C-254.03445193 887.31236519 -252.31431396 881.31996387 -250.59506226 875.32728577 C-248.09616834 866.6203167 -245.59324272 857.91451525 -243.08764648 849.20947266 C-239.07608128 835.27170372 -235.07314904 821.33146345 -231.07226562 807.390625 C-230.56568318 805.62550516 -230.56568318 805.62550516 -230.04886675 803.82472634 C-228.67279297 799.02991105 -227.29675431 794.23508568 -225.9208262 789.44022858 C-223.81882918 782.11519516 -221.7162569 774.79032717 -219.61328053 767.46557486 C-210.04984627 734.15453749 -200.51806993 700.8346191 -191.0234375 667.50390625 C-190.72256367 666.44771804 -190.42168984 665.39152982 -190.11169863 664.30333591 C-186.48126985 651.55861372 -182.85239046 638.81345061 -179.22402608 626.06814057 C-173.40202941 605.61758074 -167.57697527 585.1678918 -161.75 564.71875 C-161.44553939 563.65025542 -161.14107879 562.58176085 -160.8273921 561.48088765 C-146.43499092 510.97291173 -131.97104823 460.48548794 -117.5 410 C-94.15777062 328.56512015 -70.9032082 247.10552151 -47.69929314 165.6311264 C-42.06590935 145.85112706 -36.43063311 126.0716675 -30.79343414 106.29275513 C-29.55576068 101.95016396 -28.31824654 97.60752743 -27.08083344 93.26486206 C-23.45540338 80.54182243 -19.82854939 67.81919088 -16.19837874 55.09750295 C-14.61885505 49.56208618 -13.03997232 44.02648867 -11.46277046 38.49040985 C-9.99979063 33.35537811 -8.5349524 28.2208803 -7.06863523 23.08680058 C-6.52926539 21.19705418 -5.99057836 19.30711276 -5.45260501 17.41696835 C-4.71904492 14.84005497 -3.98306462 12.26384526 -3.2464447 9.68780518 C-3.03145075 8.93037451 -2.8164568 8.17294384 -2.59494787 7.39256072 C-1.11413504 2.22827008 -1.11413504 2.22827008 0 0 Z " fill="white" transform="translate(866,333)"/>
<path d="M0 0 C17.41136474 -0.32772871 34.82176101 -0.57424639 52.23550892 -0.72537041 C60.32203872 -0.79742126 68.40664731 -0.89555413 76.49194336 -1.05615234 C83.54316825 -1.19614347 90.59300165 -1.28611637 97.64557761 -1.31723893 C101.377312 -1.33542247 105.10506771 -1.37780975 108.83551979 -1.48022079 C133.35654989 -2.12787907 133.35654989 -2.12787907 139.21066284 3.05609131 C142.16630971 6.40241806 144.05338524 10.00052153 146 14 C147.13138839 15.49406212 148.29710027 16.96463277 149.53125 18.375 C150.02560547 18.97957031 150.51996094 19.58414062 151.02929688 20.20703125 C151.51462891 20.79871094 151.99996094 21.39039063 152.5 22 C157.0089612 27.52227115 161.44844804 33.09187206 165.8359375 38.7109375 C169.33776247 43.18436708 172.90811164 47.59867202 176.5 52 C181.00759973 57.52339685 185.44842642 63.09184436 189.8359375 68.7109375 C193.33776247 73.18436708 196.90811164 77.59867202 200.5 82 C205.00759973 87.52339685 209.44842642 93.09184436 213.8359375 98.7109375 C217.33776247 103.18436708 220.90811164 107.59867202 224.5 112 C229.00759973 117.52339685 233.44842642 123.09184436 237.8359375 128.7109375 C241.33776247 133.18436708 244.90811164 137.59867202 248.5 142 C253.00759973 147.52339685 257.44842642 153.09184436 261.8359375 158.7109375 C265.33776247 163.18436708 268.90811164 167.59867202 272.5 172 C277.00759973 177.52339685 281.44842642 183.09184436 285.8359375 188.7109375 C289.33776247 193.18436708 292.90811164 197.59867202 296.5 202 C301.00759973 207.52339685 305.44842642 213.09184436 309.8359375 218.7109375 C313.33776247 223.18436708 316.90811164 227.59867202 320.5 232 C325.00759973 237.52339685 329.44842642 243.09184436 333.8359375 248.7109375 C337.33776247 253.18436708 340.90811164 257.59867202 344.5 262 C349.00759973 267.52339685 353.44842642 273.09184436 357.8359375 278.7109375 C361.33776247 283.18436708 364.90811164 287.59867202 368.5 292 C373.00168053 297.51614375 377.44329486 303.07238054 381.81616211 308.69116211 C384.33480734 311.9166663 386.89520399 315.10063119 389.50390625 318.25390625 C390.09558594 318.97126953 390.68726563 319.68863281 391.296875 320.42773438 C392.44643066 321.81762855 393.60113282 323.20328733 394.76171875 324.58398438 C397.51669611 327.91913553 399.70077601 330.7956789 401 335 C400.18917969 335.99257813 399.37835937 336.98515625 398.54296875 338.0078125 C393.14206777 344.63081516 387.75924714 351.2637002 382.5 358 C378.01803376 363.74013402 373.44043396 369.39693303 368.8359375 375.0390625 C365.34469917 379.32451618 361.90181112 383.64329453 358.5 388 C354.0179989 393.74010668 349.44043443 399.39693246 344.8359375 405.0390625 C341.34469917 409.32451618 337.90181112 413.64329453 334.5 418 C330.0179989 423.74010668 325.44043443 429.39693246 320.8359375 435.0390625 C317.34469917 439.32451618 313.90181112 443.64329453 310.5 448 C306.0179989 453.74010668 301.44043443 459.39693246 296.8359375 465.0390625 C293.34469917 469.32451618 289.90181112 473.64329453 286.5 478 C282.0179989 483.74010668 277.44043443 489.39693246 272.8359375 495.0390625 C269.34469917 499.32451618 265.90181112 503.64329453 262.5 508 C258.0179989 513.74010668 253.44043443 519.39693246 248.8359375 525.0390625 C245.34469917 529.32451618 241.90181112 533.64329453 238.5 538 C234.0179989 543.74010668 229.44043443 549.39693246 224.8359375 555.0390625 C221.34469917 559.32451618 217.90181112 563.64329453 214.5 568 C210.0179989 573.74010668 205.44043443 579.39693246 200.8359375 585.0390625 C197.34469917 589.32451618 193.90181112 593.64329453 190.5 598 C186.0179989 603.74010668 181.44043443 609.39693246 176.8359375 615.0390625 C173.34469917 619.32451618 169.90181112 623.64329453 166.5 628 C162.55804805 633.04846478 158.5496178 638.0375073 154.5 643 C150.22788723 648.23758355 145.9910735 653.49990187 141.8125 658.8125 C141.35488281 659.39322266 140.89726563 659.97394531 140.42578125 660.57226562 C138.52208628 663.00121789 136.71302213 665.43046681 135 668 C132.64555931 668.36914349 132.64555931 668.36914349 129.6343689 668.36076355 C128.49570877 668.36488754 127.35704865 668.36901154 126.18388367 668.3732605 C124.92872452 668.36247467 123.67356537 668.35168884 122.38037109 668.34057617 C120.40483498 668.34123329 120.40483498 668.34123329 118.38938904 668.34190369 C114.77173229 668.34276655 111.15437226 668.32509403 107.53678465 668.30418181 C103.75847587 668.28546333 99.98016074 668.2836684 96.20181274 668.28010559 C89.04424655 668.27077088 81.88681737 668.24613791 74.72931159 668.21605712 C66.58191839 668.18255737 58.43451874 668.16603826 50.28707385 668.15097082 C33.52463562 668.11958951 16.76233528 668.06680145 0 668 C1.77551043 665.00541525 3.53068791 662.18804266 5.75 659.50390625 C6.27013672 658.87033203 6.79027344 658.23675781 7.32617188 657.58398438 C8.1547168 656.58334961 8.1547168 656.58334961 9 655.5625 C10.17802252 654.12707234 11.35509045 652.69086079 12.53125 651.25390625 C13.11777344 650.53734863 13.70429687 649.82079102 14.30859375 649.08251953 C16.74367745 646.08435787 19.12537308 643.04611865 21.5 640 C25.98150131 634.25951177 30.55957536 628.60305554 35.1640625 622.9609375 C38.65530083 618.67548382 42.09818888 614.35670547 45.5 610 C49.9820011 604.25989332 54.55956557 598.60306754 59.1640625 592.9609375 C62.65530083 588.67548382 66.09818888 584.35670547 69.5 580 C73.9820011 574.25989332 78.55956557 568.60306754 83.1640625 562.9609375 C86.65530083 558.67548382 90.09818888 554.35670547 93.5 550 C97.9820011 544.25989332 102.55956557 538.60306754 107.1640625 532.9609375 C110.65530083 528.67548382 114.09818888 524.35670547 117.5 520 C121.9820011 514.25989332 126.55956557 508.60306754 131.1640625 502.9609375 C134.65530083 498.67548382 138.09818888 494.35670547 141.5 490 C145.9820011 484.25989332 150.55956557 478.60306754 155.1640625 472.9609375 C158.65530083 468.67548382 162.09818888 464.35670547 165.5 460 C169.9820011 454.25989332 174.55956557 448.60306754 179.1640625 442.9609375 C182.65530083 438.67548382 186.09818888 434.35670547 189.5 430 C193.9820011 424.25989332 198.55956557 418.60306754 203.1640625 412.9609375 C206.65530083 408.67548382 210.09818888 404.35670547 213.5 400 C217.9820011 394.25989332 222.55956557 388.60306754 227.1640625 382.9609375 C231.11120901 378.11586193 234.98728871 373.22036156 238.83154297 368.29345703 C241.8232098 364.46962789 244.86670757 360.69238203 247.94116211 356.93481445 C250.12633228 354.2617275 252.29750136 351.57748441 254.46630859 348.89111328 C255.46613893 347.65827568 256.47143188 346.42984218 257.48291016 345.20654297 C258.81842686 343.58830879 260.1302991 341.95363085 261.4375 340.3125 C262.54931641 338.94544922 262.54931641 338.94544922 263.68359375 337.55078125 C265.25666286 335.1219612 265.25666286 335.1219612 264.625 332.6640625 C262.28265114 328.82396173 259.47398698 325.48294775 256.5625 322.0625 C255.28256632 320.53493232 254.00393552 319.00627209 252.7265625 317.4765625 C252.09266602 316.71891602 251.45876953 315.96126953 250.80566406 315.18066406 C248.29133705 312.14416206 245.85664182 309.05001779 243.4375 305.9375 C239.51900908 300.90750362 235.53202555 295.93945284 231.5 291 C226.99232786 285.47666343 222.55157233 279.90815403 218.1640625 274.2890625 C214.66223753 269.81563292 211.09188836 265.40132798 207.5 261 C202.99240027 255.47660315 198.55157358 249.90815564 194.1640625 244.2890625 C190.66223753 239.81563292 187.09188836 235.40132798 183.5 231 C178.99240027 225.47660315 174.55157358 219.90815564 170.1640625 214.2890625 C166.66223753 209.81563292 163.09188836 205.40132798 159.5 201 C154.99240027 195.47660315 150.55157358 189.90815564 146.1640625 184.2890625 C142.66223753 179.81563292 139.09188836 175.40132798 135.5 171 C130.99240027 165.47660315 126.55157358 159.90815564 122.1640625 154.2890625 C118.66223753 149.81563292 115.09188836 145.40132798 111.5 141 C106.99240027 135.47660315 102.55157358 129.90815564 98.1640625 124.2890625 C94.66223753 119.81563292 91.09188836 115.40132798 87.5 111 C82.99240027 105.47660315 78.55157358 99.90815564 74.1640625 94.2890625 C70.66223753 89.81563292 67.09188836 85.40132798 63.5 81 C58.99240027 75.47660315 54.55157358 69.90815564 50.1640625 64.2890625 C46.66223753 59.81563292 43.09188836 55.40132798 39.5 51 C34.99371364 45.47821249 30.55273442 39.91247041 26.16845703 34.29345703 C22.63025898 29.7710735 19.01074367 25.31915515 15.375 20.875 C0 2.04897974 0 2.04897974 0 0 Z " fill="white" transform="translate(1066,466)"/>
<path d="M0 0 C2.35444069 -0.36914349 2.35444069 -0.36914349 5.3656311 -0.36076355 C6.50429123 -0.36488754 7.64295135 -0.36901154 8.81611633 -0.3732605 C10.69885506 -0.35708176 10.69885506 -0.35708176 12.61962891 -0.34057617 C14.59516502 -0.34123329 14.59516502 -0.34123329 16.61061096 -0.34190369 C20.22826771 -0.34276655 23.84562774 -0.32509403 27.46321535 -0.30418181 C31.24152413 -0.28546333 35.01983926 -0.2836684 38.79818726 -0.28010559 C45.95575345 -0.27077088 53.11318263 -0.24613791 60.27068841 -0.21605712 C68.41808161 -0.18255737 76.56548126 -0.16603826 84.71292615 -0.15097082 C101.47536438 -0.11958951 118.23766472 -0.06680145 135 0 C133.22448957 2.99458475 131.46931209 5.81195734 129.25 8.49609375 C128.72986328 9.12966797 128.20972656 9.76324219 127.67382812 10.41601562 C127.12146484 11.08310547 126.56910156 11.75019531 126 12.4375 C124.82197748 13.87292766 123.64490955 15.30913921 122.46875 16.74609375 C121.88222656 17.46265137 121.29570313 18.17920898 120.69140625 18.91748047 C118.25632255 21.91564213 115.87462692 24.95388135 113.5 28 C109.01849869 33.74048823 104.44042464 39.39694446 99.8359375 45.0390625 C96.34469917 49.32451618 92.90181112 53.64329453 89.5 58 C85.0179989 63.74010668 80.44043443 69.39693246 75.8359375 75.0390625 C72.34469917 79.32451618 68.90181112 83.64329453 65.5 88 C61.0179989 93.74010668 56.44043443 99.39693246 51.8359375 105.0390625 C48.34469917 109.32451618 44.90181112 113.64329453 41.5 118 C37.0179989 123.74010668 32.44043443 129.39693246 27.8359375 135.0390625 C24.34469917 139.32451618 20.90181112 143.64329453 17.5 148 C13.0179989 153.74010668 8.44043443 159.39693246 3.8359375 165.0390625 C0.34469917 169.32451618 -3.09818888 173.64329453 -6.5 178 C-10.9820011 183.74010668 -15.55956557 189.39693246 -20.1640625 195.0390625 C-23.65530083 199.32451618 -27.09818888 203.64329453 -30.5 208 C-34.9820011 213.74010668 -39.55956557 219.39693246 -44.1640625 225.0390625 C-47.65530083 229.32451618 -51.09818888 233.64329453 -54.5 238 C-58.9820011 243.74010668 -63.55956557 249.39693246 -68.1640625 255.0390625 C-71.65530083 259.32451618 -75.09818888 263.64329453 -78.5 268 C-82.9820011 273.74010668 -87.55956557 279.39693246 -92.1640625 285.0390625 C-96.11120901 289.88413807 -99.98728871 294.77963844 -103.83154297 299.70654297 C-106.8232098 303.53037211 -109.86670757 307.30761797 -112.94116211 311.06518555 C-115.12633228 313.7382725 -117.29750136 316.42251559 -119.46630859 319.10888672 C-120.46613893 320.34172432 -121.47143188 321.57015782 -122.48291016 322.79345703 C-123.81842686 324.41169121 -125.1302991 326.04636915 -126.4375 327.6875 C-127.54931641 329.05455078 -127.54931641 329.05455078 -128.68359375 330.44921875 C-130.25666286 332.8780388 -130.25666286 332.8780388 -129.625 335.3359375 C-127.28265114 339.17603827 -124.47398698 342.51705225 -121.5625 345.9375 C-120.28256632 347.46506768 -119.00393552 348.99372791 -117.7265625 350.5234375 C-117.09266602 351.28108398 -116.45876953 352.03873047 -115.80566406 352.81933594 C-113.29133705 355.85583794 -110.85664182 358.94998221 -108.4375 362.0625 C-104.51900908 367.09249638 -100.53202555 372.06054716 -96.5 377 C-91.99232786 382.52333657 -87.55157233 388.09184597 -83.1640625 393.7109375 C-79.66223753 398.18436708 -76.09188836 402.59867202 -72.5 407 C-67.99240027 412.52339685 -63.55157358 418.09184436 -59.1640625 423.7109375 C-55.66223753 428.18436708 -52.09188836 432.59867202 -48.5 437 C-43.99240027 442.52339685 -39.55157358 448.09184436 -35.1640625 453.7109375 C-31.66223753 458.18436708 -28.09188836 462.59867202 -24.5 467 C-19.99240027 472.52339685 -15.55157358 478.09184436 -11.1640625 483.7109375 C-7.66223753 488.18436708 -4.09188836 492.59867202 -0.5 497 C4.00759973 502.52339685 8.44842642 508.09184436 12.8359375 513.7109375 C16.33776247 518.18436708 19.90811164 522.59867202 23.5 527 C28.00759973 532.52339685 32.44842642 538.09184436 36.8359375 543.7109375 C40.33776247 548.18436708 43.90811164 552.59867202 47.5 557 C52.00759973 562.52339685 56.44842642 568.09184436 60.8359375 573.7109375 C64.33776247 578.18436708 67.90811164 582.59867202 71.5 587 C76.00759973 592.52339685 80.44842642 598.09184436 84.8359375 603.7109375 C88.33776247 608.18436708 91.90811164 612.59867202 95.5 617 C100.00628636 622.52178751 104.44726558 628.08752959 108.83154297 633.70654297 C112.36974102 638.2289265 115.98925633 642.68084485 119.625 647.125 C135 665.95102026 135 665.95102026 135 668 C117.58863526 668.32772871 100.17823899 668.57424639 82.76449108 668.72537041 C74.67796128 668.79742126 66.59335269 668.89555413 58.50805664 669.05615234 C51.45683175 669.19614347 44.40699835 669.28611637 37.35442239 669.31723893 C33.622688 669.33542247 29.89493229 669.37780975 26.16448021 669.48022079 C1.64345011 670.12787907 1.64345011 670.12787907 -4.21066284 664.94390869 C-7.16630971 661.59758194 -9.05338524 657.99947847 -11 654 C-12.13138839 652.50593788 -13.29710027 651.03536723 -14.53125 649.625 C-15.02560547 649.02042969 -15.51996094 648.41585937 -16.02929688 647.79296875 C-16.51462891 647.20128906 -16.99996094 646.60960937 -17.5 646 C-22.0089612 640.47772885 -26.44844804 634.90812794 -30.8359375 629.2890625 C-34.33776247 624.81563292 -37.90811164 620.40132798 -41.5 616 C-46.00759973 610.47660315 -50.44842642 604.90815564 -54.8359375 599.2890625 C-58.33776247 594.81563292 -61.90811164 590.40132798 -65.5 586 C-70.00759973 580.47660315 -74.44842642 574.90815564 -78.8359375 569.2890625 C-82.33776247 564.81563292 -85.90811164 560.40132798 -89.5 556 C-94.00759973 550.47660315 -98.44842642 544.90815564 -102.8359375 539.2890625 C-106.33776247 534.81563292 -109.90811164 530.40132798 -113.5 526 C-118.00759973 520.47660315 -122.44842642 514.90815564 -126.8359375 509.2890625 C-130.33776247 504.81563292 -133.90811164 500.40132798 -137.5 496 C-142.00759973 490.47660315 -146.44842642 484.90815564 -150.8359375 479.2890625 C-154.33776247 474.81563292 -157.90811164 470.40132798 -161.5 466 C-166.00759973 460.47660315 -170.44842642 454.90815564 -174.8359375 449.2890625 C-178.33776247 444.81563292 -181.90811164 440.40132798 -185.5 436 C-190.00759973 430.47660315 -194.44842642 424.90815564 -198.8359375 419.2890625 C-202.33776247 414.81563292 -205.90811164 410.40132798 -209.5 406 C-214.00759973 400.47660315 -218.44842642 394.90815564 -222.8359375 389.2890625 C-226.33776247 384.81563292 -229.90811164 380.40132798 -233.5 376 C-238.00168053 370.48385625 -242.44329486 364.92761946 -246.81616211 359.30883789 C-249.33480734 356.0833337 -251.89520399 352.89936881 -254.50390625 349.74609375 C-255.09558594 349.02873047 -255.68726563 348.31136719 -256.296875 347.57226562 C-257.44643066 346.18237145 -258.60113282 344.79671267 -259.76171875 343.41601562 C-262.51669611 340.08086447 -264.70077601 337.2043211 -266 333 C-265.18917969 332.00742187 -264.37835938 331.01484375 -263.54296875 329.9921875 C-258.14206777 323.36918484 -252.75924714 316.7362998 -247.5 310 C-243.01803376 304.25986598 -238.44043396 298.60306697 -233.8359375 292.9609375 C-230.34469917 288.67548382 -226.90181112 284.35670547 -223.5 280 C-219.0179989 274.25989332 -214.44043443 268.60306754 -209.8359375 262.9609375 C-206.34469917 258.67548382 -202.90181112 254.35670547 -199.5 250 C-195.0179989 244.25989332 -190.44043443 238.60306754 -185.8359375 232.9609375 C-182.34469917 228.67548382 -178.90181112 224.35670547 -175.5 220 C-171.0179989 214.25989332 -166.44043443 208.60306754 -161.8359375 202.9609375 C-158.34469917 198.67548382 -154.90181112 194.35670547 -151.5 190 C-147.0179989 184.25989332 -142.44043443 178.60306754 -137.8359375 172.9609375 C-134.34469917 168.67548382 -130.90181112 164.35670547 -127.5 160 C-123.0179989 154.25989332 -118.44043443 148.60306754 -113.8359375 142.9609375 C-110.34469917 138.67548382 -106.90181112 134.35670547 -103.5 130 C-99.0179989 124.25989332 -94.44043443 118.60306754 -89.8359375 112.9609375 C-86.34469917 108.67548382 -82.90181112 104.35670547 -79.5 100 C-75.0179989 94.25989332 -70.44043443 88.60306754 -65.8359375 82.9609375 C-62.34469917 78.67548382 -58.90181112 74.35670547 -55.5 70 C-51.0179989 64.25989332 -46.44043443 58.60306754 -41.8359375 52.9609375 C-38.34469917 48.67548382 -34.90181112 44.35670547 -31.5 40 C-27.55804805 34.95153522 -23.5496178 29.9624927 -19.5 25 C-15.22788723 19.76241645 -10.9910735 14.50009813 -6.8125 9.1875 C-6.35488281 8.60677734 -5.89726562 8.02605469 -5.42578125 7.42773438 C-3.52208628 4.99878211 -1.71302213 2.56953319 0 0 Z " fill="white" transform="translate(399,466)"/>
</svg>
