<?xml version="1.0" encoding="UTF-8"?>
<svg version="1.1" xmlns="http://www.w3.org/2000/svg" width="600" height="600" fill="white">
<path d="M0 0 C14.85 0 29.7 0 45 0 C45 15.18 45 30.36 45 46 C30.15 46 15.3 46 0 46 C0 30.82 0 15.64 0 0 Z " fill="white1C7FB5" transform="translate(96,312)"/>
<path d="M0 0 C14.85 0 29.7 0 45 0 C45 14.85 45 29.7 45 45 C30.15 45 15.3 45 0 45 C0 30.15 0 15.3 0 0 Z " fill="white1C7FB5" transform="translate(0,312)"/>
<path d="M0 0 C14.85 0 29.7 0 45 0 C45 14.85 45 29.7 45 45 C30.15 45 15.3 45 0 45 C0 30.15 0 15.3 0 0 Z " fill="white1B7FB4" transform="translate(48,288)"/>
<path d="M0 0 C14.85 0 29.7 0 45 0 C45 14.85 45 29.7 45 45 C30.15 45 15.3 45 0 45 C0 30.15 0 15.3 0 0 Z " fill="white8CC782" transform="translate(193,264)"/>
<path d="M0 0 C14.85 0 29.7 0 45 0 C45 14.85 45 29.7 45 45 C30.15 45 15.3 45 0 45 C0 30.15 0 15.3 0 0 Z " fill="white7BA6C8" transform="translate(96,264)"/>
<path d="M0 0 C14.85 0 29.7 0 45 0 C45 14.85 45 29.7 45 45 C30.15 45 15.3 45 0 45 C0 30.15 0 15.3 0 0 Z " fill="white1C7FB5" transform="translate(0,264)"/>
<path d="M0 0 C14.85 0 29.7 0 45 0 C45 14.85 45 29.7 45 45 C30.15 45 15.3 45 0 45 C0 30.15 0 15.3 0 0 Z " fill="white8DC881" transform="translate(145,240)"/>
<path d="M0 0 C14.85 0 29.7 0 45 0 C45 14.85 45 29.7 45 45 C30.15 45 15.3 45 0 45 C0 30.15 0 15.3 0 0 Z " fill="white8CC782" transform="translate(193,216)"/>
<path d="M0 0 C14.85 0 29.7 0 45 0 C45 14.85 45 29.7 45 45 C30.15 45 15.3 45 0 45 C0 30.15 0 15.3 0 0 Z " fill="white8CC782" transform="translate(96,216)"/>
<path d="M0 0 C1.98 0 3.96 0 6 0 C10.31508815 8.38155863 14.21547291 16.87609534 17.875 25.5625 C18.37257813 26.72330078 18.87015625 27.88410156 19.3828125 29.08007812 C19.85203125 30.18931641 20.32125 31.29855469 20.8046875 32.44140625 C21.43866455 33.93716187 21.43866455 33.93716187 22.08544922 35.46313477 C23 38 23 38 23 41 C23.66 41 24.32 41 25 41 C25.34675781 39.85660156 25.69351563 38.71320313 26.05078125 37.53515625 C28.57478474 29.96314579 31.95803161 22.72774525 35.1875 15.4375 C35.84867481 13.93701085 36.50948519 12.43636106 37.16992188 10.93554688 C38.77575054 7.28849819 40.38650128 3.64366145 42 0 C44.31 0 46.62 0 49 0 C59.72509756 24.16861838 59.72509756 24.16861838 64.1875 34.9375 C64.47826416 35.63351318 64.76902832 36.32952637 65.06860352 37.04663086 C67 41.75497159 67 41.75497159 67 44 C64.69 44 62.38 44 60 44 C58.68 41.03 57.36 38.06 56 35 C45.11 34.505 45.11 34.505 34 34 C33.01 37.3 32.02 40.6 31 44 C26.38 44 21.76 44 17 44 C16.01 40.7 15.02 37.4 14 34 C6.74 34.33 -0.52 34.66 -8 35 C-9.32 37.97 -10.64 40.94 -12 44 C-14.31 44 -16.62 44 -19 44 C-16.70598213 36.48709147 -13.62687809 29.40342239 -10.38427734 22.26049805 C-9.49786168 20.30778944 -8.61753745 18.35242574 -7.73828125 16.39648438 C-5.25156568 10.88123947 -2.7349104 5.39798356 0 0 Z M45 8 C42.36 14.6 39.72 21.2 37 28 C42.28 28 47.56 28 53 28 C52.33533318 24.67666588 51.82159397 22.24432568 50.58984375 19.23046875 C50.32236328 18.56982422 50.05488281 17.90917969 49.77929688 17.22851562 C49.50150391 16.55498047 49.22371094 15.88144531 48.9375 15.1875 C48.65583984 14.49462891 48.37417969 13.80175781 48.08398438 13.08789062 C47.39325027 11.39032376 46.69716272 9.69493688 46 8 C45.67 8 45.34 8 45 8 Z M2 9 C0.82905995 11.7899439 -0.33690927 14.58178597 -1.5 17.375 C-1.83386719 18.1690625 -2.16773438 18.963125 -2.51171875 19.78125 C-2.98544922 20.92207031 -2.98544922 20.92207031 -3.46875 22.0859375 C-3.76201172 22.7876709 -4.05527344 23.4894043 -4.35742188 24.21240234 C-5.11275781 25.99708561 -5.11275781 25.99708561 -5 28 C0.28 28 5.56 28 11 28 C10.57847656 26.87980469 10.15695312 25.75960938 9.72265625 24.60546875 C9.16924176 23.13282342 8.61585795 21.66016657 8.0625 20.1875 C7.78470703 19.44951172 7.50691406 18.71152344 7.22070312 17.95117188 C6.95322266 17.23896484 6.68574219 16.52675781 6.41015625 15.79296875 C6.16402588 15.1383667 5.91789551 14.48376465 5.66430664 13.80932617 C5.07962967 12.21688185 4.53644441 10.60933324 4 9 C3.34 9 2.68 9 2 9 Z " fill="white292526" transform="translate(251,339)"/>
<path d="M0 0 C-0.25 1.875 -0.25 1.875 -1 4 C-2.81640625 5.25390625 -2.81640625 5.25390625 -5 6 C-6.82421875 5.28515625 -6.82421875 5.28515625 -8.6875 4.0625 C-13.34549341 1.50363956 -16.93815977 1.55375993 -22 3 C-26.32436687 5.12138752 -29.08588548 7.60093543 -31.3046875 11.9453125 C-32.87947032 16.59888422 -32.87947032 21.40111578 -31.3046875 26.0546875 C-28.59442916 31.36132778 -24.53861874 34.15379375 -19 36 C-14.21466002 36.18405154 -9.72172632 35.77089409 -5 35 C-5 30.71 -5 26.42 -5 22 C-8.3 22 -11.6 22 -15 22 C-15 20.02 -15 18.04 -15 16 C-9.72 16 -4.44 16 1 16 C1 23.59 1 31.18 1 39 C-5.31438466 41.70616485 -8.37194137 42.58298089 -14.8125 42.5625 C-15.99900146 42.55887451 -15.99900146 42.55887451 -17.20947266 42.55517578 C-23.98797982 42.34243494 -28.94182811 40.69611327 -34 36 C-39.50104299 29.81688699 -39.50177737 22.81951417 -39.34375 14.96875 C-38.891104 9.74274617 -37.58803961 6.7498345 -34 3 C-33.113125 2.071875 -32.22625 1.14375 -31.3125 0.1875 C-21.29479865 -6.42796315 -9.95007412 -6.85449551 0 0 Z " fill="white292526" transform="translate(359,342)"/>
<path d="M0 0 C1.98 0 3.96 0 6 0 C6 5.94 6 11.88 6 18 C13.26 18 20.52 18 28 18 C28 12.06 28 6.12 28 0 C30.31 0 32.62 0 35 0 C35 14.52 35 29.04 35 44 C32.69 44 30.38 44 28 44 C28 37.4 28 30.8 28 24 C20.74 24 13.48 24 6 24 C6 30.6 6 37.2 6 44 C4.02 44 2.04 44 0 44 C0 29.48 0 14.96 0 0 Z " fill="white282526" transform="translate(434,339)"/>
<path d="M0 0 C2.31 0 4.62 0 7 0 C9.56853076 5.94265242 12.13145122 11.8877007 14.69042969 17.83447266 C15.56217583 19.85847088 16.43521918 21.8819109 17.30957031 23.90478516 C18.56394007 26.80747073 19.81367676 29.71211213 21.0625 32.6171875 C21.45622803 33.52556366 21.84995605 34.43393982 22.25561523 35.36984253 C22.79617554 36.63092331 22.79617554 36.63092331 23.34765625 37.91748047 C23.66742432 38.65916473 23.98719238 39.400849 24.31665039 40.16500854 C25 42 25 42 25 44 C22.69 44 20.38 44 18 44 C17.32845067 42.71086513 16.66291141 41.41859796 16 40.125 C15.62875 39.40570313 15.2575 38.68640625 14.875 37.9453125 C14 36 14 36 14 34 C6.74 34 -0.52 34 -8 34 C-8.99 36.97 -9.98 39.94 -11 43 C-12 44 -12 44 -15.5625 44.0625 C-16.696875 44.041875 -17.83125 44.02125 -19 44 C-15.32116284 34.01765196 -11.10692796 24.35775586 -6.6875 14.6875 C-6.03546433 13.25341109 -5.38376971 11.81916707 -4.73242188 10.38476562 C-3.15885847 6.92138329 -1.58074878 3.46010834 0 0 Z M3 9 C-0.28217236 15.21407336 -2.93991112 21.27760471 -5 28 C0.28 28 5.56 28 11 28 C8.91923185 21.54961873 6.57778144 15.26780359 4 9 C3.67 9 3.34 9 3 9 Z " fill="white292526" transform="translate(383,339)"/>
<path d="M0 0 C2.31 0 4.62 0 7 0 C25 40.07423581 25 40.07423581 25 44 C22.69 44 20.38 44 18 44 C16.68 41.03 15.36 38.06 14 35 C6.74 34.67 -0.52 34.34 -8 34 C-8.495 36.475 -8.495 36.475 -9 39 C-9.63437344 40.6792238 -10.29289322 42.35008418 -11 44 C-13.31 44 -15.62 44 -18 44 C-17.31833061 38.95208223 -15.22854052 34.59393358 -13.18359375 29.98046875 C-12.61971703 28.69261223 -12.61971703 28.69261223 -12.04444885 27.3787384 C-10.84678297 24.6462565 -9.64224707 21.91686614 -8.4375 19.1875 C-7.62259143 17.33158012 -6.80813309 15.47546248 -5.99414062 13.61914062 C-4.00130431 9.07711867 -2.0023026 4.53785632 0 0 Z M3 8 C0.36 14.6 -2.28 21.2 -5 28 C0.28 28 5.56 28 11 28 C10.33533318 24.67666588 9.82159397 22.24432568 8.58984375 19.23046875 C8.32236328 18.56982422 8.05488281 17.90917969 7.77929688 17.22851562 C7.50150391 16.55498047 7.22371094 15.88144531 6.9375 15.1875 C6.65583984 14.49462891 6.37417969 13.80175781 6.08398438 13.08789062 C5.39325027 11.39032376 4.69716272 9.69493688 4 8 C3.67 8 3.34 8 3 8 Z " fill="white292526" transform="translate(575,339)"/>
<path d="M0 0 C1.98 0 3.96 0 6 0 C6 5.94 6 11.88 6 18 C13.59 18 21.18 18 29 18 C29 12.06 29 6.12 29 0 C30.98 0 32.96 0 35 0 C35 14.52 35 29.04 35 44 C33.02 44 31.04 44 29 44 C29 37.4 29 30.8 29 24 C21.41 24 13.82 24 6 24 C6 30.6 6 37.2 6 44 C4.02 44 2.04 44 0 44 C0 29.48 0 14.96 0 0 Z " fill="white282426" transform="translate(193,339)"/>
<path d="M0 0 C9.24 0 18.48 0 28 0 C28 1.65 28 3.3 28 5 C20.74 5 13.48 5 6 5 C6 9.29 6 13.58 6 18 C12.93 18 19.86 18 27 18 C27 19.98 27 21.96 27 24 C20.07 24 13.14 24 6 24 C6 28.95 6 33.9 6 39 C13.92 39 21.84 39 30 39 C30 40.65 30 42.3 30 44 C20.1 44 10.2 44 0 44 C0 29.48 0 14.96 0 0 Z " fill="white292525" transform="translate(478,339)"/>
<path d="M0 0 C1.98 0 3.96 0 6 0 C6 12.87 6 25.74 6 39 C12.6 39 19.2 39 26 39 C26 40.65 26 42.3 26 44 C17.42 44 8.84 44 0 44 C0 29.48 0 14.96 0 0 Z " fill="white282425" transform="translate(515,339)"/>
<path d="M0 0 C2.31 0 4.62 0 7 0 C7 14.85 7 29.7 7 45 C4.69 45 2.38 45 0 45 C0 30.15 0 15.3 0 0 Z " fill="white292525" transform="translate(546,338)"/>
<path d="M0 0 C5.28 0 10.56 0 16 0 C16 1.65 16 3.3 16 5 C10.72 5 5.44 5 0 5 C0 3.35 0 1.7 0 0 Z " fill="white292526" transform="translate(410,366)"/>
</svg>
