<?xml version="1.0" encoding="UTF-8"?>
<svg version="1.1" xmlns="http://www.w3.org/2000/svg" width="284" height="300" viewBox="-50 -50 384 384">
<path d="M0 0 C0.66 0.33 1.32 0.66 2 1 C2.66 0.34 3.32 -0.32 4 -1 C4.66 0.32 5.32 1.64 6 3 C6.94875 2.938125 7.8975 2.87625 8.875 2.8125 C9.90625 2.874375 10.9375 2.93625 12 3 C12.99 4.485 12.99 4.485 14 6 C13.01 6 12.02 6 11 6 C11.63228516 7.03060547 11.63228516 7.03060547 12.27734375 8.08203125 C12.82519531 8.98308594 13.37304688 9.88414063 13.9375 10.8125 C14.48277344 11.70582031 15.02804688 12.59914063 15.58984375 13.51953125 C18.77115111 19.1154597 18.90917187 25.26885312 17.3984375 31.46875 C17.01558594 32.72171875 17.01558594 32.72171875 16.625 34 C14.2494886 41.80203508 13.75616805 49.91344987 13 58 C9.29393538 54.78130827 8.99994477 51.69204851 8 47 C7.34 47 6.68 47 6 47 C5.67 48.65 5.34 50.3 5 52 C5.33 52 5.66 52 6 52 C6.495 59.425 6.495 59.425 7 67 C5.73929688 67.40863281 4.47859375 67.81726563 3.1796875 68.23828125 C-3.20448167 70.36508731 -9.45015198 72.84067616 -15.7109375 75.30273438 C-16.608125 75.65013672 -17.5053125 75.99753906 -18.4296875 76.35546875 C-19.23647949 76.67153076 -20.04327148 76.98759277 -20.87451172 77.31323242 C-23 78 -23 78 -26 78 C-26.495 71.07 -26.495 71.07 -27 64 C-28.77375 64.04125 -30.5475 64.0825 -32.375 64.125 C-35.3984375 64.1953125 -35.3984375 64.1953125 -38 64 C-40 62 -40 62 -40.25 58.625 C-40.02515633 55.36476676 -39.7239511 53.69367359 -38 51 C-40.475 51.495 -40.475 51.495 -43 52 C-42.67 51.01 -42.34 50.02 -42 49 C-41.01 48.505 -41.01 48.505 -40 48 C-41.32 47.34 -42.64 46.68 -44 46 C-43.34 43.36 -42.68 40.72 -42 38 C-42.66 37.67 -43.32 37.34 -44 37 C-43.67 37.99 -43.34 38.98 -43 40 C-46.465 40.495 -46.465 40.495 -50 41 C-49.62099603 37.77846629 -49.10891637 36.13702382 -47.0625 33.5625 C-44.52802558 30.21803891 -44.86717395 27.15924849 -44.75 23.0625 C-44.08461866 16.88489092 -44.08461866 16.88489092 -41.41699219 14.70849609 C-37.42001562 12.45458445 -33.16198671 10.97385107 -28.79785156 9.59570312 C-26.75338694 8.91828682 -24.88239373 8.04467924 -23 7 C-32.8969501 10.58272135 -42.51351367 14.41919667 -52 19 C-50.25404014 13.95705767 -48.16372965 12.16805517 -44 9 C-47.518386 9.41885548 -50.05638354 10.02819177 -53.25 11.625 C-54.61125 12.305625 -54.61125 12.305625 -56 13 C-56.66 12.67 -57.32 12.34 -58 12 C-43.34529819 -2.58068817 -19.341316 -10.74997251 0 0 Z " fill="white" transform="translate(160,107)"/>
<path d="M0 0 C0.99 0.66 1.98 1.32 3 2 C3.33 1.01 3.66 0.02 4 -1 C4.66 0.65 5.32 2.3 6 4 C6.94875 3.95875 7.8975 3.9175 8.875 3.875 C12 4 12 4 14 6 C13.01 6 12.02 6 11 6 C11.42152344 6.77085938 11.84304687 7.54171875 12.27734375 8.3359375 C12.82519531 9.33882812 13.37304688 10.34171875 13.9375 11.375 C14.48277344 12.37273438 15.02804688 13.37046875 15.58984375 14.3984375 C19.87966229 22.31261796 17.74241703 29.71682899 15.80078125 38.13671875 C14.44029867 44.70021764 13.73497739 51.34196952 13 58 C10.7151711 55.79028876 9.17687973 53.98746393 8 51 C8 49.68 8 48.36 8 47 C7.34 47 6.68 47 6 47 C5.34 49.97 4.68 52.94 4 56 C4.66 55.01 5.32 54.02 6 53 C6.495 60.425 6.495 60.425 7 68 C5.93523437 68.29132813 4.87046875 68.58265625 3.7734375 68.8828125 C-4.91198032 71.31682066 -13.12939462 74.1209755 -21.33984375 77.86328125 C-24 79 -24 79 -26 79 C-26 74.38 -26 69.76 -26 65 C-24.95199219 64.74605469 -23.90398437 64.49210937 -22.82421875 64.23046875 C-21.44517401 63.88336225 -20.06627522 63.53567556 -18.6875 63.1875 C-17.99720703 63.02185547 -17.30691406 62.85621094 -16.59570312 62.68554688 C-11.52902608 61.49874394 -11.52902608 61.49874394 -8 58 C-7.3912753 55.40325049 -7.3912753 55.40325049 -7.125 52.5625 C-6.3150351 47.3150351 -6.3150351 47.3150351 -3.4375 44.4375 C-2.633125 43.963125 -1.82875 43.48875 -1 43 C0.36538938 40.26922124 0.13231826 38.04439633 0.125 35 C0.12757813 33.9275 0.13015625 32.855 0.1328125 31.75 C0.1872341 29.03817948 0.1872341 29.03817948 -1 27 C-3.33294775 26.95758277 -5.66702567 26.95907063 -8 27 C-8.495 27.495 -8.495 27.495 -9 28 C-7.6078125 27.6596875 -7.6078125 27.6596875 -6.1875 27.3125 C-3 27 -3 27 -1.125 27.9375 C0.72520103 31.32953521 0.30397492 34.16991598 0 38 C-0.66 38.66 -1.32 39.32 -2 40 C-2.77842938 36.59437148 -3.09978121 33.49234244 -3 30 C-4.65 30 -6.3 30 -8 30 C-8 30.33 -8 30.66 -8 31 C-6.68 31 -5.36 31 -4 31 C-4.11458693 32.43836751 -4.24209116 33.87570966 -4.375 35.3125 C-4.44460937 36.11300781 -4.51421875 36.91351563 -4.5859375 37.73828125 C-5 40 -5 40 -7 43 C-5.35 42.34 -3.7 41.68 -2 41 C-2.66 42.32 -3.32 43.64 -4 45 C-5.32 45 -6.64 45 -8 45 C-7.95875 46.175625 -7.9175 47.35125 -7.875 48.5625 C-7.86016365 52.72409674 -8.68829222 56.06487667 -10 60 C-11.89545392 60.48066535 -13.79138039 60.95946743 -15.6875 61.4375 C-16.74324219 61.70433594 -17.79898438 61.97117187 -18.88671875 62.24609375 C-23.7991981 63.43569038 -28.17614171 64.13749719 -33.25 64.125 C-34.83554688 64.12886719 -34.83554688 64.12886719 -36.453125 64.1328125 C-39 64 -39 64 -40 63 C-40.14115161 60.32941149 -40.04247107 57.67567762 -40 55 C-39.34 55 -38.68 55 -38 55 C-38 53.68 -38 52.36 -38 51 C-40.475 51.495 -40.475 51.495 -43 52 C-42.67 51.01 -42.34 50.02 -42 49 C-42.66 48.67 -43.32 48.34 -44 48 C-43.34 45.03 -42.68 42.06 -42 39 C-42.33 39.66 -42.66 40.32 -43 41 C-45.31 41 -47.62 41 -50 41 C-49.67 39.35 -49.34 37.7 -49 36 C-47.515 35.505 -47.515 35.505 -46 35 C-45.81824219 33.82244141 -45.81824219 33.82244141 -45.6328125 32.62109375 C-45.46523437 31.57050781 -45.29765625 30.51992188 -45.125 29.4375 C-44.96257812 28.40496094 -44.80015625 27.37242188 -44.6328125 26.30859375 C-44.42398438 25.21675781 -44.21515625 24.12492187 -44 23 C-43.78730469 21.78054687 -43.57460937 20.56109375 -43.35546875 19.3046875 C-42 16 -42 16 -38.91796875 14.07421875 C-37.07138672 13.38779297 -37.07138672 13.38779297 -35.1875 12.6875 C-33.35251953 11.98173828 -33.35251953 11.98173828 -31.48046875 11.26171875 C-30.33191406 10.84535156 -29.18335938 10.42898437 -28 10 C-27.08863281 9.61457031 -26.17726562 9.22914062 -25.23828125 8.83203125 C-23 8 -23 8 -20 8 C-20 7.34 -20 6.68 -20 6 C-24.06534557 7.59702005 -28.12674081 9.20385765 -32.1875 10.8125 C-33.33798828 11.26431641 -34.48847656 11.71613281 -35.67382812 12.18164062 C-36.78564453 12.62314453 -37.89746094 13.06464844 -39.04296875 13.51953125 C-40.06414795 13.92276611 -41.08532715 14.32600098 -42.13745117 14.74145508 C-45.04292541 15.94621402 -45.04292541 15.94621402 -47.74731445 17.6550293 C-50 19 -50 19 -52 19 C-50.44499019 15.18315774 -47.96404505 12.80804268 -45 10 C-49.19469571 10.59924224 -53.00999834 11.57499941 -57 13 C-50.15663794 3.99557624 -41.88385612 -0.34586667 -31 -3 C-30.40058594 -3.18304688 -29.80117187 -3.36609375 -29.18359375 -3.5546875 C-19.31485632 -5.56727438 -8.98311846 -4.49977049 0 0 Z " fill="white" transform="translate(202,18)"/>
<path d="M0 0 C0.92192139 -0.00386719 1.84384277 -0.00773437 2.79370117 -0.01171875 C9.94918018 0.10942153 15.62067682 1.45925529 21.6875 5.4375 C21.6875 4.7775 21.6875 4.1175 21.6875 3.4375 C22.3475 3.4375 23.0075 3.4375 23.6875 3.4375 C24.1825 5.4175 24.1825 5.4175 24.6875 7.4375 C26.0796875 7.3446875 26.0796875 7.3446875 27.5 7.25 C30.6875 7.4375 30.6875 7.4375 32.5625 8.9375 C32.93375 9.4325 33.305 9.9275 33.6875 10.4375 C32.3675 10.4375 31.0475 10.4375 29.6875 10.4375 C30.31978516 11.45070313 30.31978516 11.45070313 30.96484375 12.484375 C31.51269531 13.37640625 32.06054688 14.2684375 32.625 15.1875 C33.17027344 16.06921875 33.71554688 16.9509375 34.27734375 17.859375 C38.5718983 25.71091517 36.53183707 33.46297861 34.48828125 41.6953125 C33.02502075 48.53337863 32.39504033 55.48695674 31.6875 62.4375 C28.70337262 58.58674932 26.6875 55.42427741 26.6875 50.4375 C26.0275 50.4375 25.3675 50.4375 24.6875 50.4375 C23.93792843 53.90897842 23.93792843 53.90897842 23.6875 57.4375 C24.0175 57.4375 24.3475 57.4375 24.6875 57.4375 C25.1825 64.3675 25.1825 64.3675 25.6875 71.4375 C23.58761719 72.12585938 23.58761719 72.12585938 21.4453125 72.828125 C19.56765408 73.44775228 17.69005297 74.06755326 15.8125 74.6875 C14.43578125 75.13802734 14.43578125 75.13802734 13.03125 75.59765625 C7.4871789 77.4326657 2.06531861 79.43546672 -3.32080078 81.69433594 C-5.3125 82.4375 -5.3125 82.4375 -7.3125 82.4375 C-7.3125 77.8175 -7.3125 73.1975 -7.3125 68.4375 C-3.796875 67.75390625 -0.28125 67.0703125 3.234375 66.38671875 C7.47242416 65.22375437 7.47242416 65.22375437 10.6875 62.4375 C11.43595409 59.33736914 11.69244728 56.32398119 12 53.15234375 C12.226875 52.25644531 12.45375 51.36054688 12.6875 50.4375 C14.63671875 49.29296875 14.63671875 49.29296875 16.6875 48.4375 C19.18297336 44.59969621 19.95535885 40.51293146 19.5 36 C19.231875 34.824375 18.96375 33.64875 18.6875 32.4375 C18.0275 32.1075 17.3675 31.7775 16.6875 31.4375 C17.3475 32.0975 18.0075 32.7575 18.6875 33.4375 C18.953125 35.53125 18.953125 35.53125 18.9375 37.9375 C18.94523437 39.12859375 18.94523437 39.12859375 18.953125 40.34375 C18.6875 42.4375 18.6875 42.4375 16.6875 44.4375 C16.543125 43.550625 16.39875 42.66375 16.25 41.75 C15.77730022 38.96632354 15.25679815 36.20266243 14.6875 33.4375 C13.0375 33.4375 11.3875 33.4375 9.6875 33.4375 C9.6875 34.0975 9.6875 34.7575 9.6875 35.4375 C12.1625 34.9425 12.1625 34.9425 14.6875 34.4375 C14.1925 39.3875 14.1925 39.3875 13.6875 44.4375 C13.0275 44.4375 12.3675 44.4375 11.6875 44.4375 C12.6775 45.7575 13.6675 47.0775 14.6875 48.4375 C13.3675 48.4375 12.0475 48.4375 10.6875 48.4375 C10.72230469 49.00597656 10.75710937 49.57445312 10.79296875 50.16015625 C10.9828912 55.57746796 11.07653443 59.97824417 7.6875 64.4375 C-1.07756419 67.84411554 -11.01631433 68.14526231 -20.3125 67.4375 C-21.3125 66.4375 -21.3125 66.4375 -21.5 63.125 C-21.33048052 59.79111682 -21.06807129 58.18058013 -19.3125 55.4375 C-21.7875 55.9325 -21.7875 55.9325 -24.3125 56.4375 C-23.9825 55.4475 -23.6525 54.4575 -23.3125 53.4375 C-21.0025 53.4375 -18.6925 53.4375 -16.3125 53.4375 C-16.3125 52.7775 -16.3125 52.1175 -16.3125 51.4375 C-19.2825 51.4375 -22.2525 51.4375 -25.3125 51.4375 C-24.6525 48.4675 -23.9925 45.4975 -23.3125 42.4375 C-23.6425 43.0975 -23.9725 43.7575 -24.3125 44.4375 C-26.6225 44.4375 -28.9325 44.4375 -31.3125 44.4375 C-30.87703145 41.60695444 -30.21955713 40.32357003 -28.375 38.0625 C-25.88559879 34.69143586 -26.08214715 31.53728741 -25.875 27.4375 C-25.44921875 23.73046875 -25.44921875 23.73046875 -24.3125 20.4375 C-20.33862592 17.32775877 -16.09472372 15.92394206 -11.3125 14.4375 C-9.70514299 13.82075116 -8.10026114 13.19743305 -6.5 12.5625 C-5.448125 12.19125 -4.39625 11.82 -3.3125 11.4375 C-13.7434694 14.0703168 -23.76442987 18.51657155 -33.3125 23.4375 C-31.8807479 18.42636765 -29.32804307 16.49280451 -25.3125 13.4375 C-30.15909077 14.02854765 -33.91998167 15.41694157 -38.3125 17.4375 C-35.29532786 10.23419898 -27.63256202 6.22840391 -20.74609375 3.26171875 C-13.72914742 0.88519279 -7.38068097 0.02137198 0 0 Z " fill="white" transform="translate(60.3125,103.5625)"/>
<path d="M0 0 C0.66 -0.66 1.32 -1.32 2 -2 C2.350625 -1.38125 2.70125 -0.7625 3.0625 -0.125 C5.68887702 2.75554253 8.26627537 3.15462838 12 4 C11.34 5.32 10.68 6.64 10 8 C10.34933594 8.47050781 10.69867188 8.94101563 11.05859375 9.42578125 C11.51363281 10.04839844 11.96867187 10.67101562 12.4375 11.3125 C12.88996094 11.92738281 13.34242188 12.54226562 13.80859375 13.17578125 C18.86320333 20.91513428 15.81045614 31.89964186 14.0625 40.3125 C13.70086498 41.99644813 13.33763929 43.68005561 12.97265625 45.36328125 C12.13464725 49.23083181 11.5031494 53.07543465 11 57 C8.47650757 53.87567603 6.72743854 50.61939504 5 47 C4.67 48.32 4.34 49.64 4 51 C4.33 51 4.66 51 5 51 C5.495 58.92 5.495 58.92 6 67 C3.48375 67.70125 0.9675 68.4025 -1.625 69.125 C-8.80884649 71.18041509 -15.5455751 73.76646764 -22.33984375 76.86328125 C-25 78 -25 78 -27 78 C-27.495 71.07 -27.495 71.07 -28 64 C-22.06 62.68 -16.12 61.36 -10 60 C-9.773125 57.751875 -9.54625 55.50375 -9.3125 53.1875 C-8.92578125 49.35546875 -8.92578125 49.35546875 -8 46 C-5.5 44.18359375 -5.5 44.18359375 -3 43 C-0.42159404 38.82543797 -0.3913519 33.77967774 -1 29 C-1.66 28.01 -2.32 27.02 -3 26 C-7.23998354 25.60740893 -10.36733941 25.67509722 -14 28 C-14 28.66 -14 29.32 -14 30 C-13.34 30 -12.68 30 -12 30 C-12 30.66 -12 31.32 -12 32 C-11.01 31.34 -10.02 30.68 -9 30 C-8.01 30 -7.02 30 -6 30 C-5.94552953 31.41623216 -5.90699492 32.83308191 -5.875 34.25 C-5.85179687 35.03890625 -5.82859375 35.8278125 -5.8046875 36.640625 C-6.0171622 39.20731941 -6.71345895 40.7916067 -8 43 C-7.01 43.495 -7.01 43.495 -6 44 C-6.99 44 -7.98 44 -9 44 C-9.04898438 44.74765625 -9.09796875 45.4953125 -9.1484375 46.265625 C-9.22320312 47.25046875 -9.29796875 48.2353125 -9.375 49.25 C-9.44460937 50.22453125 -9.51421875 51.1990625 -9.5859375 52.203125 C-9.99736082 54.98217306 -10.38608126 56.70977246 -12 59 C-13.98828125 60.01171875 -13.98828125 60.01171875 -16.3125 60.6875 C-17.07175781 60.91824219 -17.83101562 61.14898437 -18.61328125 61.38671875 C-23.5594046 62.65765388 -28.06066586 63.16048823 -33.1875 63.1875 C-34.41855469 63.20167969 -35.64960938 63.21585937 -36.91796875 63.23046875 C-40 63 -40 63 -42 61 C-42.34361606 57.04841529 -42.08901197 54.39464446 -40 51 C-41.32 51 -42.64 51 -44 51 C-44 50.34 -44 49.68 -44 49 C-41.69 49 -39.38 49 -37 49 C-37 48.34 -37 47.68 -37 47 C-39.64 47 -42.28 47 -45 47 C-45 45.02 -45 43.04 -45 41 C-46.98 40.67 -48.96 40.34 -51 40 C-50.61216941 36.70344002 -50.04234396 35.05557645 -48 32.375 C-45.5744512 28.2818864 -45.40230894 25.16769611 -45.17578125 20.48828125 C-45 18 -45 18 -44 15 C-42.3894043 14.03271484 -42.3894043 14.03271484 -40.32421875 13.2109375 C-39.57849609 12.90929687 -38.83277344 12.60765625 -38.06445312 12.296875 C-36.88786133 11.84054688 -36.88786133 11.84054688 -35.6875 11.375 C-34.91470703 11.06304687 -34.14191406 10.75109375 -33.34570312 10.4296875 C-29.92010564 9.06298309 -26.59821691 7.83450044 -23 7 C-29.58251897 8.26006345 -35.24724718 10.1794275 -41.3125 13 C-42.09689453 13.35578125 -42.88128906 13.7115625 -43.68945312 14.078125 C-47.15908853 15.65817987 -50.59621448 17.28219282 -54 19 C-52.09014115 14.70281759 -49.3108493 11.3108493 -46 8 C-46.68707031 8.27714844 -47.37414062 8.55429688 -48.08203125 8.83984375 C-48.98308594 9.20207031 -49.88414062 9.56429687 -50.8125 9.9375 C-51.70582031 10.29714844 -52.59914062 10.65679687 -53.51953125 11.02734375 C-55.3270909 11.73613486 -57.15807409 12.3860247 -59 13 C-56.44091791 6.48597287 -49.25365404 2.60849657 -43.2265625 -0.37109375 C-30.53324143 -5.57421185 -12.14876144 -7.33510125 0 0 Z " fill="white" transform="translate(202,196)"/>
<path d="M0 0 C0.91934326 -0.00386719 1.83868652 -0.00773438 2.78588867 -0.01171875 C10.3706513 0.11650828 16.12173838 1.59502949 22.75 5.4375 C23.08 4.7775 23.41 4.1175 23.75 3.4375 C24.41 4.7575 25.07 6.0775 25.75 7.4375 C27.73 7.4375 29.71 7.4375 31.75 7.4375 C32.245 8.4275 32.245 8.4275 32.75 9.4375 C32.09 10.0975 31.43 10.7575 30.75 11.4375 C31.183125 11.91316406 31.61625 12.38882813 32.0625 12.87890625 C37.27331872 19.4286159 37.68738573 25.194427 36.984375 33.40087891 C36.4309179 38.21019053 35.47244076 42.93631756 34.484375 47.671875 C33.52797679 52.57595944 33.05610356 57.4554006 32.75 62.4375 C29.9789312 60.09158148 29.22940716 58.28973799 28.5625 54.75 C28.40394531 53.94175781 28.24539062 53.13351563 28.08203125 52.30078125 C27.91767578 51.37845703 27.91767578 51.37845703 27.75 50.4375 C27.09 50.4375 26.43 50.4375 25.75 50.4375 C25.09 53.0775 24.43 55.7175 23.75 58.4375 C24.41 57.7775 25.07 57.1175 25.75 56.4375 C26.245 63.8625 26.245 63.8625 26.75 71.4375 C25.51765625 71.81261719 24.2853125 72.18773437 23.015625 72.57421875 C14.45831947 75.21003154 6.08848863 77.90364392 -2.09765625 81.5546875 C-4.25 82.4375 -4.25 82.4375 -6.25 82.4375 C-6.745 75.5075 -6.745 75.5075 -7.25 68.4375 C-6.20199219 68.25574219 -5.15398437 68.07398438 -4.07421875 67.88671875 C-2.69519905 67.63342942 -1.31629881 67.37948904 0.0625 67.125 C1.09793945 66.94807617 1.09793945 66.94807617 2.15429688 66.76757812 C4.90879764 66.24861421 7.27782071 65.74514671 9.64453125 64.203125 C11.19245756 61.73081867 11.58116401 59.35690465 12.125 56.5 C13.4267089 50.75309369 13.4267089 50.75309369 16.375 47.875 C17.15875 47.400625 17.9425 46.92625 18.75 46.4375 C19.77766017 43.35451949 19.91598738 41.10619574 19.9375 37.875 C19.95167969 36.90433594 19.96585938 35.93367188 19.98046875 34.93359375 C20.00207746 32.26351084 20.00207746 32.26351084 17.75 30.4375 C13.48527274 29.94420415 13.48527274 29.94420415 9.875 31.9375 C9.50375 32.4325 9.1325 32.9275 8.75 33.4375 C9.08 34.0975 9.41 34.7575 9.75 35.4375 C12.72 34.9425 12.72 34.9425 15.75 34.4375 C15.60831863 35.87541516 15.46148957 37.3128237 15.3125 38.75 C15.23128906 39.55050781 15.15007812 40.35101563 15.06640625 41.17578125 C14.75 43.4375 14.75 43.4375 13.75 46.4375 C14.41 47.0975 15.07 47.7575 15.75 48.4375 C14.43 48.4375 13.11 48.4375 11.75 48.4375 C11.65912109 49.55898437 11.65912109 49.55898437 11.56640625 50.703125 C11.48261719 51.68796875 11.39882812 52.6728125 11.3125 53.6875 C11.23128906 54.66203125 11.15007812 55.6365625 11.06640625 56.640625 C10.79925416 59.00211753 10.39628032 61.15651065 9.75 63.4375 C0.03088619 66.48663374 -8.97320153 68.70188436 -19.25 67.4375 C-19.91 66.7775 -20.57 66.1175 -21.25 65.4375 C-20.92889311 61.90532421 -20.37183498 58.80300494 -19.25 55.4375 C-20.57 55.4375 -21.89 55.4375 -23.25 55.4375 C-23.25 54.7775 -23.25 54.1175 -23.25 53.4375 C-20.94 53.4375 -18.63 53.4375 -16.25 53.4375 C-16.25 52.7775 -16.25 52.1175 -16.25 51.4375 C-18.89 51.4375 -21.53 51.4375 -24.25 51.4375 C-23.59 48.4675 -22.93 45.4975 -22.25 42.4375 C-22.58 43.0975 -22.91 43.7575 -23.25 44.4375 C-25.56 44.4375 -27.87 44.4375 -30.25 44.4375 C-29.92 42.7875 -29.59 41.1375 -29.25 39.4375 C-27.765 38.9425 -27.765 38.9425 -26.25 38.4375 C-26.12882812 37.48488281 -26.00765625 36.53226563 -25.8828125 35.55078125 C-25.71523437 34.29652344 -25.54765625 33.04226562 -25.375 31.75 C-25.21257812 30.50863281 -25.05015625 29.26726562 -24.8828125 27.98828125 C-23.82059961 22.02808672 -23.82059961 22.02808672 -22.25 19.4375 C-19.90894981 18.13789444 -17.85368401 17.17130312 -15.375 16.25 C-14.12727558 15.7573418 -12.87987101 15.26387263 -11.6328125 14.76953125 C-10.51648438 14.32996094 -9.40015625 13.89039063 -8.25 13.4375 C-6.90652444 12.79151575 -5.56707055 12.13574594 -4.25 11.4375 C-12.52635749 14.42561418 -20.66477431 17.3695309 -28.4296875 21.5546875 C-30.25 22.4375 -30.25 22.4375 -32.25 22.4375 C-30.69396229 18.61813472 -28.29395069 16.17705562 -25.25 13.4375 C-24.59 13.4375 -23.93 13.4375 -23.25 13.4375 C-23.25 12.7775 -23.25 12.1175 -23.25 11.4375 C-24.51457031 11.99630859 -24.51457031 11.99630859 -25.8046875 12.56640625 C-26.90039062 13.03949219 -27.99609375 13.51257813 -29.125 14 C-30.21554688 14.47566406 -31.30609375 14.95132813 -32.4296875 15.44140625 C-33.36039062 15.77011719 -34.29109375 16.09882813 -35.25 16.4375 C-35.91 16.1075 -36.57 15.7775 -37.25 15.4375 C-27.69110234 4.06106546 -14.41857811 0.04193352 0 0 Z " fill="white" transform="translate(99.25,191.5625)"/>
<path d="M0 0 C0.66 -0.66 1.32 -1.32 2 -2 C2.495 -1.071875 2.495 -1.071875 3 -0.125 C5.95608588 3.01584125 8.80920859 3.17558202 13 4 C11.68 4.33 10.36 4.66 9 5 C9.63228516 6.03060547 9.63228516 6.03060547 10.27734375 7.08203125 C10.82519531 7.98308594 11.37304688 8.88414063 11.9375 9.8125 C12.48277344 10.70582031 13.02804688 11.59914063 13.58984375 12.51953125 C18.01357488 20.30088656 15.84639555 28.1202064 13.80078125 36.29296875 C12.32679432 43.11644973 11.70630098 50.06163159 11 57 C9 56 9 56 8.1484375 53.71484375 C7.89320312 52.79832031 7.63796875 51.88179687 7.375 50.9375 C7.11460938 50.01839844 6.85421875 49.09929687 6.5859375 48.15234375 C6.39257812 47.44207031 6.19921875 46.73179688 6 46 C5.34 46 4.68 46 4 46 C3.34 48.97 2.68 51.94 2 55 C2.66 54.01 3.32 53.02 4 52 C4.495 58.93 4.495 58.93 5 66 C0.05851896 68.047185 -4.78458294 69.99832252 -9.9375 71.4375 C-14.78531908 72.82039609 -19.21409568 74.82752619 -23.75 77.01171875 C-26 78 -26 78 -28 78 C-28 73.38 -28 68.76 -28 64 C-22.39 62.68 -16.78 61.36 -11 60 C-10.21383926 55.20233262 -10.21383926 55.20233262 -9.47583008 50.3972168 C-8.83242881 46.85685032 -8.41941328 45.30549856 -5.46875 43.15625 C-4.6540625 42.7746875 -3.839375 42.393125 -3 42 C-0.47267151 37.78778586 -0.54576147 33.76950451 -1 29 C-2.44014926 26.30861457 -2.44014926 26.30861457 -5 25 C-8.6985004 25.14794002 -10.35805573 25.35805573 -13 28 C-12.67 28.99 -12.34 29.98 -12 31 C-9.03 30.505 -9.03 30.505 -6 30 C-6.33 32.97 -6.66 35.94 -7 39 C-7.66 39 -8.32 39 -9 39 C-8.505 40.98 -8.505 40.98 -8 43 C-8.66 43 -9.32 43 -10 43 C-9.97679687 43.65226562 -9.95359375 44.30453125 -9.9296875 44.9765625 C-9.71186441 55.52542373 -9.71186441 55.52542373 -12 59 C-15.57273419 60.51751586 -19.19396072 61.29066862 -23 62 C-24.19625 62.226875 -25.3925 62.45375 -26.625 62.6875 C-37.90243902 63.73170732 -37.90243902 63.73170732 -42 61 C-42.4375 54.875 -42.4375 54.875 -41 52 C-42.32 51.67 -43.64 51.34 -45 51 C-44.34 49.68 -43.68 48.36 -43 47 C-43.99 46.34 -44.98 45.68 -46 45 C-45.34 43.02 -44.68 41.04 -44 39 C-46.64 39.33 -49.28 39.66 -52 40 C-51.36528178 35.30308515 -51.36528178 35.30308515 -49.5546875 33.80078125 C-47.2121543 31.08744505 -46.9905763 27.93627287 -46.4375 24.5 C-45.25 17.375 -45.25 17.375 -43 14 C-40.93701172 12.92504883 -40.93701172 12.92504883 -38.4296875 11.95703125 C-37.08583984 11.43012695 -37.08583984 11.43012695 -35.71484375 10.89257812 C-34.77769531 10.53615234 -33.84054688 10.17972656 -32.875 9.8125 C-31.93011719 9.44447266 -30.98523438 9.07644531 -30.01171875 8.69726562 C-27.67765386 7.78957372 -25.34050931 6.89091376 -23 6 C-32.45235061 8.9324124 -41.49796728 11.76266549 -50.03125 16.8984375 C-52 18 -52 18 -54 18 C-52.34908222 13.70761377 -49.26245434 11.1206085 -46 8 C-46.68707031 8.2165625 -47.37414062 8.433125 -48.08203125 8.65625 C-48.98308594 8.9346875 -49.88414063 9.213125 -50.8125 9.5 C-51.70582031 9.7784375 -52.59914063 10.056875 -53.51953125 10.34375 C-56 11 -56 11 -59 11 C-51.91016133 2.23098902 -40.90958568 -3.30039116 -29.7890625 -4.79296875 C-18.85410509 -5.60466727 -9.78623526 -5.38242939 0 0 Z " fill="white" transform="translate(116,20)"/>
<path d="M0 0 C0.66 -0.66 1.32 -1.32 2 -2 C2.495 -1.071875 2.495 -1.071875 3 -0.125 C5.95608588 3.01584125 8.80920859 3.17558202 13 4 C11.68 4.33 10.36 4.66 9 5 C9.598125 6.03125 10.19625 7.0625 10.8125 8.125 C11.35583984 9.09566406 11.35583984 9.09566406 11.91015625 10.0859375 C12.81079438 11.6677034 13.77277859 13.21436635 14.75 14.75 C17.62826555 22.23349044 16.08281838 29.3784539 13.80078125 36.80859375 C12.1455842 43.40515956 11.67321571 50.24408232 11 57 C9 56 9 56 8.1484375 53.71484375 C7.89320313 52.79832031 7.63796875 51.88179687 7.375 50.9375 C7.11460937 50.01839844 6.85421875 49.09929687 6.5859375 48.15234375 C6.39257812 47.44207031 6.19921875 46.73179687 6 46 C5.34 46 4.68 46 4 46 C3.67 47.98 3.34 49.96 3 52 C3.33 52 3.66 52 4 52 C4.9560073 56.78003652 5.32351874 61.1472189 5 66 C1.46609403 68.35593731 -2.08345773 69.2653782 -6.125 70.375 C-12.36991739 72.13677537 -18.10897159 74.2576247 -24 77 C-24.99 77 -25.98 77 -27 77 C-27.495 70.565 -27.495 70.565 -28 64 C-26.94039062 63.72285156 -25.88078125 63.44570312 -24.7890625 63.16015625 C-23.40101131 62.794386 -22.01299213 62.42849428 -20.625 62.0625 C-19.92632812 61.88009766 -19.22765625 61.69769531 -18.5078125 61.50976562 C-14.66044902 60.51487491 -14.66044902 60.51487491 -11 59 C-10.21653154 55.75290815 -9.6525346 52.48862036 -9.07421875 49.19921875 C-7.79053583 45.37617763 -6.25446131 44.2637499 -3 42 C-0.51228998 37.73535425 -0.6183468 33.80883029 -1 29 C-2.33830958 26.5404226 -2.33830958 26.5404226 -4 25 C-9.03478441 25.23413974 -9.03478441 25.23413974 -12.9375 28.0625 C-13.288125 28.701875 -13.63875 29.34125 -14 30 C-11.36 30 -8.72 30 -6 30 C-6.33 32.97 -6.66 35.94 -7 39 C-7.66 39 -8.32 39 -9 39 C-8.505 40.98 -8.505 40.98 -8 43 C-8.66 43 -9.32 43 -10 43 C-9.97679687 43.73605469 -9.95359375 44.47210938 -9.9296875 45.23046875 C-9.91164062 46.20628906 -9.89359375 47.18210938 -9.875 48.1875 C-9.85179687 49.15042969 -9.82859375 50.11335938 -9.8046875 51.10546875 C-10.01704204 54.25256303 -10.40213819 56.27367793 -12 59 C-14.35546875 60.109375 -14.35546875 60.109375 -17.1875 60.75 C-18.67636719 61.09224609 -18.67636719 61.09224609 -20.1953125 61.44140625 C-26.71375714 62.73964801 -33.34281815 63.71805069 -40 63 C-42 61 -42 61 -42.1875 57.5 C-42 54 -42 54 -41 52 C-42.32 51.67 -43.64 51.34 -45 51 C-44.34 49.68 -43.68 48.36 -43 47 C-43.66 46.67 -44.32 46.34 -45 46 C-45.125 41.25 -45.125 41.25 -44 39 C-47.465 39.495 -47.465 39.495 -51 40 C-51.8125 38.375 -51.8125 38.375 -52 36 C-51.236875 35.21625 -50.47375 34.4325 -49.6875 33.625 C-45.85648529 29.56307482 -46.11364116 24.47982884 -45.75 19.14453125 C-45 16 -45 16 -42.92578125 14.2734375 C-39.36675023 12.72437994 -35.80686837 11.21522171 -32.1875 9.8125 C-31.49462891 9.53986328 -30.80175781 9.26722656 -30.08789062 8.98632812 C-28.39348179 8.32025017 -26.69695263 7.65957027 -25 7 C-29.81438296 7.70687369 -34.04274665 9.51203746 -38.5 11.375 C-39.24636719 11.67921875 -39.99273437 11.9834375 -40.76171875 12.296875 C-44.72708909 13.93916997 -48.32624237 15.76558771 -52 18 C-52.66 18 -53.32 18 -54 18 C-52.34908222 13.70761377 -49.26245434 11.1206085 -46 8 C-46.68707031 8.2165625 -47.37414062 8.433125 -48.08203125 8.65625 C-48.98308594 8.9346875 -49.88414062 9.213125 -50.8125 9.5 C-51.70582031 9.7784375 -52.59914062 10.056875 -53.51953125 10.34375 C-56 11 -56 11 -59 11 C-51.91016133 2.23098902 -40.90958568 -3.30039116 -29.7890625 -4.79296875 C-18.85410509 -5.60466727 -9.78623526 -5.38242939 0 0 Z " fill="white" transform="translate(242,107)"/>
<path d="M0 0 C0.66 0.33 1.32 0.66 2 1 C2.66 0.34 3.32 -0.32 4 -1 C4.66 0.32 5.32 1.64 6 3 C6.94875 2.938125 7.8975 2.87625 8.875 2.8125 C9.90625 2.874375 10.9375 2.93625 12 3 C12.99 4.485 12.99 4.485 14 6 C13.01 6 12.02 6 11 6 C11.63228516 7.03060547 11.63228516 7.03060547 12.27734375 8.08203125 C12.82519531 8.98308594 13.37304688 9.88414063 13.9375 10.8125 C14.48277344 11.70582031 15.02804688 12.59914063 15.58984375 13.51953125 C18.77115111 19.1154597 18.90917187 25.26885312 17.3984375 31.46875 C17.01558594 32.72171875 17.01558594 32.72171875 16.625 34 C14.2494886 41.80203508 13.75616805 49.91344987 13 58 C9.29393538 54.78130827 8.99994477 51.69204851 8 47 C7.34 47 6.68 47 6 47 C5.34 48.98 4.68 50.96 4 53 C3.34 53 2.68 53 2 53 C1.34 50.69 0.68 48.38 0 46 C-0.66 47.98 -1.32 49.96 -2 52 C-2.66 51.34 -3.32 50.68 -4 50 C-3.75751778 47.00938596 -3.14728025 45.21997868 -1.47265625 42.71875 C0.26205918 39.51619845 0.40197928 37.43222016 0.375 33.8125 C0.38273437 32.76707031 0.39046875 31.72164062 0.3984375 30.64453125 C0.26695312 29.77183594 0.13546875 28.89914063 0 28 C-3.26281174 25.82479218 -4.2340908 25.71755681 -8 26 C-8.99 26.33 -9.98 26.66 -11 27 C-11 26.01 -11 25.02 -11 24 C-13.31 24.33 -15.62 24.66 -18 25 C-17.45660208 20.43545749 -16.20536179 17.0271824 -14 13 C-14.60328125 13.2165625 -15.2065625 13.433125 -15.828125 13.65625 C-16.62734375 13.9346875 -17.4265625 14.213125 -18.25 14.5 C-19.03890625 14.7784375 -19.8278125 15.056875 -20.640625 15.34375 C-23 16 -23 16 -27 16 C-25.67585611 12.02756832 -24.0120432 9.86511426 -21 7 C-31.98553551 9.19206786 -41.92614406 14.27912908 -52 19 C-50.25404014 13.95705767 -48.16372965 12.16805517 -44 9 C-47.518386 9.41885548 -50.05638354 10.02819177 -53.25 11.625 C-54.61125 12.305625 -54.61125 12.305625 -56 13 C-56.66 12.67 -57.32 12.34 -58 12 C-43.34529819 -2.58068817 -19.341316 -10.74997251 0 0 Z " fill="white" transform="translate(160,107)"/>
<path d="M0 0 C-0.639375 0.78375 -1.27875 1.5675 -1.9375 2.375 C-3.98142313 4.79539281 -3.98142313 4.79539281 -5 7 C-4.39671875 6.7834375 -3.7934375 6.566875 -3.171875 6.34375 C-2.37265625 6.0653125 -1.5734375 5.786875 -0.75 5.5 C0.03890625 5.2215625 0.8278125 4.943125 1.640625 4.65625 C4 4 4 4 8 4 C6 10 6 10 4 16 C6.31 15.67 8.62 15.34 11 15 C11 15.99 11 16.98 11 18 C11.721875 17.608125 12.44375 17.21625 13.1875 16.8125 C16 16 16 16 18.75 17.3125 C21 19 21 19 22 20 C22.16796875 21.99609375 22.16796875 21.99609375 22.1875 24.4375 C22.20167969 25.24058594 22.21585938 26.04367188 22.23046875 26.87109375 C22 29 22 29 20 31 C19.855625 30.113125 19.71125 29.22625 19.5625 28.3125 C19.08980022 25.52882354 18.56929815 22.76516243 18 20 C16.35 20 14.7 20 13 20 C13 20.66 13 21.32 13 22 C14.65 21.67 16.3 21.34 18 21 C17.67 24.3 17.34 27.6 17 31 C16.34 31 15.68 31 15 31 C15.99 32.32 16.98 33.64 18 35 C16.68 35 15.36 35 14 35 C14.03480469 35.56847656 14.06960937 36.13695312 14.10546875 36.72265625 C14.2953912 42.13996796 14.38903443 46.54074417 11 51 C2.23493581 54.40661554 -7.70381433 54.70776231 -17 54 C-18 53 -18 53 -18.1875 49.6875 C-18.01798052 46.35361682 -17.75557129 44.74308013 -16 42 C-18.475 42.495 -18.475 42.495 -21 43 C-20.67 42.01 -20.34 41.02 -20 40 C-17.69 40 -15.38 40 -13 40 C-13 39.34 -13 38.68 -13 38 C-15.97 38 -18.94 38 -22 38 C-21.34 35.03 -20.68 32.06 -20 29 C-20.33 29.66 -20.66 30.32 -21 31 C-23.31 31 -25.62 31 -28 31 C-27.56453145 28.16945444 -26.90705713 26.88607003 -25.0625 24.625 C-22.57309879 21.25393586 -22.76964715 18.09978741 -22.5625 14 C-22.14453125 10.296875 -22.14453125 10.296875 -21 7 C-17.00660193 3.90330638 -12.80234958 2.45187313 -8 1 C-6.36804687 0.40445313 -6.36804687 0.40445313 -4.703125 -0.203125 C-2 -1 -2 -1 0 0 Z " fill="white" transform="translate(57,117)"/>
<path d="M0 0 C0.33 0.66 0.66 1.32 1 2 C0.34 2 -0.32 2 -1 2 C-1.33 3.65 -1.66 5.3 -2 7 C1.96 6.01 5.92 5.02 10 4 C9.19595286 7.21618856 8.29662577 9.76869185 6.9375 12.75 C6.57527344 13.54921875 6.21304688 14.3484375 5.83984375 15.171875 C5.56269531 15.77515625 5.28554687 16.3784375 5 17 C8.96 16.505 8.96 16.505 13 16 C13.495 17.485 13.495 17.485 14 19 C15.33057992 19.0387622 15.33057992 19.0387622 17.875 18.3125 C21 18 21 18 22.875 18.9375 C24.72520103 22.32953521 24.30397492 25.16991598 24 29 C23.34 29.66 22.68 30.32 22 31 C21.22157062 27.59437148 20.90021879 24.49234244 21 21 C19.35 21 17.7 21 16 21 C16 21.33 16 21.66 16 22 C17.32 22 18.64 22 20 22 C19.88541307 23.43836751 19.75790884 24.87570966 19.625 26.3125 C19.55539063 27.11300781 19.48578125 27.91351563 19.4140625 28.73828125 C19 31 19 31 17 34 C18.65 33.34 20.3 32.68 22 32 C21.34 33.32 20.68 34.64 20 36 C18.68 36 17.36 36 16 36 C16.04125 37.175625 16.0825 38.35125 16.125 39.5625 C16.13983635 43.72409674 15.31170778 47.06487667 14 51 C12.10454608 51.48066535 10.20861961 51.95946743 8.3125 52.4375 C7.25675781 52.70433594 6.20101562 52.97117188 5.11328125 53.24609375 C0.2008019 54.43569038 -4.17614171 55.13749719 -9.25 55.125 C-10.83554688 55.12886719 -10.83554688 55.12886719 -12.453125 55.1328125 C-15 55 -15 55 -16 54 C-16.14115161 51.32941149 -16.04247107 48.67567762 -16 46 C-15.34 46 -14.68 46 -14 46 C-14 44.68 -14 43.36 -14 42 C-16.475 42.495 -16.475 42.495 -19 43 C-18.67 42.01 -18.34 41.02 -18 40 C-18.66 39.67 -19.32 39.34 -20 39 C-19.34 36.03 -18.68 33.06 -18 30 C-18.33 30.66 -18.66 31.32 -19 32 C-21.31 32 -23.62 32 -26 32 C-25.67 30.35 -25.34 28.7 -25 27 C-24.01 26.67 -23.02 26.34 -22 26 C-21.87882813 25.21496094 -21.75765625 24.42992188 -21.6328125 23.62109375 C-21.38144531 22.04521484 -21.38144531 22.04521484 -21.125 20.4375 C-20.96257812 19.40496094 -20.80015625 18.37242188 -20.6328125 17.30859375 C-20.42398438 16.21675781 -20.21515625 15.12492187 -20 14 C-19.78859375 12.78183594 -19.5771875 11.56367187 -19.359375 10.30859375 C-18 7 -18 7 -14.8828125 5.0390625 C-13.64072819 4.5406465 -12.3872922 4.06975876 -11.125 3.625 C-10.18720703 3.25568359 -10.18720703 3.25568359 -9.23046875 2.87890625 C-6.20119814 1.70690515 -3.17606301 0.68628497 0 0 Z " fill="white" transform="translate(178,27)"/>
<path d="M0 0 C0.66 0.33 1.32 0.66 2 1 C1.01 2.98 0.02 4.96 -1 7 C-0.13375 6.67 0.7325 6.34 1.625 6 C4.95718275 5.01268659 7.55159538 4.83579026 11 5 C9.41037341 9.03520597 7.71767682 13.01811282 6 17 C9.96 16.505 9.96 16.505 14 16 C14.90983282 18.72949845 15 20.22134249 15 23 C16.98 22.67 18.96 22.34 21 22 C20.85831863 23.43791516 20.71148957 24.8753237 20.5625 26.3125 C20.48128906 27.11300781 20.40007812 27.91351563 20.31640625 28.73828125 C20 31 20 31 19 34 C19.66 34.66 20.32 35.32 21 36 C19.68 36 18.36 36 17 36 C16.90912109 37.12148437 16.90912109 37.12148437 16.81640625 38.265625 C16.73261719 39.25046875 16.64882812 40.2353125 16.5625 41.25 C16.48128906 42.22453125 16.40007812 43.1990625 16.31640625 44.203125 C16.04925416 46.56461753 15.64628032 48.71901065 15 51 C5.28088619 54.04913374 -3.72320153 56.26438436 -14 55 C-14.66 54.34 -15.32 53.68 -16 53 C-15.67889311 49.46782421 -15.12183498 46.36550494 -14 43 C-15.32 43 -16.64 43 -18 43 C-18 42.34 -18 41.68 -18 41 C-15.69 41 -13.38 41 -11 41 C-11 40.34 -11 39.68 -11 39 C-13.64 39 -16.28 39 -19 39 C-18.34 36.03 -17.68 33.06 -17 30 C-17.33 30.66 -17.66 31.32 -18 32 C-20.31 32 -22.62 32 -25 32 C-24.67 30.35 -24.34 28.7 -24 27 C-23.01 26.67 -22.02 26.34 -21 26 C-20.87882812 25.04738281 -20.75765625 24.09476563 -20.6328125 23.11328125 C-20.38144531 21.23189453 -20.38144531 21.23189453 -20.125 19.3125 C-19.96257812 18.07113281 -19.80015625 16.82976562 -19.6328125 15.55078125 C-18.56986224 9.58644925 -18.56986224 9.58644925 -17 7 C-14.63757541 5.67680804 -12.56498315 4.69127779 -10.0625 3.75 C-9.42892578 3.49476563 -8.79535156 3.23953125 -8.14257812 2.9765625 C-5.45246223 1.90164763 -2.7482868 0.9160956 0 0 Z " fill="white" transform="translate(94,204)"/>
<path d="M0 0 C-1.875 4.75 -1.875 4.75 -3 7 C-1.96939453 6.67515625 -1.96939453 6.67515625 -0.91796875 6.34375 C-0.01691406 6.0653125 0.88414062 5.786875 1.8125 5.5 C2.70582031 5.2215625 3.59914062 4.943125 4.51953125 4.65625 C7 4 7 4 10 4 C9.67 5.65 9.34 7.3 9 9 C8.34 9 7.68 9 7 9 C6.34 11.64 5.68 14.28 5 17 C7.31 16.67 9.62 16.34 12 16 C12.495 17.98 12.495 17.98 13 20 C12.34 20 11.68 20 11 20 C11 20.66 11 21.32 11 22 C11.66 22 12.32 22 13 22 C13 22.66 13 23.32 13 24 C13.99 23.34 14.98 22.68 16 22 C16.99 22 17.98 22 19 22 C19.05447047 23.41623216 19.09300508 24.83308191 19.125 26.25 C19.14820313 27.03890625 19.17140625 27.8278125 19.1953125 28.640625 C18.9828378 31.20731941 18.28654105 32.7916067 17 35 C17.99 35.495 17.99 35.495 19 36 C18.01 36 17.02 36 16 36 C15.95101562 36.74765625 15.90203125 37.4953125 15.8515625 38.265625 C15.77679688 39.25046875 15.70203125 40.2353125 15.625 41.25 C15.55539063 42.22453125 15.48578125 43.1990625 15.4140625 44.203125 C15.00263918 46.98217306 14.61391874 48.70977246 13 51 C11.01171875 52.01171875 11.01171875 52.01171875 8.6875 52.6875 C7.92824219 52.91824219 7.16898438 53.14898437 6.38671875 53.38671875 C1.4405954 54.65765388 -3.06066586 55.16048823 -8.1875 55.1875 C-9.41855469 55.20167969 -10.64960938 55.21585937 -11.91796875 55.23046875 C-15 55 -15 55 -17 53 C-17.34361606 49.04841529 -17.08901197 46.39464446 -15 43 C-16.32 43 -17.64 43 -19 43 C-19 42.34 -19 41.68 -19 41 C-16.69 41 -14.38 41 -12 41 C-12 40.34 -12 39.68 -12 39 C-14.64 39 -17.28 39 -20 39 C-20 37.02 -20 35.04 -20 33 C-21.98 32.67 -23.96 32.34 -26 32 C-25.61216941 28.70344002 -25.04234396 27.05557645 -23 24.375 C-20.5744512 20.2818864 -20.40230894 17.16769611 -20.17578125 12.48828125 C-20 10 -20 10 -19 7 C-17.35766602 6.0168457 -17.35766602 6.0168457 -15.25390625 5.17578125 C-14.49916016 4.86962891 -13.74441406 4.56347656 -12.96679688 4.24804688 C-12.17337891 3.93931641 -11.37996094 3.63058594 -10.5625 3.3125 C-9.77294922 2.99216797 -8.98339844 2.67183594 -8.16992188 2.34179688 C-2.3129331 0 -2.3129331 0 0 0 Z " fill="white" transform="translate(177,204)"/>
<path d="M0 0 C0 0.66 0 1.32 0 2 C-0.66 2 -1.32 2 -2 2 C-2.66 3.98 -3.32 5.96 -4 8 C-3.32453125 7.69964844 -2.6490625 7.39929688 -1.953125 7.08984375 C-1.06109375 6.70957031 -0.1690625 6.32929687 0.75 5.9375 C1.63171875 5.55464844 2.5134375 5.17179687 3.421875 4.77734375 C6 4 6 4 10 5 C8.02 8.96 6.04 12.92 4 17 C7.96 16.505 7.96 16.505 12 16 C12.495 17.485 12.495 17.485 13 19 C12.34 19.99 11.68 20.98 11 22 C13.64 22 16.28 22 19 22 C18.67 24.97 18.34 27.94 18 31 C17.34 31 16.68 31 16 31 C16.495 32.98 16.495 32.98 17 35 C16.34 35 15.68 35 15 35 C15.02320313 35.73605469 15.04640625 36.47210938 15.0703125 37.23046875 C15.08835938 38.20628906 15.10640625 39.18210938 15.125 40.1875 C15.14820313 41.15042969 15.17140625 42.11335938 15.1953125 43.10546875 C14.98295796 46.25256303 14.59786181 48.27367793 13 51 C10.64453125 52.109375 10.64453125 52.109375 7.8125 52.75 C6.32363281 53.09224609 6.32363281 53.09224609 4.8046875 53.44140625 C-1.71375714 54.73964801 -8.34281815 55.71805069 -15 55 C-17 53 -17 53 -17.1875 49.5 C-17 46 -17 46 -16 44 C-17.32 43.67 -18.64 43.34 -20 43 C-19.34 41.68 -18.68 40.36 -18 39 C-18.66 38.67 -19.32 38.34 -20 38 C-20.125 33.25 -20.125 33.25 -19 31 C-21.31 31.33 -23.62 31.66 -26 32 C-26.8125 30.375 -26.8125 30.375 -27 28 C-26.236875 27.21625 -25.47375 26.4325 -24.6875 25.625 C-20.85648529 21.56307482 -21.11364116 16.47982884 -20.75 11.14453125 C-20 8 -20 8 -17.8203125 6.2421875 C-16.88960937 5.83226563 -15.95890625 5.42234375 -15 5 C-14.00742188 4.54238281 -13.01484375 4.08476563 -11.9921875 3.61328125 C-10.44917969 2.96939453 -10.44917969 2.96939453 -8.875 2.3125 C-7.84117187 1.87550781 -6.80734375 1.43851562 -5.7421875 0.98828125 C-3 0 -3 0 0 0 Z " fill="white" transform="translate(217,115)"/>
<path d="M0 0 C-0.309375 0.763125 -0.61875 1.52625 -0.9375 2.3125 C-1.67893593 4.18789677 -2.36228217 6.08684652 -3 8 C-2.40832031 7.71125 -1.81664063 7.4225 -1.20703125 7.125 C-0.02173828 6.568125 -0.02173828 6.568125 1.1875 6 C1.96480469 5.62875 2.74210937 5.2575 3.54296875 4.875 C6 4 6 4 11 4 C9.02 8.29 7.04 12.58 5 17 C8.96 16.505 8.96 16.505 13 16 C14 19 14 19 14 23 C15.98 22.67 17.96 22.34 20 22 C19.67 24.97 19.34 27.94 19 31 C18.34 31 17.68 31 17 31 C17.495 32.98 17.495 32.98 18 35 C17.34 35 16.68 35 16 35 C16.02320313 35.65226562 16.04640625 36.30453125 16.0703125 36.9765625 C16.28813559 47.52542373 16.28813559 47.52542373 14 51 C10.42726581 52.51751586 6.80603928 53.29066862 3 54 C1.80375 54.226875 0.6075 54.45375 -0.625 54.6875 C-11.90243902 55.73170732 -11.90243902 55.73170732 -16 53 C-16.4375 46.875 -16.4375 46.875 -15 44 C-16.32 43.67 -17.64 43.34 -19 43 C-18.34 41.68 -17.68 40.36 -17 39 C-17.99 38.34 -18.98 37.68 -20 37 C-19.34 35.02 -18.68 33.04 -18 31 C-21.96 31.495 -21.96 31.495 -26 32 C-25.36528178 27.30308515 -25.36528178 27.30308515 -23.5546875 25.80078125 C-21.2121543 23.08744505 -20.9905763 19.93627287 -20.4375 16.5 C-19.25 9.375 -19.25 9.375 -17 6 C-14.50195559 4.82259604 -12.07404971 3.78678984 -9.5 2.8125 C-8.46552734 2.40354492 -8.46552734 2.40354492 -7.41015625 1.98632812 C-2.30245536 0 -2.30245536 0 0 0 Z " fill="white" transform="translate(90,28)"/>
<path d="M0 0 C3.375 0.875 3.375 0.875 5.375 2.875 C5.67578125 5.51953125 5.67578125 5.51953125 5.6875 8.6875 C5.70425781 9.72519531 5.72101563 10.76289063 5.73828125 11.83203125 C5.33164361 15.23816807 4.20906986 17.02469091 2.375 19.875 C2.375 20.865 2.375 21.855 2.375 22.875 C3.365 21.555 4.355 20.235 5.375 18.875 C5.42398438 19.51308594 5.47296875 20.15117187 5.5234375 20.80859375 C5.59820312 21.63488281 5.67296875 22.46117187 5.75 23.3125 C5.85441406 24.54806641 5.85441406 24.54806641 5.9609375 25.80859375 C6.16589844 26.83146484 6.16589844 26.83146484 6.375 27.875 C7.035 28.205 7.695 28.535 8.375 28.875 C9.035 28.215 9.695 27.555 10.375 26.875 C10.87 34.3 10.87 34.3 11.375 41.875 C10.11429688 42.28363281 8.85359375 42.69226563 7.5546875 43.11328125 C1.17051833 45.24008731 -5.07515198 47.71567616 -11.3359375 50.17773438 C-12.233125 50.52513672 -13.1303125 50.87253906 -14.0546875 51.23046875 C-15.26487549 51.70456177 -15.26487549 51.70456177 -16.49951172 52.18823242 C-18.625 52.875 -18.625 52.875 -21.625 52.875 C-21.955 48.255 -22.285 43.635 -22.625 38.875 C-26.255 38.875 -29.885 38.875 -33.625 38.875 C-33.625 38.545 -33.625 38.215 -33.625 37.875 C-33.02026855 37.8248877 -32.41553711 37.77477539 -31.79248047 37.72314453 C-29.02761836 37.48969552 -26.26386633 37.24494583 -23.5 37 C-22.54867187 36.92136719 -21.59734375 36.84273437 -20.6171875 36.76171875 C-15.71751995 36.31938765 -11.18202495 35.8756451 -6.625 33.875 C-4.11171923 30.04523882 -4.23293717 25.44913815 -3.96875 20.984375 C-3.8553125 20.28828125 -3.741875 19.5921875 -3.625 18.875 C-2.965 18.545 -2.305 18.215 -1.625 17.875 C-1.955 16.885 -2.285 15.895 -2.625 14.875 C-1.965 14.875 -1.305 14.875 -0.625 14.875 C-0.625 11.905 -0.625 8.935 -0.625 5.875 C-2.275 6.205 -3.925 6.535 -5.625 6.875 C-5.625 6.215 -5.625 5.555 -5.625 4.875 C-6.285 4.545 -6.945 4.215 -7.625 3.875 C-5.09785139 0.53916384 -4.30016242 -0.14828146 0 0 Z " fill="white" transform="translate(155.625,132.125)"/>
<path d="M0 0 C2.13586678 3.20380017 2.23132175 4.01939967 2.125 7.6875 C2.10695312 8.49574219 2.08890625 9.30398437 2.0703125 10.13671875 C2.04710937 10.75160156 2.02390625 11.36648437 2 12 C2.66 12 3.32 12 4 12 C4 12.99 4 13.98 4 15 C4.66 14.01 5.32 13.02 6 12 C6.9560073 16.78003652 7.32351874 21.1472189 7 26 C3.46609403 28.35593731 -0.08345773 29.2653782 -4.125 30.375 C-10.36991739 32.13677537 -16.10897159 34.2576247 -22 37 C-22.99 37 -23.98 37 -25 37 C-25.33 32.71 -25.66 28.42 -26 24 C-24.41058594 23.58427734 -24.41058594 23.58427734 -22.7890625 23.16015625 C-21.40101131 22.794386 -20.01299213 22.42849428 -18.625 22.0625 C-17.92632812 21.88009766 -17.22765625 21.69769531 -16.5078125 21.50976562 C-12.66044902 20.51487491 -12.66044902 20.51487491 -9 19 C-8.21653154 15.75290815 -7.6525346 12.48862036 -7.07421875 9.19921875 C-5.79243791 5.38184236 -4.25039312 4.25822224 -1 2 C-0.67 1.34 -0.34 0.68 0 0 Z " fill="white" transform="translate(240,147)"/>
<path d="M0 0 C0.66 0.33 1.32 0.66 2 1 C2.39310414 3.32288812 2.50749695 5.61845176 2.65625 7.96875 C2.7696875 8.6390625 2.883125 9.309375 3 10 C3.66 10.33 4.32 10.66 5 11 C5.33 10.67 5.66 10.34 6 10 C6.33 10 6.66 10 7 10 C7.495 17.425 7.495 17.425 8 25 C6.93523437 25.29132813 5.87046875 25.58265625 4.7734375 25.8828125 C-3.91198032 28.31682066 -12.12939462 31.1209755 -20.33984375 34.86328125 C-23 36 -23 36 -25 36 C-25 31.38 -25 26.76 -25 22 C-23.95199219 21.74605469 -22.90398437 21.49210937 -21.82421875 21.23046875 C-20.44517401 20.88336225 -19.06627522 20.53567556 -17.6875 20.1875 C-16.99720703 20.02185547 -16.30691406 19.85621094 -15.59570312 19.68554688 C-10.52902608 18.49874394 -10.52902608 18.49874394 -7 15 C-6.3912753 12.40325049 -6.3912753 12.40325049 -6.125 9.5625 C-5.32209311 4.32976199 -5.32209311 4.32976199 -2.375 1.3125 C-1.59125 0.879375 -0.8075 0.44625 0 0 Z " fill="white" transform="translate(201,61)"/>
<path d="M0 0 C0.66 0 1.32 0 2 0 C2.33 2.97 2.66 5.94 3 9 C3.66 8.34 4.32 7.68 5 7 C5.66 7 6.32 7 7 7 C7.495 14.92 7.495 14.92 8 23 C5.48375 23.70125 2.9675 24.4025 0.375 25.125 C-6.80884649 27.18041509 -13.5455751 29.76646764 -20.33984375 32.86328125 C-23 34 -23 34 -25 34 C-25.33 29.38 -25.66 24.76 -26 20 C-20.06 18.68 -14.12 17.36 -8 16 C-7.34 11.38 -6.68 6.76 -6 2 C-5.34 2 -4.68 2 -4 2 C-3.34 3.32 -2.68 4.64 -2 6 C-1.34 4.02 -0.68 2.04 0 0 Z " fill="white" transform="translate(200,240)"/>
<path d="M0 0 C0.66 0 1.32 0 2 0 C2 2.97 2 5.94 2 9 C2.66 9.33 3.32 9.66 4 10 C4.33 9.67 4.66 9.34 5 9 C5.33 9 5.66 9 6 9 C6.495 15.93 6.495 15.93 7 23 C2.05851896 25.047185 -2.78458294 26.99832252 -7.9375 28.4375 C-12.78531908 29.82039609 -17.21409568 31.82752619 -21.75 34.01171875 C-24 35 -24 35 -26 35 C-26 30.38 -26 25.76 -26 21 C-20.39 19.68 -14.78 18.36 -9 17 C-8.01 12.05 -7.02 7.1 -6 2 C-5.34 2.33 -4.68 2.66 -4 3 C-3.375 5.5625 -3.375 5.5625 -3 8 C-2.01 5.36 -1.02 2.72 0 0 Z " fill="white" transform="translate(114,63)"/>
<path d="M0 0 C0.33 0 0.66 0 1 0 C1.66 3.3 2.32 6.6 3 10 C3.99 9.34 4.98 8.68 6 8 C6.495 15.425 6.495 15.425 7 23 C5.76765625 23.37511719 4.5353125 23.75023437 3.265625 24.13671875 C-5.29168053 26.77253154 -13.66151137 29.46614392 -21.84765625 33.1171875 C-24 34 -24 34 -26 34 C-26.33 29.38 -26.66 24.76 -27 20 C-25.95199219 19.81824219 -24.90398437 19.63648438 -23.82421875 19.44921875 C-22.44519905 19.19592942 -21.06629881 18.94198904 -19.6875 18.6875 C-18.99720703 18.56955078 -18.30691406 18.45160156 -17.59570312 18.33007812 C-14.85341255 17.81341468 -12.48314748 17.31404586 -10.125 15.78125 C-8.51938563 13.23902724 -7.97281429 10.73674901 -7.3125 7.8125 C-7.06113281 6.72582031 -6.80976562 5.63914063 -6.55078125 4.51953125 C-6.36902344 3.68808594 -6.18726562 2.85664063 -6 2 C-4 4 -4 4 -3 7 C-2.01 4.69 -1.02 2.38 0 0 Z " fill="white" transform="translate(119,240)"/>
<path d="M0 0 C0.33 0 0.66 0 1 0 C1.33 2.64 1.66 5.28 2 8 C2.66 8 3.32 8 4 8 C4 8.99 4 9.98 4 11 C4.66 10.34 5.32 9.68 6 9 C6.495 15.93 6.495 15.93 7 23 C5.60007812 23.45890625 4.20015625 23.9178125 2.7578125 24.390625 C0.88015408 25.01025228 -0.99744703 25.63005326 -2.875 26.25 C-3.7928125 26.55035156 -4.710625 26.85070312 -5.65625 27.16015625 C-11.2003211 28.9951657 -16.62218139 30.99796672 -22.00830078 33.25683594 C-24 34 -24 34 -26 34 C-26 29.38 -26 24.76 -26 20 C-22.484375 19.31640625 -18.96875 18.6328125 -15.453125 17.94921875 C-12.11974849 17.03291729 -10.3131051 16.53551906 -8 14 C-7.08656104 11.05484348 -7.08656104 11.05484348 -6.75 7.8125 C-6.60046875 6.72582031 -6.4509375 5.63914063 -6.296875 4.51953125 C-6.19890625 3.68808594 -6.1009375 2.85664063 -6 2 C-5.01 3.32 -4.02 4.64 -3 6 C-2.01 4.02 -1.02 2.04 0 0 Z " fill="white" transform="translate(79,152)"/>
<path d="M0 0 C1.65 0 3.3 0 5 0 C4.01 0.33 3.02 0.66 2 1 C2.63228516 1.92232422 2.63228516 1.92232422 3.27734375 2.86328125 C3.82519531 3.67152344 4.37304688 4.47976562 4.9375 5.3125 C5.48277344 6.11300781 6.02804687 6.91351563 6.58984375 7.73828125 C9.89663904 13.04197785 9.64618946 18.8314434 8.43359375 24.77734375 C7.91577144 26.88387742 7.3933067 28.98927319 6.8671875 31.09375 C5.01826936 38.94221885 4.12145053 47.02258947 3 55 C1.68 54.01 0.36 53.02 -1 52 C-1.33 55.63 -1.66 59.26 -2 63 C-3.08796875 63.30292969 -4.1759375 63.60585937 -5.296875 63.91796875 C-13.22975393 66.16665884 -20.86744606 68.54574957 -28.38671875 71.984375 C-31.24990377 73.09712254 -33.96258946 73.59086125 -37 74 C-28.1242442 66.82473947 -15.78014159 64.21488994 -5 61 C-4.979375 59.741875 -4.95875 58.48375 -4.9375 57.1875 C-4.92589844 56.47980469 -4.91429687 55.77210938 -4.90234375 55.04296875 C-4.91736783 52.79694539 -4.91736783 52.79694539 -6 50 C-6.99 50.495 -6.99 50.495 -8 51 C-6.125 43.25 -6.125 43.25 -5 41 C-4.34 41 -3.68 41 -3 41 C-1.68 44.3 -0.36 47.6 1 51 C1.10957031 49.97261719 1.21914062 48.94523437 1.33203125 47.88671875 C2.74821206 35.30707395 2.74821206 35.30707395 4.625 29.1875 C6.69703443 22.11070547 7.39978456 15.23237134 4.125 8.4375 C2.88591283 6.23008915 1.81085269 4.81085269 0 3 C0 2.01 0 1.02 0 0 Z " fill="white" transform="translate(251,112)"/>
<path d="M0 0 C1.65 0 3.3 0 5 0 C4.01 0.33 3.02 0.66 2 1 C2.63228516 1.92232422 2.63228516 1.92232422 3.27734375 2.86328125 C3.82519531 3.67152344 4.37304688 4.47976562 4.9375 5.3125 C5.48277344 6.11300781 6.02804688 6.91351563 6.58984375 7.73828125 C11.00861375 14.82544975 8.80575275 22.98009465 7.125 30.625 C5.41821929 38.72543544 4.03396551 46.78269516 3 55 C1.68 54.01 0.36 53.02 -1 52 C-1.33 55.63 -1.66 59.26 -2 63 C-5.62492259 64.10442132 -9.24993583 65.20854357 -12.875 66.3125 C-14.39480469 66.7755957 -14.39480469 66.7755957 -15.9453125 67.24804688 C-22.29234334 69.18063639 -28.64333216 71.09934398 -35 73 C-33.44424841 69.88849682 -30.407749 69.32881423 -27.3125 68.125 C-26.64855225 67.86251465 -25.98460449 67.6000293 -25.30053711 67.32958984 C-18.65707814 64.76263831 -11.88948666 62.80464211 -5 61 C-5.33 57.37 -5.66 53.74 -6 50 C-6.99 50.495 -6.99 50.495 -8 51 C-7.49287967 47.28111761 -6.88391785 44.26545761 -5 41 C-4.34 41 -3.68 41 -3 41 C-1.68 44.3 -0.36 47.6 1 51 C1.10957031 49.99582031 1.21914062 48.99164063 1.33203125 47.95703125 C2.10253993 41.2171516 2.97631117 34.65725533 4.625 28.0625 C6.85080336 18.81685526 6.71022505 13.26986077 2 5 C1.30959426 3.34302621 0.63028587 1.68076231 0 0 Z " fill="white" transform="translate(125,25)"/>
<path d="M0 0 C3.31951689 2.87093352 3.95049406 4.55444657 4.4375 8.9375 C4.22296185 12.85836971 3.16154047 15.68049142 1 19 C0.33226562 19.41636719 -0.33546875 19.83273438 -1.0234375 20.26171875 C-3.8161825 22.71778896 -3.81195654 24.87693774 -4.375 28.5 C-5.69486276 34.72615889 -5.69486276 34.72615889 -8.4375 37.1875 C-12.7620512 38.17380115 -17.08930736 38.90452309 -21.48828125 39.47265625 C-22.31714844 39.64667969 -23.14601562 39.82070312 -24 40 C-24.33 40.66 -24.66 41.32 -25 42 C-25 41.34 -25 40.68 -25 40 C-28.3 40 -31.6 40 -35 40 C-35 39.67 -35 39.34 -35 39 C-33.97261719 38.87882812 -32.94523438 38.75765625 -31.88671875 38.6328125 C-23.86442818 37.66881869 -15.93643984 36.54319664 -8 35 C-7.34 29.72 -6.68 24.44 -6 19 C-5.34 19 -4.68 19 -4 19 C-4.33 17.68 -4.66 16.36 -5 15 C-4.34 15 -3.68 15 -3 15 C-2.67 12.03 -2.34 9.06 -2 6 C-3.423125 6.2784375 -3.423125 6.2784375 -4.875 6.5625 C-8 7 -8 7 -10 6 C-7.93815093 1.24188676 -5.30949534 -0.9064992 0 0 Z " fill="white" transform="translate(238,131)"/>
<path d="M0 0 C2.875 1 2.875 1 4.75 2.5625 C6.35794843 6.04638827 6.42027648 9.26916092 5.875 13 C4.52559348 16.31217963 3.3957227 18.4792773 0.875 21 C-0.115 21 -1.105 21 -2.125 21 C-2.17398438 21.74765625 -2.22296875 22.4953125 -2.2734375 23.265625 C-2.34820312 24.25046875 -2.42296875 25.2353125 -2.5 26.25 C-2.56960937 27.22453125 -2.63921875 28.1990625 -2.7109375 29.203125 C-3.123901 31.99257655 -3.48370585 33.71445955 -5.125 36 C-7.26171875 37.01171875 -7.26171875 37.01171875 -9.8125 37.6875 C-10.70195313 37.92726562 -11.59140625 38.16703125 -12.5078125 38.4140625 C-14.74156199 38.91415567 -16.91739152 39.28933342 -19.1875 39.5625 C-20.156875 39.706875 -21.12625 39.85125 -22.125 40 C-22.455 40.66 -22.785 41.32 -23.125 42 C-23.125 41.34 -23.125 40.68 -23.125 40 C-26.425 40 -29.725 40 -33.125 40 C-33.125 39.67 -33.125 39.34 -33.125 39 C-32.05121094 38.87882812 -30.97742188 38.75765625 -29.87109375 38.6328125 C-28.43486025 38.46384385 -26.99866428 38.29455596 -25.5625 38.125 C-24.85802734 38.04636719 -24.15355469 37.96773437 -23.42773438 37.88671875 C-18.82074341 37.33472905 -14.59323618 36.28901844 -10.125 35 C-8.805 35 -7.485 35 -6.125 35 C-5.465 29.72 -4.805 24.44 -4.125 19 C-3.465 19 -2.805 19 -2.125 19 C-2.455 17.68 -2.785 16.36 -3.125 15 C-2.465 15 -1.805 15 -1.125 15 C-0.795 12.03 -0.465 9.06 -0.125 6 C-2.105 6.33 -4.085 6.66 -6.125 7 C-6.125 6.34 -6.125 5.68 -6.125 5 C-6.785 4.67 -7.445 4.34 -8.125 4 C-5.32129216 1.27875415 -3.98869813 0 0 0 Z " fill="white" transform="translate(110.125,44)"/>
<path d="M0 0 C0.495 0.99 0.495 0.99 1 2 C0.34 2 -0.32 2 -1 2 C-0.566875 2.54785156 -0.13375 3.09570312 0.3125 3.66015625 C5.68435425 11.30758765 5.95309996 17.85764313 5 27 C4.38530825 30.51031515 3.63702184 33.95020336 2.80078125 37.4140625 C1.43125592 43.54686374 0.74240528 49.76379568 0 56 C-0.66 56 -1.32 56 -2 56 C-2.99 54.35 -3.98 52.7 -5 51 C-5 55.29 -5 59.58 -5 64 C-9.17960902 65.40973577 -13.3605421 66.81545201 -17.54272461 68.2175293 C-18.96398991 68.69462792 -20.38489366 69.17280504 -21.80541992 69.65209961 C-23.85240089 70.34255238 -25.90066929 71.02906076 -27.94921875 71.71484375 C-29.79519653 72.33540649 -29.79519653 72.33540649 -31.6784668 72.96850586 C-34.45565683 73.83095554 -37.13891132 74.50376138 -40 75 C-36.22394833 71.67178195 -31.82646322 70.18982973 -27.1875 68.4375 C-26.40568359 68.13392578 -25.62386719 67.83035156 -24.81835938 67.51757812 C-13.03722426 63 -13.03722426 63 -7 63 C-7.66 59.04 -8.32 55.08 -9 51 C-9.99 51.495 -9.99 51.495 -11 52 C-10.49287967 48.28111761 -9.88391785 45.26545761 -8 42 C-7.34 42 -6.68 42 -6 42 C-4.68 45.3 -3.36 48.6 -2 52 C-1.88406494 51.26362305 -1.76812988 50.52724609 -1.64868164 49.76855469 C-1.12180016 46.42874224 -0.59218047 43.08936963 -0.0625 39.75 C0.11990234 38.59113281 0.30230469 37.43226562 0.49023438 36.23828125 C0.66748047 35.12324219 0.84472656 34.00820313 1.02734375 32.859375 C1.18968506 31.83295898 1.35202637 30.80654297 1.51928711 29.74902344 C1.91977669 27.45876816 2.417593 25.2482967 3 23 C3.85910086 16.58128931 2.66477035 12.47566644 -0.80859375 7.04296875 C-1.99355858 5.01104545 -2.55110685 3.29606266 -3 1 C-2.01 0.67 -1.02 0.34 0 0 Z " fill="white" transform="translate(216,23)"/>
<path d="M0 0 C1.9375 1.4375 1.9375 1.4375 3 4 C3.77286935 9.73664996 3.1517501 14.02993254 0 19 C-0.66 19.66 -1.32 20.32 -2 21 C-2.99 21 -3.98 21 -5 21 C-4.95875 22.010625 -4.9175 23.02125 -4.875 24.0625 C-5.00807691 28.25442261 -5.2369385 31.18003342 -7 35 C-9.53660909 36.56186717 -12.11343689 37.3238681 -15 38 C-15.73992187 38.18691406 -16.47984375 38.37382812 -17.2421875 38.56640625 C-20.93594326 39.14715255 -24.58539093 39.10579975 -28.3125 39.0625 C-29.05306641 39.05798828 -29.79363281 39.05347656 -30.55664062 39.04882812 C-32.37112899 39.03712175 -34.18557534 39.01918898 -36 39 C-36 38.67 -36 38.34 -36 38 C-34.20755859 37.83564453 -34.20755859 37.83564453 -32.37890625 37.66796875 C-28.30249504 37.27570142 -24.24086737 36.80339598 -20.1796875 36.27685547 C-18.42517182 36.05400368 -16.6661286 35.8669497 -14.90625 35.69140625 C-12.25709913 35.19248284 -10.95099391 34.87819563 -9 33 C-6.78281885 27.12374539 -6 21.25645715 -6 15 C-5.34 14.67 -4.68 14.34 -4 14 C-3.53348793 11.87423218 -3.53348793 11.87423218 -3.375 9.4375 C-3.30023438 8.61121094 -3.22546875 7.78492188 -3.1484375 6.93359375 C-3.09945312 6.29550781 -3.05046875 5.65742188 -3 5 C-4.98 5.66 -6.96 6.32 -9 7 C-9 6.34 -9 5.68 -9 5 C-9.66 5 -10.32 5 -11 5 C-11 3 -11 3 -9.4375 1.375 C-6.08032602 -0.51879045 -3.79170715 -0.48258091 0 0 Z " fill="white" transform="translate(199,221)"/>
<path d="M0 0 C1.66796875 1.1796875 1.66796875 1.1796875 3 3 C3.76494202 7.84463279 3.6052244 12.51720022 1.75 17.0625 C0 19 0 19 -2.046875 19.75390625 C-4.29274887 20.87397869 -4.29274887 20.87397869 -4.6875 23.6796875 C-4.790625 24.73414063 -4.89375 25.78859375 -5 26.875 C-5.35555284 30.49275012 -5.55193724 32.43633896 -7.83203125 35.3046875 C-15.18069119 41.05120717 -27.17841656 39.18230597 -36 39 C-36 38.67 -36 38.34 -36 38 C-34.80117187 37.94392578 -34.80117187 37.94392578 -33.578125 37.88671875 C-26.60469433 37.46929508 -20.18992475 36.50629259 -13.4609375 34.62109375 C-11 34 -11 34 -8 34 C-7.90912109 33.12988281 -7.90912109 33.12988281 -7.81640625 32.2421875 C-6.75683252 22.36370007 -6.75683252 22.36370007 -6 19 C-5.34 18.67 -4.68 18.34 -4 18 C-4 16.68 -4 15.36 -4 14 C-3.7049949 12.40907965 -3.37059495 10.82502855 -3 9.25 C-2.7215625 8.05117187 -2.7215625 8.05117187 -2.4375 6.828125 C-2.293125 6.22484375 -2.14875 5.6215625 -2 5 C-3.423125 5.2784375 -3.423125 5.2784375 -4.875 5.5625 C-8 6 -8 6 -10 5 C-7.68925392 -0.11665204 -5.56678732 -0.45443162 0 0 Z " fill="white" transform="translate(117,221)"/>
<path d="M0 0 C3.375 0.875 3.375 0.875 5.375 2.875 C5.67578125 5.51953125 5.67578125 5.51953125 5.6875 8.6875 C5.70425781 9.72519531 5.72101563 10.76289063 5.73828125 11.83203125 C5.32443284 15.29856793 4.54273714 17.14942531 2.375 19.875 C0.1875 20.6875 0.1875 20.6875 -1.625 20.875 C-1.66238281 21.52726562 -1.69976562 22.17953125 -1.73828125 22.8515625 C-2.48873696 32.82820898 -2.48873696 32.82820898 -5.625 36.875 C-11.05693229 38.90046628 -15.87229929 39.0804536 -21.625 38.875 C-17.71299961 36.26699974 -13.91684431 35.82023583 -9.33984375 34.94921875 C-6.46226685 34.13237888 -6.46226685 34.13237888 -5.28515625 31.59765625 C-4.42416587 28.04670777 -4.18395987 24.62142181 -3.96875 20.984375 C-3.8553125 20.28828125 -3.741875 19.5921875 -3.625 18.875 C-2.965 18.545 -2.305 18.215 -1.625 17.875 C-1.955 16.885 -2.285 15.895 -2.625 14.875 C-1.965 14.875 -1.305 14.875 -0.625 14.875 C-0.625 11.905 -0.625 8.935 -0.625 5.875 C-2.275 6.205 -3.925 6.535 -5.625 6.875 C-5.625 6.215 -5.625 5.555 -5.625 4.875 C-6.285 4.545 -6.945 4.215 -7.625 3.875 C-5.09785139 0.53916384 -4.30016242 -0.14828146 0 0 Z " fill="white" transform="translate(155.625,132.125)"/>
<path d="M0 0 C3.22489472 0.26147795 4.6300718 0.60540992 6.875 3 C8.65800744 7.75468649 8.22744856 12.27850772 6.13671875 16.9140625 C5.125 18.5625 5.125 18.5625 3 21 C2.01 21 1.02 21 0 21 C-0.02126953 22.22976562 -0.02126953 22.22976562 -0.04296875 23.484375 C-0.09066406 24.56203125 -0.13835937 25.6396875 -0.1875 26.75 C-0.22230469 27.81734375 -0.25710937 28.8846875 -0.29296875 29.984375 C-1 33 -1 33 -3.09765625 35.28125 C-10.60516493 39.72715016 -21.40336903 40.72852805 -30 40 C-30.66 39.34 -31.32 38.68 -32 38 C-30.081875 37.81824219 -30.081875 37.81824219 -28.125 37.6328125 C-26.41663581 37.4638534 -24.70830416 37.29456501 -23 37.125 C-22.16082031 37.04636719 -21.32164063 36.96773437 -20.45703125 36.88671875 C-15.139918 36.35088563 -10.10774185 35.60660651 -5 34 C-2.72858173 29.95095004 -2.65011709 25.42799752 -2.34375 20.85546875 C-2.2303125 20.24316406 -2.116875 19.63085938 -2 19 C-1.34 18.67 -0.68 18.34 0 18 C-0.33 17.01 -0.66 16.02 -1 15 C-0.34 15 0.32 15 1 15 C1.33 11.7 1.66 8.4 2 5 C0.35 5.33 -1.3 5.66 -3 6 C-3 5.34 -3 4.68 -3 4 C-0.625 3.375 -0.625 3.375 2 3 C4 5 4 5 4.0625 8.5625 C4.041875 9.696875 4.02125 10.83125 4 12 C4.495 12.495 4.495 12.495 5 13 C5.29359745 9.9465865 5.4451258 7.04256578 5 4 C2.6816144 1.39089037 2.6816144 1.39089037 0 0 Z " fill="white" transform="translate(73,133)"/>
<path d="M0 0 C3.10577027 4.6586554 2.61853384 9.54364795 2 15 C0.19196596 18.07365786 -0.86039464 19.43019732 -4 21 C-4.78163473 24.28015499 -5.34762132 27.5767798 -5.92578125 30.8984375 C-7 34 -7 34 -9.3984375 35.83984375 C-18.10543274 39.72269298 -26.66789675 39.20385662 -36 39 C-36 38.67 -36 38.34 -36 38 C-35.39526855 37.91435791 -34.79053711 37.82871582 -34.16748047 37.74047852 C-31.40321329 37.34856968 -28.63910597 36.95554417 -25.875 36.5625 C-24.92367187 36.42779297 -23.97234375 36.29308594 -22.9921875 36.15429688 C-22.0640625 36.02216797 -21.1359375 35.89003906 -20.1796875 35.75390625 C-19.33132324 35.63345947 -18.48295898 35.5130127 -17.60888672 35.38891602 C-14.73392044 34.96033457 -11.86718655 34.47786443 -9 34 C-8.34 29.05 -7.68 24.1 -7 19 C-5.35 18.34 -3.7 17.68 -2 17 C-2.33 17 -2.66 17 -3 17 C-3.99 17 -4.98 17 -6 17 C-5.01 13.04 -4.02 9.08 -3 5 C-4.98 5.33 -6.96 5.66 -9 6 C-8.34 5.01 -7.68 4.02 -7 3 C-4.4375 2.75 -4.4375 2.75 -2 3 C-1 4 -1 4 -0.90234375 5.84765625 C-0.93489583 7.8984375 -0.96744792 9.94921875 -1 12 C-0.67 12 -0.34 12 0 12 C0.04125 10.72125 0.0825 9.4425 0.125 8.125 C0.14820313 7.40570313 0.17140625 6.68640625 0.1953125 5.9453125 C0.18331689 3.76136355 0.18331689 3.76136355 -2 2 C-5.80909895 2.32417863 -7.78372163 2.85581442 -11 5 C-8.51062705 -0.51218297 -5.93381735 -0.4238441 0 0 Z " fill="white" transform="translate(201,44)"/>
<path d="M0 0 C0.66 0 1.32 0 2 0 C2.69685498 1.6210103 3.38222861 3.24696066 4.0625 4.875 C4.44535156 5.77992188 4.82820313 6.68484375 5.22265625 7.6171875 C6 10 6 10 5 12 C4.505 11.505 4.505 11.505 4 11 C3.67 14.63 3.34 18.26 3 22 C-2.7811455 24.61672902 -8.57862916 26.41267893 -14.68359375 28.10546875 C-18.19125343 29.10131427 -21.4764198 30.16850982 -24.78125 31.71875 C-28.13655234 33.05435578 -28.76989509 33.04162992 -32 32 C-28.878017 30.72166839 -25.75188878 29.45377908 -22.625 28.1875 C-21.75488281 27.83107422 -20.88476562 27.47464844 -19.98828125 27.10742188 C-4.85980505 21 -4.85980505 21 1 21 C0.34 17.04 -0.32 13.08 -1 9 C-1.66 9.66 -2.32 10.32 -3 11 C-2.44894091 7.0507432 -1.61064629 3.65079826 0 0 Z " fill="white" transform="translate(85,154)"/>
<path d="M0 0 C0.66 0 1.32 0 2 0 C2.99 3.63 3.98 7.26 5 11 C4.34 10.67 3.68 10.34 3 10 C3 13.96 3 17.92 3 22 C1.5459375 22.43699219 1.5459375 22.43699219 0.0625 22.8828125 C-8.0447086 25.35301746 -16.00376801 28.01017477 -23.85742188 31.20751953 C-28.67853322 33.10715559 -28.67853322 33.10715559 -32 32 C-6.60575898 21 -6.60575898 21 1 21 C0.01 14.565 0.01 14.565 -1 8 C-1.66 8.66 -2.32 9.32 -3 10 C-2.49287967 6.28111761 -1.88391785 3.26545761 0 0 Z " fill="white" transform="translate(125,242)"/>
<path d="M0 0 C0.66 0 1.32 0 2 0 C2.99 3.3 3.98 6.6 5 10 C4.34 9.67 3.68 9.34 3 9 C3 12.96 3 16.92 3 21 C-3.88825073 23.82131789 -10.80494014 26.36288863 -17.875 28.6875 C-19.25945312 29.14866211 -19.25945312 29.14866211 -20.671875 29.61914062 C-24.42889679 30.86331378 -28.14770929 32.08339015 -32 33 C-32 32.34 -32 31.68 -32 31 C-21.4502732 26.74183363 -11.02919452 22.85482366 0 20 C-0.33 16.04 -0.66 12.08 -1 8 C-1.66 8.66 -2.32 9.32 -3 10 C-2.49287967 6.28111761 -1.88391785 3.26545761 0 0 Z " fill="white" transform="translate(166,154)"/>
<path d="M0 0 C2.50298434 2.93828597 3.46930939 5.17902761 4 9 C3.34 9 2.68 9 2 9 C2 13.29 2 17.58 2 22 C0.72640625 22.42023438 -0.5471875 22.84046875 -1.859375 23.2734375 C-5.27785753 24.41248551 -8.68220809 25.58443863 -12.078125 26.7890625 C-12.92890625 27.09070313 -13.7796875 27.39234375 -14.65625 27.703125 C-16.40175568 28.32351557 -18.14653634 28.9459494 -19.890625 29.5703125 C-20.73625 29.869375 -21.581875 30.1684375 -22.453125 30.4765625 C-23.20754883 30.74549316 -23.96197266 31.01442383 -24.73925781 31.29150391 C-27.14002852 32.04388367 -29.52657737 32.54815616 -32 33 C-28.22394833 29.67178195 -23.82646322 28.18982973 -19.1875 26.4375 C-18.40568359 26.13392578 -17.62386719 25.83035156 -16.81835938 25.51757812 C-5.03722426 21 -5.03722426 21 1 21 C0.69012383 18.74963714 0.37700182 16.49972106 0.0625 14.25 C-0.11152344 12.99703125 -0.28554687 11.7440625 -0.46484375 10.453125 C-0.89047235 7.16689179 -0.89047235 7.16689179 -1.69140625 4.734375 C-2 3 -2 3 0 0 Z " fill="white" transform="translate(207,242)"/>
<path d="M0 0 C2.69692869 4.04539304 2.54134758 7.2527981 2 12 C0.75 15 0.75 15 -1 17 C-3.125 17.6875 -3.125 17.6875 -5 18 C-5.33 18.66 -5.66 19.32 -6 20 C-6 19.01 -6 18.02 -6 17 C-5.34 17 -4.68 17 -4 17 C-4.33 15.68 -4.66 14.36 -5 13 C-4.34 13 -3.68 13 -3 13 C-2.67 10.03 -2.34 7.06 -2 4 C-2.94875 4.20625 -3.8975 4.4125 -4.875 4.625 C-5.90625 4.74875 -6.9375 4.8725 -8 5 C-8.66 4.34 -9.32 3.68 -10 3 C-6.56492304 0.64451866 -4.21014309 -0.68272591 0 0 Z " fill="white" transform="translate(238,133)"/>
<path d="M0 0 C1.010625 0.0825 2.02125 0.165 3.0625 0.25 C5.76252827 4.3000424 5.59596859 7.49879537 5.0625 12.25 C3.875 15.25 3.875 15.25 2.0625 17.25 C-0.625 18.0625 -0.625 18.0625 -2.9375 18.25 C-2.2775 17.92 -1.6175 17.59 -0.9375 17.25 C-1.2675 15.93 -1.5975 14.61 -1.9375 13.25 C-1.2775 13.25 -0.6175 13.25 0.0625 13.25 C0.3925 10.28 0.7225 7.31 1.0625 4.25 C-0.9175 4.58 -2.8975 4.91 -4.9375 5.25 C-3.82553359 0.32557733 -3.82553359 0.32557733 0 0 Z " fill="white" transform="translate(108.9375,45.75)"/>
<path d="M0 0 C0.66 0.33 1.32 0.66 2 1 C2 1.66 2 2.32 2 3 C1.34 3 0.68 3 0 3 C0.433125 3.58265625 0.86625 4.1653125 1.3125 4.765625 C5.98311047 11.64180153 7.0561581 16.78657636 6 25 C5.36493301 28.23125279 4.61671024 31.40741255 3.80078125 34.59765625 C2.45095604 40.33276727 1.74419763 46.16023746 1 52 C0.67 52 0.34 52 0 52 C-0.35915909 45.6016473 0.12356807 39.83075809 1.5 33.5625 C3.67009008 23.34542517 4.65513388 15.08123688 -1 6 C-1.67786286 4.67232377 -2.34747921 3.34031297 -3 2 C-2.01 1.34 -1.02 0.68 0 0 Z " fill="white" transform="translate(214,200)"/>
<path d="M0 0 C1.96132202 3.92264405 1.48640203 8.72345226 1 13 C-1 15.6875 -1 15.6875 -3 17 C-3.99 16.01 -4.98 15.02 -6 14 C-5.34 13.34 -4.68 12.68 -4 12 C-3.53993654 9.79749008 -3.53993654 9.79749008 -3.375 7.375 C-3.26285156 6.14910156 -3.26285156 6.14910156 -3.1484375 4.8984375 C-3.09945312 4.27195313 -3.05046875 3.64546875 -3 3 C-4.98 3.66 -6.96 4.32 -9 5 C-9 4.34 -9 3.68 -9 3 C-9.66 3 -10.32 3 -11 3 C-10 1 -10 1 -7.75 -0.1875 C-4.66797534 -1.0980982 -3.02755386 -1.00918462 0 0 Z " fill="white" transform="translate(199,223)"/>
<path d="M0 0 C2.68495774 4.02743661 2.57173628 7.26867516 2 12 C0.5 15.0625 0.5 15.0625 -1 17 C-2.32 16.34 -3.64 15.68 -5 15 C-5 14.34 -5 13.68 -5 13 C-4.34 13 -3.68 13 -3 13 C-3 10.03 -3 7.06 -3 4 C-4.65 4.33 -6.3 4.66 -8 5 C-8 4.34 -8 3.68 -8 3 C-8.66 2.67 -9.32 2.34 -10 2 C-6.61242079 -0.08466413 -3.94726562 -0.42905061 0 0 Z " fill="white" transform="translate(158,134)"/>
<path d="M0 0 C2.47717167 3.71575751 2.30345742 5.59986738 2 10 C1.25 12.875 1.25 12.875 0 15 C-2.125 15.8125 -2.125 15.8125 -4 16 C-4 12.72782865 -3.73516599 10.37445544 -3 7.25 C-2.814375 6.45078125 -2.62875 5.6515625 -2.4375 4.828125 C-2.293125 4.22484375 -2.14875 3.6215625 -2 3 C-3.98 3.33 -5.96 3.66 -8 4 C-7.625 2.0625 -7.625 2.0625 -7 0 C-4.27584084 -1.36207958 -2.87220643 -0.86166193 0 0 Z " fill="white" transform="translate(117,223)"/>
<path d="M0 0 C0.33 0.66 0.66 1.32 1 2 C0.34 2 -0.32 2 -1 2 C-0.3503125 2.82177734 -0.3503125 2.82177734 0.3125 3.66015625 C6.44384353 12.38880502 6.06986288 20.64450506 4.34375 30.8984375 C3.63319886 34.28776643 2.83775062 37.64031618 2 41 C1.65674955 42.66465252 1.31959771 44.33064498 1 46 C0.67 46 0.34 46 0 46 C-0.29261542 40.34276854 0.22224127 35.53095562 1.5 30 C3.93910825 19.28166038 3.93910825 19.28166038 0.5625 9.1875 C0.11003906 8.47980469 -0.34242188 7.77210937 -0.80859375 7.04296875 C-1.99355858 5.01104545 -2.55110685 3.29606266 -3 1 C-2.01 0.67 -1.02 0.34 0 0 Z " fill="white" transform="translate(216,23)"/>
<path d="M0 0 C0 0.66 0 1.32 0 2 C-3.28942366 3.33891561 -6.58189109 4.67017703 -9.875 6 C-10.81214844 6.3815625 -11.74929687 6.763125 -12.71484375 7.15625 C-13.61074219 7.5171875 -14.50664062 7.878125 -15.4296875 8.25 C-16.67081299 8.75273438 -16.67081299 8.75273438 -17.93701172 9.265625 C-20 10 -20 10 -22 10 C-22.33 10.66 -22.66 11.32 -23 12 C-26.27923505 13.23882213 -29.58558238 14.21205747 -33 15 C-33 14.34 -33 13.68 -33 13 C-6.35483871 0 -6.35483871 0 0 0 Z " fill="white" transform="translate(182,24)"/>
<path d="M0 0 C0.33 0.99 0.66 1.98 1 3 C3.01822917 2.90234375 5.03645833 2.8046875 7.0546875 2.70703125 C7.69664063 2.80371094 8.33859375 2.90039062 9 3 C9.99 4.485 9.99 4.485 11 6 C7.7 6 4.4 6 1 6 C2.00836062 7.23267348 2.00836062 7.23267348 4.06640625 7.09765625 C4.89011719 7.08605469 5.71382813 7.07445312 6.5625 7.0625 C7.38878906 7.05347656 8.21507813 7.04445312 9.06640625 7.03515625 C10.02353516 7.01775391 10.02353516 7.01775391 11 7 C11 7.66 11 8.32 11 9 C7.43069089 10.63168416 4.87952743 11 1 11 C0.01 11.66 -0.98 12.32 -2 13 C-1.34 8.71 -0.68 4.42 0 0 Z " fill="white" transform="translate(75,216)"/>
<path d="M0 0 C0.33 0.66 0.66 1.32 1 2 C1.66 1.67 2.32 1.34 3 1 C6 0.8125 6 0.8125 9 1 C11 3 11 3 11 7 C8.69 7.66 6.38 8.32 4 9 C4 8.34 4 7.68 4 7 C3.34 7 2.68 7 2 7 C1.67 6.01 1.34 5.02 1 4 C0.67 4.99 0.34 5.98 0 7 C0 4.69 0 2.38 0 0 Z " fill="white" transform="translate(35,130)"/>
<path d="M0 0 C-0.98613281 0.4021875 -0.98613281 0.4021875 -1.9921875 0.8125 C-6.94342234 2.85203305 -11.86333435 4.92419123 -16.734375 7.1484375 C-17.54277832 7.51582031 -18.35118164 7.88320312 -19.18408203 8.26171875 C-20.80265647 8.99993634 -22.41827604 9.74466953 -24.03076172 10.49609375 C-25.99479076 11.38956772 -27.99516588 12.20228705 -30 13 C-30.66 12.67 -31.32 12.34 -32 12 C-25.89224558 7.81051016 -19.4843729 4.78212071 -12.625 2.0625 C-11.84012207 1.744021 -11.05524414 1.42554199 -10.24658203 1.09741211 C-9.49747559 0.80874268 -8.74836914 0.52007324 -7.9765625 0.22265625 C-7.30705566 -0.03765381 -6.63754883 -0.29796387 -5.94775391 -0.56616211 C-3.64730065 -1.07855938 -2.21595243 -0.72928125 0 0 Z " fill="white" transform="translate(180,203)"/>
<path d="M0 0 C3.3 0.33 6.6 0.66 10 1 C10.33 2.65 10.66 4.3 11 6 C8.35261084 7.4606285 7.10551666 8 4 8 C3.34 6.68 2.68 5.36 2 4 C1.67 4.99 1.34 5.98 1 7 C0.67 7 0.34 7 0 7 C0 4.69 0 2.38 0 0 Z " fill="white" transform="translate(196,129)"/>
<path d="M0 0 C-5.51057199 3.54251056 -11.21864877 5.56480718 -17.3984375 7.6953125 C-22.40485824 9.50891828 -27.20175687 11.69880177 -32 14 C-32 13.34 -32 12.68 -32 12 C-4.63959391 -2.31979695 -4.63959391 -2.31979695 0 0 Z " fill="white" transform="translate(220,113)"/>
<path d="M0 0 C0.33 0 0.66 0 1 0 C1 1.65 1 3.3 1 5 C-3.03704182 6.41004533 -7.07556166 7.81574884 -11.11547852 9.2175293 C-12.48828415 9.69454165 -13.86068615 10.17271736 -15.23266602 10.65209961 C-17.21003752 11.34278106 -19.188845 12.02920191 -21.16796875 12.71484375 C-22.35672607 13.12855225 -23.5454834 13.54226074 -24.77026367 13.96850586 C-27.51764729 14.84594904 -30.16212683 15.51103422 -33 16 C-29.22394833 12.67178195 -24.82646322 11.18982973 -20.1875 9.4375 C-19.40568359 9.13392578 -18.62386719 8.83035156 -17.81835938 8.51757812 C-6.03722426 4 -6.03722426 4 0 4 C0 2.68 0 1.36 0 0 Z " fill="white" transform="translate(209,82)"/>
<path d="M0 0 C-0.52932129 0.23436768 -1.05864258 0.46873535 -1.60400391 0.71020508 C-5.7918708 2.56758728 -9.97425187 4.436273 -14.1484375 6.32421875 C-15.00824219 6.71287109 -15.86804688 7.10152344 -16.75390625 7.50195312 C-18.52515953 8.30310867 -20.29598216 9.10521687 -22.06640625 9.90820312 C-22.91847656 10.29298828 -23.77054688 10.67777344 -24.6484375 11.07421875 C-25.79578369 11.59375122 -25.79578369 11.59375122 -26.96630859 12.1237793 C-29 13 -29 13 -32 14 C-32 13.34 -32 12.68 -32 12 C-4.63959391 -2.31979695 -4.63959391 -2.31979695 0 0 Z " fill="white" transform="translate(94,26)"/>
<path d="M0 0 C-4.20672669 1.79545569 -8.41565482 3.5856928 -12.625 5.375 C-14.40970703 6.13683594 -14.40970703 6.13683594 -16.23046875 6.9140625 C-17.38417969 7.40390625 -18.53789063 7.89375 -19.7265625 8.3984375 C-20.78439941 8.84880371 -21.84223633 9.29916992 -22.93212891 9.76318359 C-25.92279502 10.96887471 -28.93056126 12.01440041 -32 13 C-28.61065193 9.0253779 -24.96132114 7.3859553 -20.25 5.4375 C-19.57195313 5.14681641 -18.89390625 4.85613281 -18.1953125 4.55664062 C-16.13851049 3.68269529 -14.07103053 2.83959383 -12 2 C-10.93168945 1.54584717 -10.93168945 1.54584717 -9.84179688 1.08251953 C-6.09422605 -0.44655188 -3.86220061 -1.26017905 0 0 Z " fill="white" transform="translate(59,115)"/>
<path d="M0 0 C-2.99880309 1.33603633 -5.9991201 2.66863521 -9 4 C-10.32620361 4.589021 -10.32620361 4.589021 -11.67919922 5.18994141 C-14.42829431 6.40601055 -17.18237661 7.61015873 -19.9375 8.8125 C-21.35385742 9.44188477 -21.35385742 9.44188477 -22.79882812 10.08398438 C-23.69923828 10.47521484 -24.59964844 10.86644531 -25.52734375 11.26953125 C-26.74538696 11.80477417 -26.74538696 11.80477417 -27.98803711 12.35083008 C-30 13 -30 13 -32 12 C-6.75195008 -2.25065003 -6.75195008 -2.25065003 0 0 Z " fill="white" transform="translate(140,114)"/>
<path d="M0 0 C3.3 0.33 6.6 0.66 10 1 C10.33 2.65 10.66 4.3 11 6 C7.91190305 7.76462683 6.76687864 8 3 8 C2.34 6.35 1.68 4.7 1 3 C0.67 4.32 0.34 5.64 0 7 C0 4.69 0 2.38 0 0 Z " fill="white" transform="translate(116,130)"/>
<path d="M0 0 C2 4 2 4 1.3125 7.5625 C0.13291958 9.92166085 -0.7253308 10.85093854 -3.05859375 12.1171875 C-11.46576556 14.80441137 -20.28543823 14.27584193 -29 14 C-29 13.67 -29 13.34 -29 13 C-28.20078125 12.96261719 -27.4015625 12.92523438 -26.578125 12.88671875 C-19.60469433 12.46929508 -13.18992475 11.50629259 -6.4609375 9.62109375 C-4 9 -4 9 -1 9 C-0.67 6.03 -0.34 3.06 0 0 Z " fill="white" transform="translate(110,246)"/>
<path d="M0 0 C0.495 1.98 0.495 1.98 1 4 C-2.6248955 5.10450992 -6.24993589 6.20854359 -9.875 7.3125 C-10.88820313 7.62123047 -11.90140625 7.92996094 -12.9453125 8.24804688 C-19.29234334 10.18063639 -25.64333216 12.09934398 -32 14 C-30.41783386 10.83566772 -27.21391025 10.27712584 -24.0625 9.0625 C-23.38388916 8.79743652 -22.70527832 8.53237305 -22.00610352 8.25927734 C-6.94172465 2.45196911 -6.94172465 2.45196911 0 3 C0 2.01 0 1.02 0 0 Z " fill="white" transform="translate(122,84)"/>
<path d="M0 0 C1.44375 0.144375 2.8875 0.28875 4.375 0.4375 C5.59316406 0.55931641 5.59316406 0.55931641 6.8359375 0.68359375 C9 1 9 1 11 2 C10.67 2.66 10.34 3.32 10 4 C7.03 3.67 4.06 3.34 1 3 C1.33 3.66 1.66 4.32 2 5 C4.97 5 7.94 5 11 5 C11 5.66 11 6.32 11 7 C10.31292969 7.12117188 9.62585938 7.24234375 8.91796875 7.3671875 C8.01691406 7.53476562 7.11585938 7.70234375 6.1875 7.875 C5.29417969 8.03742187 4.40085938 8.19984375 3.48046875 8.3671875 C0.77272154 8.91188449 0.77272154 8.91188449 -2 11 C-1.34 7.37 -0.68 3.74 0 0 Z " fill="white" transform="translate(158,41)"/>
<path d="M0 0 C2.875 1.3125 2.875 1.3125 4.875 3.3125 C5.140625 5.40625 5.140625 5.40625 5.125 7.8125 C5.13015625 8.6065625 5.1353125 9.400625 5.140625 10.21875 C4.875 12.3125 4.875 12.3125 2.875 14.3125 C2.730625 13.425625 2.58625 12.53875 2.4375 11.625 C1.96480022 8.84132354 1.44429815 6.07766243 0.875 3.3125 C-0.775 3.3125 -2.425 3.3125 -4.125 3.3125 C-4.455 4.3025 -4.785 5.2925 -5.125 6.3125 C-5.125 5.6525 -5.125 4.9925 -5.125 4.3125 C-5.785 4.3125 -6.445 4.3125 -7.125 4.3125 C-7.125 2.3125 -7.125 2.3125 -5.5 0.5625 C-3.125 -0.6875 -3.125 -0.6875 0 0 Z " fill="white" transform="translate(74.125,133.6875)"/>
<path d="M0 0 C0.66 0 1.32 0 2 0 C2.99 3.3 3.98 6.6 5 10 C4.34 9.67 3.68 9.34 3 9 C2.67 11.64 2.34 14.28 2 17 C-0.12508244 13.81237635 -0.5020163 11.73487777 -1 8 C-1.66 8.66 -2.32 9.32 -3 10 C-2.49287967 6.28111761 -1.88391785 3.26545761 0 0 Z " fill="white" transform="translate(166,154)"/>
<path d="M0 0 C0.66 0.33 1.32 0.66 2 1 C2 1.66 2 2.32 2 3 C1.34 3 0.68 3 0 3 C0.433125 3.58265625 0.86625 4.1653125 1.3125 4.765625 C5.978414 11.63488728 6.76133496 16.79450104 6 25 C5.67 25 5.34 25 5 25 C4.938125 23.72125 4.87625 22.4425 4.8125 21.125 C4.19710908 15.39643453 1.75776069 10.97427863 -1 6 C-1.67300394 4.66985417 -2.34191748 3.33759098 -3 2 C-2.01 1.34 -1.02 0.68 0 0 Z " fill="white" transform="translate(214,200)"/>
<path d="M0 0 C0.66 0 1.32 0 2 0 C3.23180249 6.15901243 2.73030908 11.78675502 2 18 C0.41841038 14.99112219 -0.43945339 12.36327963 -1 9 C-1.66 9.66 -2.32 10.32 -3 11 C-2.44894091 7.0507432 -1.61064629 3.65079826 0 0 Z " fill="white" transform="translate(85,154)"/>
<path d="M0 0 C2.64 0 5.28 0 8 0 C8.33 1.65 8.66 3.3 9 5 C6 7 6 7 2 7 C1.67 6.01 1.34 5.02 1 4 C1.33 3.67 1.66 3.34 2 3 C1.34 2.67 0.68 2.34 0 2 C0 1.34 0 0.68 0 0 Z " fill="white" transform="translate(72,43)"/>
<path d="M0 0 C0.66 0 1.32 0 2 0 C2.99 3.63 3.98 7.26 5 11 C3 10 3 10 2 7 C1.67 9.97 1.34 12.94 1 16 C0.67 16 0.34 16 0 16 C-0.33 13.36 -0.66 10.72 -1 8 C-1.66 8.66 -2.32 9.32 -3 10 C-2.49287967 6.28111761 -1.88391785 3.26545761 0 0 Z " fill="white" transform="translate(125,242)"/>
<path d="M0 0 C-8.47050342 3.05399103 -8.47050342 3.05399103 -13 3.5625 C-14.485 3.7790625 -14.485 3.7790625 -16 4 C-16.33 4.66 -16.66 5.32 -17 6 C-17 5.34 -17 4.68 -17 4 C-20.3 4 -23.6 4 -27 4 C-27 3.67 -27 3.34 -27 3 C-25.38931641 2.81824219 -25.38931641 2.81824219 -23.74609375 2.6328125 C-22.30986025 2.46384385 -20.87366428 2.29455596 -19.4375 2.125 C-18.73302734 2.04636719 -18.02855469 1.96773438 -17.30273438 1.88671875 C-13.77343398 1.46385326 -10.64972598 0.89495402 -7.22265625 -0.1328125 C-4.16935288 -0.95442868 -2.8729706 -1.14918824 0 0 Z " fill="white" transform="translate(104,80)"/>
<path d="M0 0 C1.66611905 -0.042721 3.33382885 -0.04063832 5 0 C6.65653686 1.65653686 6.17106165 3.60650796 6.1875 5.875 C6.20167969 6.75929687 6.21585938 7.64359375 6.23046875 8.5546875 C6 11 6 11 4 14 C3.01 13.67 2.02 13.34 1 13 C1 12.34 1 11.68 1 11 C1.66 11 2.32 11 3 11 C3.33 8.03 3.66 5.06 4 2 C2.35 2 0.7 2 -1 2 C-0.67 1.34 -0.34 0.68 0 0 Z " fill="white" transform="translate(232,135)"/>
<path d="M0 0 C1.66611905 -0.042721 3.33382885 -0.04063832 5 0 C6.65653686 1.65653686 6.17106165 3.60650796 6.1875 5.875 C6.20167969 6.75929688 6.21585937 7.64359375 6.23046875 8.5546875 C6 11 6 11 4 14 C3.01 13.67 2.02 13.34 1 13 C1 12.34 1 11.68 1 11 C1.66 11 2.32 11 3 11 C3.33 8.03 3.66 5.06 4 2 C2.35 2 0.7 2 -1 2 C-0.67 1.34 -0.34 0.68 0 0 Z " fill="white" transform="translate(106,48)"/>
<path d="M0 0 C2.5625 -0.25 2.5625 -0.25 5 0 C5.33 0.33 5.66 0.66 6 1 C5.90997602 3.02408755 5.75358962 5.04544287 5.5625 7.0625 C5.46066406 8.16722656 5.35882813 9.27195312 5.25390625 10.41015625 C5.12822266 11.69212891 5.12822266 11.69212891 5 13 C3.68 13.33 2.36 13.66 1 14 C1.99 10.04 2.98 6.08 4 2 C2.02 2.33 0.04 2.66 -2 3 C-1.34 2.01 -0.68 1.02 0 0 Z " fill="white" transform="translate(194,47)"/>
<path d="M0 0 C0.66 0 1.32 0 2 0 C2.99 2.97 3.98 5.94 5 9 C4.34 9 3.68 9 3 9 C2.67 8.34 2.34 7.68 2 7 C1.67 8.65 1.34 10.3 1 12 C0.34 11.01 -0.32 10.02 -1 9 C-1.99 9.495 -1.99 9.495 -3 10 C-1.125 2.25 -1.125 2.25 0 0 Z " fill="white" transform="translate(246,153)"/>
<path d="M0 0 C1.65 0.33 3.3 0.66 5 1 C6.16063604 5.25566547 5.76173392 8.6835078 5 13 C3.68 13.33 2.36 13.66 1 14 C1.99 10.04 2.98 6.08 4 2 C2.02 2.33 0.04 2.66 -2 3 C-1.34 2.01 -0.68 1.02 0 0 Z " fill="white" transform="translate(111,224)"/>
<path d="M0 0 C1.65 0.33 3.3 0.66 5 1 C5.02696365 2.79158489 5.04637917 4.58328473 5.0625 6.375 C5.07410156 7.37273437 5.08570313 8.37046875 5.09765625 9.3984375 C5 12 5 12 4 14 C2.68 13.67 1.36 13.34 0 13 C0.66 12.34 1.32 11.68 2 11 C2.46006346 8.79749008 2.46006346 8.79749008 2.625 6.375 C2.73714844 5.14910156 2.73714844 5.14910156 2.8515625 3.8984375 C2.90054688 3.27195313 2.94953125 2.64546875 3 2 C1.35 2.33 -0.3 2.66 -2 3 C-1.34 2.01 -0.68 1.02 0 0 Z " fill="white" transform="translate(193,224)"/>
<path d="M0 0 C1.16063604 4.25566547 0.76173392 7.6835078 0 12 C-1.32 12.33 -2.64 12.66 -4 13 C-4 12.34 -4 11.68 -4 11 C-3.34 11 -2.68 11 -2 11 C-1.67 7.7 -1.34 4.4 -1 1 C-2.65 1.33 -4.3 1.66 -6 2 C-6 1.34 -6 0.68 -6 0 C-3.50907189 -1.24546405 -2.58919267 -0.7767578 0 0 Z " fill="white" transform="translate(76,137)"/>
<path d="M0 0 C2 2 2 2 2.265625 3.875 C2.26046875 4.57625 2.2553125 5.2775 2.25 6 C2.25515625 6.70125 2.2603125 7.4025 2.265625 8.125 C2 10 2 10 0 12 C-0.77842938 8.59437148 -1.09978121 5.49234244 -1 2 C-4.62885324 1.84850702 -4.62885324 1.84850702 -8 3 C-7.67 2.01 -7.34 1.02 -7 0 C-4.29393021 -1.35303489 -2.8671629 -0.7884698 0 0 Z " fill="white" transform="translate(200,46)"/>
<path d="M0 0 C-0.33 0.99 -0.66 1.98 -1 3 C-3.30748496 4.07407228 -5.47746557 4.94125086 -7.875 5.75 C-8.51308594 5.98332031 -9.15117187 6.21664062 -9.80859375 6.45703125 C-14.608522 8.13049267 -14.608522 8.13049267 -18 7 C-15.37690901 5.82887054 -12.75171858 4.66294036 -10.125 3.5 C-9.37863281 3.16613281 -8.63226563 2.83226562 -7.86328125 2.48828125 C-7.14785156 2.17246094 -6.43242187 1.85664063 -5.6953125 1.53125 C-5.03547363 1.23798828 -4.37563477 0.94472656 -3.69580078 0.64257812 C-2 0 -2 0 0 0 Z " fill="white" transform="translate(232,178)"/>
<path d="M0 0 C1.2065625 0.0309375 1.2065625 0.0309375 2.4375 0.0625 C3.59813604 4.31816547 3.19923392 7.7460078 2.4375 12.0625 C1.1175 12.3925 -0.2025 12.7225 -1.5625 13.0625 C-1.5625 12.4025 -1.5625 11.7425 -1.5625 11.0625 C-0.9025 11.0625 -0.2425 11.0625 0.4375 11.0625 C0.4375 8.0925 0.4375 5.1225 0.4375 2.0625 C-0.8825 1.7325 -2.2025 1.4025 -3.5625 1.0625 C-2.5625 0.0625 -2.5625 0.0625 0 0 Z " fill="white" transform="translate(154.5625,135.9375)"/>
<path d="M0 0 C-0.66 2.97 -1.32 5.94 -2 9 C0.31 9.33 2.62 9.66 5 10 C5 10.33 5 10.66 5 11 C2.66705225 11.04241723 0.33297433 11.04092937 -2 11 C-3 10 -3 10 -3.0625 6.9375 C-3.041875 5.968125 -3.02125 4.99875 -3 4 C-4.65 4 -6.3 4 -8 4 C-6.27302455 0.54604909 -3.70696841 0 0 0 Z " fill="white" transform="translate(199,144)"/>
<path d="M0 0 C-2.28171948 2.61812684 -4.19391672 3.62215474 -7.5 4.625 C-8.2734375 4.86476563 -9.046875 5.10453125 -9.84375 5.3515625 C-10.91109375 5.67253906 -10.91109375 5.67253906 -12 6 C-12.99 6.33 -13.98 6.66 -15 7 C-15 6.34 -15 5.68 -15 5 C-13.44424022 4.15415002 -11.8800388 3.32381601 -10.3125 2.5 C-9.44238281 2.0359375 -8.57226562 1.571875 -7.67578125 1.09375 C-4.88211171 -0.04818792 -2.98370887 -0.21504208 0 0 Z " fill="white" transform="translate(101,32)"/>
<path d="M0 0 C-2.12282669 1.00460531 -4.24833021 2.00355602 -6.375 3 C-8.15003906 3.8353125 -8.15003906 3.8353125 -9.9609375 4.6875 C-13 6 -13 6 -15 6 C-15 5.34 -15 4.68 -15 4 C-13.730447 3.35165346 -12.45930294 2.70642185 -11.1875 2.0625 C-10.47980469 1.70285156 -9.77210938 1.34320313 -9.04296875 0.97265625 C-5.54717095 -0.69169108 -3.67208522 -1.13961265 0 0 Z " fill="white" transform="translate(227,120)"/>
<path d="M0 0 C0 0.66 0 1.32 0 2 C-1.95649397 2.83764268 -3.91525556 3.66999059 -5.875 4.5 C-7.51082031 5.19609375 -7.51082031 5.19609375 -9.1796875 5.90625 C-12 7 -12 7 -14 7 C-14 6.34 -14 5.68 -14 5 C-12.23244474 4.15973604 -10.46082737 3.32801278 -8.6875 2.5 C-7.70136719 2.0359375 -6.71523437 1.571875 -5.69921875 1.09375 C-3 0 -3 0 0 0 Z " fill="white" transform="translate(187,208)"/>
<path d="M0 0 C0.33 0 0.66 0 1 0 C1.20086443 3.71599191 1.1519437 4.77208445 -1 8 C-1.38499891 9.65549531 -1.72793135 11.3222433 -2 13 C-4 12 -4 12 -4.875 9.6875 C-5 7 -5 7 -3.125 4.875 C-2.42375 4.25625 -1.7225 3.6375 -1 3 C-0.67 2.01 -0.34 1.02 0 0 Z " fill="white" transform="translate(119,235)"/>
<path d="M0 0 C-2.96346786 2.47186455 -5.54041689 3.66248361 -9.25 4.6875 C-10.14203125 4.93886719 -11.0340625 5.19023437 -11.953125 5.44921875 C-12.62859375 5.63097656 -13.3040625 5.81273437 -14 6 C-14 5.34 -14 4.68 -14 4 C-9.22642128 1.28608722 -5.65611463 -0.56561146 0 0 Z " fill="white" transform="translate(105,209)"/>
<path d="M0 0 C0.33 0.99 0.66 1.98 1 3 C-1.26805795 3.69809445 -3.53866607 4.38371017 -5.8125 5.0625 C-6.45509766 5.26166016 -7.09769531 5.46082031 -7.75976562 5.66601562 C-12.66015625 7.11328125 -12.66015625 7.11328125 -16 6 C-10.62819824 3.37124595 -5.95507399 2.3916035 0 2 C0 1.34 0 0.68 0 0 Z " fill="white" transform="translate(248,172)"/>
<path d="M0 0 C0.66 0.33 1.32 0.66 2 1 C-0.46153846 5.8 -0.46153846 5.8 -3.1875 6.8125 C-3.785625 6.874375 -4.38375 6.93625 -5 7 C-5 8.32 -5 9.64 -5 11 C-5.66 11 -6.32 11 -7 11 C-7 9.02 -7 7.04 -7 5 C-5.824375 4.87625 -5.824375 4.87625 -4.625 4.75 C-1.85250896 4.27193661 -1.85250896 4.27193661 -0.6875 1.9375 C-0.460625 1.298125 -0.23375 0.65875 0 0 Z " fill="white" transform="translate(159,146)"/>
<path d="M0 0 C-2.55068845 2.35448165 -3.71017358 2.98327924 -7.25 3.1875 C-8.1575 3.125625 -9.065 3.06375 -10 3 C-10 3.66 -10 4.32 -10 5 C-11.65 5.33 -13.3 5.66 -15 6 C-15 5.34 -15 4.68 -15 4 C-13.58521865 3.35004703 -12.16808513 2.70521278 -10.75 2.0625 C-9.96109375 1.70285156 -9.1721875 1.34320312 -8.359375 0.97265625 C-2.71143376 -1.35571688 -2.71143376 -1.35571688 0 0 Z " fill="white" transform="translate(71,28)"/>
<path d="M0 0 C1.98 0 3.96 0 6 0 C6 0.99 6 1.98 6 3 C5.34 3 4.68 3 4 3 C3.67 3.99 3.34 4.98 3 6 C1.35 5.67 -0.3 5.34 -2 5 C-1.34 3.35 -0.68 1.7 0 0 Z " fill="white" transform="translate(73,66)"/>
<path d="M0 0 C0.66 0.66 1.32 1.32 2 2 C1.9765625 4.8203125 1.9765625 4.8203125 1.625 8.125 C1.51414063 9.22070312 1.40328125 10.31640625 1.2890625 11.4453125 C1.19367188 12.28835937 1.09828125 13.13140625 1 14 C0.67 14 0.34 14 0 14 C-0.144375 12.9275 -0.28875 11.855 -0.4375 10.75 C-0.87348673 7.21662969 -0.87348673 7.21662969 -1.6875 4.75 C-2 3 -2 3 0 0 Z " fill="white" transform="translate(207,242)"/>
<path d="M0 0 C-2.55068845 2.35448165 -3.71017358 2.98327924 -7.25 3.1875 C-8.1575 3.125625 -9.065 3.06375 -10 3 C-10 3.66 -10 4.32 -10 5 C-11.32 4.67 -12.64 4.34 -14 4 C-12.730447 3.35165346 -11.45930294 2.70642185 -10.1875 2.0625 C-9.47980469 1.70285156 -8.77210938 1.34320313 -8.04296875 0.97265625 C-3.52913386 -1.17637795 -3.52913386 -1.17637795 0 0 Z " fill="white" transform="translate(197,115)"/>
<path d="M0 0 C-1.41478135 0.64995297 -2.83191487 1.29478722 -4.25 1.9375 C-5.03890625 2.29714844 -5.8278125 2.65679687 -6.640625 3.02734375 C-8.75823698 3.90033279 -10.76669362 4.51338508 -13 5 C-13.33 4.34 -13.66 3.68 -14 3 C-12.23358317 2.3012307 -10.46167336 1.61633417 -8.6875 0.9375 C-7.20830078 0.36322266 -7.20830078 0.36322266 -5.69921875 -0.22265625 C-3 -1 -3 -1 0 0 Z " fill="white" transform="translate(140,114)"/>
<path d="M0 0 C0.33 1.32 0.66 2.64 1 4 C-0.57914015 4.53341184 -2.16354387 5.05125763 -3.75 5.5625 C-4.63171875 5.85253906 -5.5134375 6.14257812 -6.421875 6.44140625 C-9.07834316 7.01697435 -10.47031106 6.89248371 -13 6 C-8.37802694 3.78145293 -5.23175837 2.61718841 0 3 C0 2.01 0 1.02 0 0 Z " fill="white" transform="translate(122,84)"/>
<path d="M0 0 C1.4540625 0.0309375 1.4540625 0.0309375 2.9375 0.0625 C3.5975 1.7125 4.2575 3.3625 4.9375 5.0625 C3.9475 5.5575 3.9475 5.5575 2.9375 6.0625 C2.6075 5.0725 2.2775 4.0825 1.9375 3.0625 C0.2875 3.0625 -1.3625 3.0625 -3.0625 3.0625 C-3.0625 3.7225 -3.0625 4.3825 -3.0625 5.0625 C-3.7225 5.0625 -4.3825 5.0625 -5.0625 5.0625 C-3.9375 0.08035714 -3.9375 0.08035714 0 0 Z " fill="white" transform="translate(109.0625,45.9375)"/>
<path d="M0 0 C2.97 0 5.94 0 9 0 C9 0.66 9 1.32 9 2 C6.09399739 3.25664978 4.20395416 4 1 4 C0.67 2.68 0.34 1.36 0 0 Z " fill="white" transform="translate(77,223)"/>
<path d="M0 0 C0.78375 0.04125 1.5675 0.0825 2.375 0.125 C2.375 1.115 2.375 2.105 2.375 3.125 C1.715 3.125 1.055 3.125 0.375 3.125 C0.045 4.445 -0.285 5.765 -0.625 7.125 C-0.625 6.135 -0.625 5.145 -0.625 4.125 C-2.275 4.455 -3.925 4.785 -5.625 5.125 C-4.41988658 1.50965974 -3.92406511 0.18686024 0 0 Z " fill="white" transform="translate(122.625,153.875)"/>
<path d="M0 0 C1.15957207 3.47871621 0.77456651 4.34219645 -0.4375 7.6875 C-0.72496094 8.49574219 -1.01242188 9.30398437 -1.30859375 10.13671875 C-1.53675781 10.75160156 -1.76492187 11.36648437 -2 12 C-4 11 -4 11 -4.9375 8.8125 C-5.03256621 4.53452057 -2.89716704 3.03849226 0 0 Z " fill="white" transform="translate(114,60)"/>
<path d="M0 0 C-7.83418108 4.7619532 -7.83418108 4.7619532 -12 5 C-12.66 4.34 -13.32 3.68 -14 3 C-12.04486839 2.303447 -10.08577524 1.61800435 -8.125 0.9375 C-7.03445312 0.55464844 -5.94390625 0.17179687 -4.8203125 -0.22265625 C-2 -1 -2 -1 0 0 Z " fill="white" transform="translate(220,113)"/>
<path d="M0 0 C0.66 0.99 1.32 1.98 2 3 C1.34 3 0.68 3 0 3 C-0.66 5.64 -1.32 8.28 -2 11 C-4 8 -4 8 -3.8125 6.0625 C-2.87858188 3.69178476 -1.61172061 1.96209466 0 0 Z " fill="white" transform="translate(200,237)"/>
<path d="M0 0 C2.64 0 5.28 0 8 0 C8 0.66 8 1.32 8 2 C5.69 2.66 3.38 3.32 1 4 C0.67 2.68 0.34 1.36 0 0 Z " fill="white" transform="translate(159,223)"/>
<path d="M0 0 C-3.90898316 2.60598877 -6.33080658 2.70354328 -11 3 C-11.66 2.34 -12.32 1.68 -13 1 C-11.58622218 0.63447197 -10.16879424 0.28304505 -8.75 -0.0625 C-7.96109375 -0.25972656 -7.1721875 -0.45695313 -6.359375 -0.66015625 C-3.89605178 -1.01497267 -2.34395868 -0.76877544 0 0 Z " fill="white" transform="translate(67,169)"/>
<path d="M0 0 C-1.4317616 0.69937202 -2.87067032 1.38412718 -4.3125 2.0625 C-5.51326172 2.63677734 -5.51326172 2.63677734 -6.73828125 3.22265625 C-9 4 -9 4 -12 3 C-8.45266434 -0.54733566 -4.72551531 -1.44220272 0 0 Z " fill="white" transform="translate(180,203)"/>
<path d="M0 0 C2 2 2 2 2.1953125 4.3828125 C2.17210938 5.28773437 2.14890625 6.19265625 2.125 7.125 C2.10695313 8.03507812 2.08890625 8.94515625 2.0703125 9.8828125 C2.04710938 10.58148438 2.02390625 11.28015625 2 12 C1.67 12 1.34 12 1 12 C0.67 10.35 0.34 8.7 0 7 C-0.99 7.495 -0.99 7.495 -2 8 C-1.125 2.25 -1.125 2.25 0 0 Z " fill="white" transform="translate(119,68)"/>
<path d="M0 0 C0.66 0.33 1.32 0.66 2 1 C1.34 1.66 0.68 2.32 0 3 C0.33 3.66 0.66 4.32 1 5 C-0.96466413 6.06775224 -2.96855359 7.06553465 -5 8 C-5.66 7.67 -6.32 7.34 -7 7 C-4.69 4.69 -2.38 2.38 0 0 Z " fill="white" transform="translate(152,23)"/>
<path d="M0 0 C0.66 0.33 1.32 0.66 2 1 C2 4.3 2 7.6 2 11 C1.67 11 1.34 11 1 11 C0.67 9.35 0.34 7.7 0 6 C-0.66 6.66 -1.32 7.32 -2 8 C-1.125 2.25 -1.125 2.25 0 0 Z " fill="white" transform="translate(84,157)"/>
<path d="M0 0 C0.66 0.66 1.32 1.32 2 2 C1.01 3.485 1.01 3.485 0 5 C-0.38499891 6.65549531 -0.72793135 8.3222433 -1 10 C-4 6.25 -4 6.25 -4 4 C-2.70766393 2.62689293 -1.37562854 1.28965176 0 0 Z " fill="white" transform="translate(78,150)"/>
<path d="M0 0 C2.97 0 5.94 0 9 0 C9 0.66 9 1.32 9 2 C6.36 2.33 3.72 2.66 1 3 C0.67 2.01 0.34 1.02 0 0 Z " fill="white" transform="translate(160,46)"/>
<path d="M0 0 C-2.97 1.32 -5.94 2.64 -9 4 C-9.66 3.34 -10.32 2.68 -11 2 C-4.5 -1.125 -4.5 -1.125 0 0 Z " fill="white" transform="translate(169,207)"/>
<path d="M0 0 C0.66 0.33 1.32 0.66 2 1 C2 1.66 2 2.32 2 3 C1.34 3 0.68 3 0 3 C0.66 4.32 1.32 5.64 2 7 C1.01 7.495 1.01 7.495 0 8 C-1.5625 6.1875 -1.5625 6.1875 -3 4 C-2.67 3.01 -2.34 2.02 -2 1 C-1.34 0.67 -0.68 0.34 0 0 Z " fill="white" transform="translate(214,200)"/>
<path d="M0 0 C1.11375 0.3403125 1.11375 0.3403125 2.25 0.6875 C-1.5 3.6875 -1.5 3.6875 -3.75 3.6875 C-4.08 4.6775 -4.41 5.6675 -4.75 6.6875 C-4.75 6.0275 -4.75 5.3675 -4.75 4.6875 C-5.41 4.6875 -6.07 4.6875 -6.75 4.6875 C-6.75 2.6875 -6.75 2.6875 -5.0625 1 C-2.75 -0.3125 -2.75 -0.3125 0 0 Z " fill="white" transform="translate(73.75,133.3125)"/>
<path d="M0 0 C0.66 0.33 1.32 0.66 2 1 C1.34 1.66 0.68 2.32 0 3 C0.33 3.66 0.66 4.32 1 5 C-0.96466413 6.06775224 -2.96855359 7.06553465 -5 8 C-5.66 7.67 -6.32 7.34 -7 7 C-4.69 4.69 -2.38 2.38 0 0 Z " fill="white" transform="translate(190,111)"/>
<path d="M0 0 C0.66 0.33 1.32 0.66 2 1 C1.34 1.66 0.68 2.32 0 3 C0.33 3.66 0.66 4.32 1 5 C-0.96466413 6.06775224 -2.96855359 7.06553465 -5 8 C-5.66 7.67 -6.32 7.34 -7 7 C-4.69 4.69 -2.38 2.38 0 0 Z " fill="white" transform="translate(64,24)"/>
<path d="M0 0 C0.33 0.99 0.66 1.98 1 3 C0.01 3.495 0.01 3.495 -1 4 C-1.99 5.485 -1.99 5.485 -3 7 C-3 6.01 -3 5.02 -3 4 C-4.32 4 -5.64 4 -7 4 C-7 3.34 -7 2.68 -7 2 C-4.69 2 -2.38 2 0 2 C0 1.34 0 0.68 0 0 Z " fill="white" transform="translate(83,243)"/>
<path d="M0 0 C0.66 0.33 1.32 0.66 2 1 C-0.02882906 3.94180214 -2.05819786 5.97117094 -5 8 C-5.66 7.67 -6.32 7.34 -7 7 C-4.69 4.69 -2.38 2.38 0 0 Z " fill="white" transform="translate(69,200)"/>
<path d="M0 0 C-0.99 0.33 -1.98 0.66 -3 1 C-3.33 1.66 -3.66 2.32 -4 3 C-4 2.34 -4 1.68 -4 1 C-7.3 1 -10.6 1 -14 1 C-14 0.67 -14 0.34 -14 0 C-4.58997722 -1.33257403 -4.58997722 -1.33257403 0 0 Z " fill="white" transform="translate(217,170)"/>
<path d="M0 0 C0.99 1.32 1.98 2.64 3 4 C2.67 4.66 2.34 5.32 2 6 C1.67 5.67 1.34 5.34 1 5 C0.67 6.98 0.34 8.96 0 11 C-0.33 11 -0.66 11 -1 11 C-1.02688151 9.35425434 -1.04634123 7.70838587 -1.0625 6.0625 C-1.07410156 5.14597656 -1.08570312 4.22945312 -1.09765625 3.28515625 C-1 1 -1 1 0 0 Z " fill="white" transform="translate(88,160)"/>
<path d="M0 0 C0.66 0.33 1.32 0.66 2 1 C0.515 4.96 0.515 4.96 -1 9 C-1.66 8.34 -2.32 7.68 -3 7 C-2.67028521 3.70285207 -2.3773161 2.3773161 0 0 Z " fill="white" transform="translate(159,150)"/>
<path d="M0 0 C-0.99 0.33 -1.98 0.66 -3 1 C-3.33 1.66 -3.66 2.32 -4 3 C-4 2.34 -4 1.68 -4 1 C-7.3 1 -10.6 1 -14 1 C-14 0.67 -14 0.34 -14 0 C-4.58997722 -1.33257403 -4.58997722 -1.33257403 0 0 Z " fill="white" transform="translate(91,83)"/>
<path d="M0 0 C0 0.99 0 1.98 0 3 C-0.886875 2.773125 -1.77375 2.54625 -2.6875 2.3125 C-6.57790624 1.94548054 -7.91440696 2.73118159 -11 5 C-8.45499142 -0.63537615 -5.97208347 -0.11059414 0 0 Z " fill="white" transform="translate(201,44)"/>
<path d="M0 0 C2.31 0 4.62 0 7 0 C6.34 1.65 5.68 3.3 5 5 C4.67 4.01 4.34 3.02 4 2 C2.68 2 1.36 2 0 2 C0 1.34 0 0.68 0 0 Z " fill="white" transform="translate(158,245)"/>
<path d="M0 0 C2.31 0 4.62 0 7 0 C6.01 0.495 6.01 0.495 5 1 C4.34786708 3.02463255 4.34786708 3.02463255 4 5 C4 4.01 4 3.02 4 2 C2.35 2.33 0.7 2.66 -1 3 C-0.67 2.01 -0.34 1.02 0 0 Z " fill="white" transform="translate(37,157)"/>
<path d="M0 0 C2.64 0 5.28 0 8 0 C4.93882432 2.62386487 4.26826873 3 0 3 C0 2.01 0 1.02 0 0 Z " fill="white" transform="translate(119,135)"/>
<path d="M0 0 C2 1 2 1 3 3 C1.03533587 4.06775224 -0.96855359 5.06553465 -3 6 C-3.66 5.67 -4.32 5.34 -5 5 C-3.35 3.35 -1.7 1.7 0 0 Z " fill="white" transform="translate(107,114)"/>
<path d="M0 0 C0.66 0.33 1.32 0.66 2 1 C2 1.99 2 2.98 2 4 C-1.465 5.485 -1.465 5.485 -5 7 C-3.70700306 4.11562221 -2.34058637 2.12780579 0 0 Z " fill="white" transform="translate(27,114)"/>
<path d="M0 0 C2.64 0 5.28 0 8 0 C6.75 1.5 6.75 1.5 5 3 C3.68 3 2.36 3 1 3 C0.67 2.01 0.34 1.02 0 0 Z " fill="white" transform="translate(73,47)"/>
<path d="M0 0 C2 1 2 1 3 3 C-0.465 4.485 -0.465 4.485 -4 6 C-2.84826645 3.53199953 -1.95216435 1.95216435 0 0 Z " fill="white" transform="translate(147,203)"/>
</svg>
