<?xml version="1.0" encoding="UTF-8"?>
<svg version="1.1" xmlns="http://www.w3.org/2000/svg" width="787" height="787">
<path d="M0 0 C0.66 0 1.32 0 2 0 C2.04655062 10.72770178 2.08198389 21.45537913 2.10362434 32.18316174 C2.11401602 37.1656828 2.12808988 42.14813423 2.15087891 47.13061523 C2.17277319 51.94818611 2.18460325 56.76569044 2.18975449 61.58330727 C2.1934207 63.4118994 2.20057895 65.24048831 2.21146011 67.06905174 C2.31874495 85.86308594 1.16735806 103.66866355 -11 119 C-25.32352816 133.13094291 -42.56174541 136.14231443 -61.85131836 136.15771484 C-63.25494544 136.16238975 -64.65857103 136.16753442 -66.06219482 136.17311096 C-69.07628676 136.18435016 -72.09036905 136.19280465 -75.10447502 136.19923019 C-79.88556904 136.20997229 -84.66659384 136.23023595 -89.44764709 136.25234985 C-103.04066773 136.31405776 -116.63368426 136.36815021 -130.22680664 136.40136719 C-137.74110443 136.41980942 -145.25528586 136.44886627 -152.76949793 136.4893719 C-156.73598353 136.51028615 -160.7023235 136.52587672 -164.66886711 136.52817917 C-168.40941708 136.53035306 -172.14966419 136.54649554 -175.89012146 136.57256889 C-177.88843622 136.58299673 -179.88681057 136.57905303 -181.88514709 136.5743866 C-213.9997098 136.86356389 -242.60386325 150.96838888 -264.96801758 173.47973633 C-270.93567753 179.72889758 -275.68200266 186.53385922 -280 194 C-280.54479004 194.93900146 -280.54479004 194.93900146 -281.10058594 195.89697266 C-296.15831246 222.46261777 -300.01121325 253.81946526 -292.39794922 283.33398438 C-283.52451583 314.73330973 -263.83205467 339.97628895 -235.59130859 356.23461914 C-208.48542792 371.18202801 -175.69509165 374.47967059 -146 366 C-117.87617164 357.69854224 -91.8871344 338.31095148 -77.61035156 312.48632812 C-62.07731313 282.64798613 -57.15939784 250.57350091 -67.35205078 217.96533203 C-73.04884713 200.68605148 -81.49155771 185.88898901 -94.23828125 172.8671875 C-96.99121792 170.00911746 -99.47613743 167.0589225 -102 164 C-101.19392807 163.99413376 -100.38785614 163.98826752 -99.55735779 163.98222351 C-91.8947208 163.92389216 -84.23239412 163.85159147 -76.57003689 163.76428509 C-72.63240614 163.71989324 -68.69487148 163.68057234 -64.75708008 163.65356445 C-60.94430012 163.62721528 -57.13189641 163.58660102 -53.3193531 163.53681374 C-51.8776429 163.5203554 -50.43586795 163.5087122 -48.99407768 163.50238609 C-28.8379294 163.40515648 -10.08526909 159.31970222 5.1875 145.375 C13.76411882 136.33800602 16.45281796 124.80693792 19 113 C23.81318799 114.604396 25.368403 118.7977399 27.9375 123 C28.79432373 124.39677979 28.79432373 124.39677979 29.66845703 125.82177734 C64.88468063 184.45082489 72.98530609 252.41803385 56.69140625 318.41015625 C44.00775597 367.10950594 13.22885398 414.42827832 -27 445 C-27.54027832 445.41668945 -28.08055664 445.83337891 -28.63720703 446.26269531 C-71.75888118 479.41089563 -124.14513021 497.5553854 -178.5625 497.3125 C-179.43673615 497.31034485 -180.31097229 497.3081897 -181.21170044 497.30596924 C-249.58842495 497.03648436 -309.88539827 468.50219084 -357.71289062 420.46801758 C-362.49685854 415.57981183 -366.8496466 410.43932495 -371 405 C-371.72872314 404.04528809 -371.72872314 404.04528809 -372.47216797 403.07128906 C-412.69567447 349.95991853 -429.70660004 284.47095513 -420.96484375 218.4140625 C-414.66662866 175.009026 -397.07955747 135.33220092 -370 101 C-369.5663916 100.44779785 -369.1327832 99.8955957 -368.68603516 99.32666016 C-357.48588405 85.21039067 -344.44875264 71.78840197 -330 61 C-329.38286133 60.52820313 -328.76572266 60.05640625 -328.12988281 59.5703125 C-293.85784415 33.43971119 -254.27575823 17.26674133 -211.625 11.1875 C-210.84358643 11.0755127 -210.06217285 10.96352539 -209.25708008 10.84814453 C-190.02307527 8.40802416 -170.48169882 8.84181542 -151.13116264 8.80076981 C-146.14657649 8.78989515 -141.1620536 8.76960788 -136.17750549 8.74765015 C-122.01948943 8.68635391 -107.86148158 8.6317588 -93.70336914 8.59863281 C-85.84762073 8.58017468 -77.99198338 8.55111617 -70.13631684 8.5106281 C-66.00169755 8.4897751 -61.86721664 8.47413191 -57.73254204 8.47182083 C-28.41823186 8.55828208 -28.41823186 8.55828208 0 2 C0 1.34 0 0.68 0 0 Z " fill="white" transform="translate(573,87)"/>
<path d="M0 0 C1.5631897 0.00785522 1.5631897 0.00785522 3.15795898 0.01586914 C4.28266602 0.0190918 5.40737305 0.02231445 6.56616211 0.02563477 C7.75016602 0.03401367 8.93416992 0.04239258 10.15405273 0.05102539 C11.34192383 0.05553711 12.52979492 0.06004883 13.75366211 0.06469727 C16.69967499 0.07652864 19.64558954 0.09301252 22.59155273 0.11352539 C24.56747765 5.47166414 25.63989412 10.89954773 26.71655273 16.48852539 C27.64467773 21.25290039 27.64467773 21.25290039 28.59155273 26.11352539 C30.24155273 17.53352539 31.89155273 8.95352539 33.59155273 0.11352539 C42.17155273 0.11352539 50.75155273 0.11352539 59.59155273 0.11352539 C60.81667236 7.46424315 61.99743396 14.74203723 62.88061523 22.12915039 C62.98876556 23.02865417 63.09691589 23.92815796 63.20834351 24.85491943 C63.43342471 26.74024256 63.65685194 28.62576385 63.87866211 30.51147461 C64.21433384 33.34479629 64.56299776 36.17633373 64.91186523 39.00805664 C66.20508724 49.8021119 66.83460201 60.24026837 66.59155273 71.11352539 C59.33155273 71.11352539 52.07155273 71.11352539 44.59155273 71.11352539 C44.26155273 61.21352539 43.93155273 51.31352539 43.59155273 41.11352539 C41.94155273 51.01352539 40.29155273 60.91352539 38.59155273 71.11352539 C31.99155273 71.11352539 25.39155273 71.11352539 18.59155273 71.11352539 C18.13780273 68.72102539 17.68405273 66.32852539 17.21655273 63.86352539 C17.07813965 63.13746094 16.93972656 62.41139648 16.79711914 61.66333008 C15.63363031 55.49122246 14.6250209 49.3143344 13.59155273 43.11352539 C13.26155273 52.35352539 12.93155273 61.59352539 12.59155273 71.11352539 C5.00155273 71.11352539 -2.58844727 71.11352539 -10.40844727 71.11352539 C-10.40844727 59.86137782 -10.40844727 59.86137782 -9.78173828 54.48632812 C-9.64482071 53.28906601 -9.50790314 52.09180389 -9.36683655 50.85826111 C-9.14186745 48.97174583 -9.14186745 48.97174583 -8.91235352 47.04711914 C-8.75743035 45.71863624 -8.60289112 44.39010852 -8.44871521 43.0615387 C-8.12701433 40.30034793 -7.80135311 37.53966334 -7.47265625 34.77929688 C-7.05095398 31.2358692 -6.63841669 27.69144488 -6.22863865 24.14662075 C-5.83597273 20.75876247 -5.43644866 17.37172621 -5.03735352 13.98461914 C-4.88939835 12.70872421 -4.74144318 11.43282928 -4.58900452 10.11827087 C-4.44893478 8.9493782 -4.30886505 7.78048553 -4.16455078 6.57617188 C-4.04241714 5.54266098 -3.92028351 4.50915009 -3.79444885 3.44432068 C-3.27302435 0.29580055 -3.2100349 0.1513093 0 0 Z " fill="white" transform="translate(478.408447265625,627.886474609375)"/>
<path d="M0 0 C0.93549683 -0.00241196 1.87099365 -0.00482391 2.83483887 -0.00730896 C4.80839283 -0.00633153 6.78197455 0.00703735 8.75537109 0.03198242 C11.77145787 0.06629485 14.78461412 0.05263529 17.80078125 0.03320312 C19.7213666 0.04010184 21.64194441 0.04977445 23.5625 0.0625 C24.91112122 0.0550602 24.91112122 0.0550602 26.2869873 0.04747009 C30.42600345 0.12509763 32.72170314 0.28932878 36.32617188 2.47680664 C39.40230793 5.86293793 39.41199367 8.71014632 39.44238281 13.10668945 C39.45199036 14.22827957 39.4615979 15.34986969 39.47149658 16.50544739 C39.47574646 17.71794662 39.47999634 18.93044586 39.484375 20.1796875 C39.49007507 21.42638718 39.49577515 22.67308685 39.50164795 23.95756531 C39.51110166 26.59796804 39.51799653 29.23825701 39.52148438 31.87866211 C39.52587437 34.58192406 39.53978566 37.28486778 39.5625 39.98803711 C39.59296079 43.88535258 39.60353257 47.78226625 39.609375 51.6796875 C39.6217218 52.88611404 39.6340686 54.09254059 39.64678955 55.33552551 C39.61864591 65.94223144 39.61864591 65.94223144 36.28125 70.62890625 C33.96066728 71.78919761 32.57146226 71.77340938 29.98681641 71.8059082 C29.0989444 71.81874344 28.21107239 71.83157867 27.29629517 71.84480286 C26.33484589 71.85218979 25.37339661 71.85957672 24.3828125 71.8671875 C23.39630707 71.87525925 22.40980164 71.88333099 21.3934021 71.89164734 C19.30362712 71.90549163 17.21382949 71.91621223 15.12402344 71.92407227 C11.92599784 71.94129987 8.72900195 71.98518485 5.53125 72.02929688 C3.50261178 72.03942234 1.47396476 72.0479389 -0.5546875 72.0546875 C-1.99078873 72.08094963 -1.99078873 72.08094963 -3.4559021 72.10774231 C-4.7971666 72.10335396 -4.7971666 72.10335396 -6.16552734 72.09887695 C-6.95003265 72.10474319 -7.73453796 72.11060944 -8.54281616 72.11665344 C-11.66922556 71.41585208 -12.82003296 70.18015558 -14.71875 67.62890625 C-15.2334137 64.82777405 -15.2334137 64.82777405 -15.25219727 61.56274414 C-15.2680336 60.3378981 -15.28386993 59.11305206 -15.30018616 57.85108948 C-15.29522629 56.53124557 -15.29026642 55.21140167 -15.28515625 53.8515625 C-15.29039331 52.47919798 -15.29667009 51.10683707 -15.30393982 49.73448181 C-15.31434021 46.86033168 -15.30978914 43.98667674 -15.29516602 41.11254883 C-15.2779868 37.43568738 -15.30146133 33.76038993 -15.33665562 30.08370304 C-15.35865639 27.24997167 -15.35718182 24.41661294 -15.3488903 21.5828228 C-15.34767517 19.57039689 -15.36758722 17.557994 -15.38783264 15.54566956 C-15.29679018 6.62530054 -15.29679018 6.62530054 -12.78686523 2.29882812 C-8.45884424 -0.05683859 -4.86017001 -0.07167003 0 0 Z M8.28125 19.62890625 C8.28125 30.84890625 8.28125 42.06890625 8.28125 53.62890625 C10.59125 53.62890625 12.90125 53.62890625 15.28125 53.62890625 C15.28125 42.40890625 15.28125 31.18890625 15.28125 19.62890625 C12.97125 19.62890625 10.66125 19.62890625 8.28125 19.62890625 Z " fill="white" transform="translate(197.71875,627.37109375)"/>
<path d="M0 0 C0.84452728 -0.0159874 1.68905457 -0.03197479 2.55917358 -0.04844666 C3.92327866 -0.05649071 3.92327866 -0.05649071 5.31494141 -0.06469727 C6.72243149 -0.07823997 6.72243149 -0.07823997 8.15835571 -0.09205627 C10.14378668 -0.10656541 12.12926554 -0.11544716 14.11474609 -0.11914062 C17.14844586 -0.13103273 20.18010878 -0.18020766 23.21337891 -0.23071289 C25.14305648 -0.24017769 27.07274655 -0.24741245 29.00244141 -0.25219727 C29.90779633 -0.27172958 30.81315125 -0.2912619 31.74594116 -0.31138611 C35.78817761 -0.28251128 38.268543 0.02291303 41.86401367 1.97192383 C45.02552973 7.44120645 44.48279781 13.01543811 44.42041016 19.21655273 C44.42123939 20.58988126 44.42370085 21.96320969 44.42771912 23.33653259 C44.43057232 26.20903542 44.41592286 29.08075643 44.38842773 31.953125 C44.35431167 35.63104015 44.3603773 39.30756092 44.37909031 42.98554325 C44.38966826 45.81924523 44.38071619 48.65262378 44.36570549 51.4862957 C44.35801958 53.50037715 44.3653713 55.51449782 44.37294006 57.52857971 C44.34918556 59.36584877 44.34918556 59.36584877 44.32495117 61.24023438 C44.31875259 62.31769424 44.31255402 63.39515411 44.3061676 64.50526428 C43.66006616 68.02176559 42.65129304 69.20443488 39.79150391 71.30639648 C37.62902832 71.81433105 37.62902832 71.81433105 35.27001953 71.82397461 C34.38229858 71.83658325 33.49457764 71.84919189 32.57995605 71.86218262 C31.62882935 71.85408569 30.67770264 71.84598877 29.69775391 71.83764648 C28.71407837 71.84147339 27.73040283 71.84530029 26.71691895 71.84924316 C24.63906835 71.85196276 22.56118356 71.8445983 20.48339844 71.82788086 C17.30277179 71.80647233 14.12440404 71.82768137 10.94384766 71.85327148 C8.92431142 71.85062822 6.90477659 71.84550326 4.88525391 71.83764648 C3.9341272 71.84574341 2.98300049 71.85384033 2.00305176 71.86218262 C-4.56491311 71.76889528 -4.56491311 71.76889528 -7.77685547 69.46069336 C-10.15305853 65.88504264 -10.3407774 62.99957384 -10.36962891 58.81274414 C-10.37923645 57.68792633 -10.38884399 56.56310852 -10.39874268 55.40420532 C-10.40299255 54.18856903 -10.40724243 52.97293274 -10.41162109 51.72045898 C-10.41732117 50.47138763 -10.42302124 49.22231628 -10.42889404 47.93539429 C-10.43834707 45.29079545 -10.44524247 42.64631018 -10.44873047 40.00170898 C-10.45421309 36.62004563 -10.47824065 33.23878534 -10.50670242 29.85724831 C-10.52985301 26.62418252 -10.53177994 23.39109605 -10.53662109 20.15795898 C-10.5489679 18.94637115 -10.5613147 17.73478333 -10.57403564 16.48648071 C-10.57103455 15.35535858 -10.56803345 14.22423645 -10.56494141 13.05883789 C-10.56858704 12.06639069 -10.57223267 11.07394348 -10.57598877 10.05142212 C-10.13932158 6.78969011 -9.14887698 4.94621204 -7.20849609 2.30639648 C-4.14354232 0.26309397 -3.46497934 0.04967569 0 0 Z M12.79150391 19.30639648 C12.79150391 30.52639648 12.79150391 41.74639648 12.79150391 53.30639648 C15.43150391 53.30639648 18.07150391 53.30639648 20.79150391 53.30639648 C20.79150391 42.08639648 20.79150391 30.86639648 20.79150391 19.30639648 C18.15150391 19.30639648 15.51150391 19.30639648 12.79150391 19.30639648 Z " fill="white" transform="translate(561.20849609375,627.693603515625)"/>
<path d="M0 0 C7.59 0 15.18 0 23 0 C23 8.58 23 17.16 23 26 C25.64 26 28.28 26 31 26 C31 17.42 31 8.84 31 0 C38.26 0 45.52 0 53 0 C53 23.43 53 46.86 53 71 C45.74 71 38.48 71 31 71 C31 62.09 31 53.18 31 44 C28.36 44 25.72 44 23 44 C23 52.91 23 61.82 23 71 C15.41 71 7.82 71 0 71 C0 47.57 0 24.14 0 0 Z " fill="white" transform="translate(245,628)"/>
<path d="M0 0 C12.54 0 25.08 0 38 0 C41.49927907 18.66282173 41.49927907 18.66282173 42.82421875 26.80078125 C42.97534622 27.72867966 43.12647369 28.65657806 43.28218079 29.6125946 C43.59504195 31.54206601 43.9066647 33.47173864 44.21704102 35.40161133 C44.53222764 37.35177745 44.85127664 39.30132303 45.17407227 41.25024414 C45.64928041 44.11994537 46.11296412 46.99130811 46.57421875 49.86328125 C46.71792404 50.71876053 46.86162933 51.57423981 47.00968933 52.4556427 C48.01675437 58.85053877 48 64.34327357 48 71 C40.41 71 32.82 71 25 71 C23.71553081 68.43106162 23.67022856 66.23423663 23.4375 63.375 C23.35371094 62.37210938 23.26992188 61.36921875 23.18359375 60.3359375 C23.12300781 59.56507813 23.06242187 58.79421875 23 58 C20.36 57.67 17.72 57.34 15 57 C14.90912109 58.39025391 14.90912109 58.39025391 14.81640625 59.80859375 C14.73261719 61.00613281 14.64882813 62.20367188 14.5625 63.4375 C14.48128906 64.63246094 14.40007812 65.82742188 14.31640625 67.05859375 C14 70 14 70 13 71 C11.29227642 71.08713831 9.58101351 71.10700007 7.87109375 71.09765625 C6.31938477 71.09282227 6.31938477 71.09282227 4.73632812 71.08789062 C3.64771484 71.07951172 2.55910156 71.07113281 1.4375 71.0625 C-0.2012207 71.05573242 -0.2012207 71.05573242 -1.87304688 71.04882812 C-4.58208759 71.03699825 -7.29100822 71.01967721 -10 71 C-10.3793521 62.69294172 -9.20639015 54.85351838 -7.8125 46.6796875 C-7.58759489 45.3264614 -7.3634049 43.97311627 -7.13989258 42.61965942 C-6.5551531 39.09058185 -5.96083647 35.56318525 -5.36437988 32.03607178 C-4.75525596 28.42346697 -4.15529598 24.80934108 -3.5546875 21.1953125 C-2.37958764 14.12850505 -1.18944713 7.06446635 0 0 Z M18 19 C17.34 25.6 16.68 32.2 16 39 C17.98 39 19.96 39 22 39 C21.34 32.4 20.68 25.8 20 19 C19.34 19 18.68 19 18 19 Z " fill="white" transform="translate(355,628)"/>
<path d="M0 0 C12.54 0 25.08 0 38 0 C39.2930026 7.69900954 40.57833709 15.39855789 41.84521484 23.10180664 C42.27609185 25.7164375 42.71383522 28.32964507 43.15478516 30.94262695 C47.65891552 57.66611241 47.65891552 57.66611241 47 71 C39.41 71 31.82 71 24 71 C23.67 66.38 23.34 61.76 23 57 C20.03 57 17.06 57 14 57 C14.020625 58.19625 14.04125 59.3925 14.0625 60.625 C14.1262779 64.32411807 13.63357302 67.19856185 13 71 C5.41 71 -2.18 71 -10 71 C-10.19379176 61.9246732 -9.57038214 53.49078482 -8.06640625 44.55078125 C-7.86901352 43.3309404 -7.67162079 42.11109955 -7.46824646 40.85429382 C-7.05352721 38.30320219 -6.63396313 35.75289373 -6.2097168 33.20336914 C-5.55814008 29.28628947 -4.92140326 25.36717738 -4.28710938 21.44726562 C-3.88105584 18.96079895 -3.47418467 16.47446563 -3.06640625 13.98828125 C-2.87470352 12.81445389 -2.68300079 11.64062653 -2.48548889 10.43122864 C-2.21532204 8.81265205 -2.21532204 8.81265205 -1.93969727 7.16137695 C-1.78203384 6.21019485 -1.62437042 5.25901276 -1.46192932 4.27900696 C-1 2 -1 2 0 0 Z M18 19 C17.66131223 21.20751848 17.32928311 23.41605911 17 25.625 C16.814375 26.85476563 16.62875 28.08453125 16.4375 29.3515625 C16.04597484 32.6166027 15.91919076 35.71712451 16 39 C17.65 39 19.3 39 21 39 C20.88641524 36.04081802 20.75966914 33.08323217 20.625 30.125 C20.5940625 29.28324219 20.563125 28.44148437 20.53125 27.57421875 C20.49257813 26.76855469 20.45390625 25.96289062 20.4140625 25.1328125 C20.3826416 24.38918457 20.3512207 23.64555664 20.31884766 22.87939453 C20.14580449 20.75989026 20.14580449 20.75989026 18 19 Z " fill="white" transform="translate(417,628)"/>
<path d="M0 0 C7.59 0 15.18 0 23 0 C23.09037863 8.66661515 23.16376014 17.3329172 23.20724869 25.999897 C23.22812133 30.02436077 23.25643235 34.04848535 23.30175781 38.07275391 C23.3452282 41.95663536 23.36913954 45.84019062 23.37950897 49.72429657 C23.38689831 51.20590093 23.40132818 52.68748749 23.42292023 54.16895294 C23.45197212 56.24486321 23.45595556 58.31942687 23.45410156 60.39550781 C23.46298401 61.57687317 23.47186646 62.75823853 23.48101807 63.97540283 C22.89850579 67.63818621 21.94888217 68.81242892 19 71 C15.70019531 71.45410156 15.70019531 71.45410156 11.828125 71.390625 C11.1457074 71.38496521 10.46328979 71.37930542 9.76019287 71.37347412 C7.58940238 71.35115636 5.42028794 71.30097508 3.25 71.25 C1.7747635 71.22992876 0.29950101 71.21167907 -1.17578125 71.1953125 C-4.78501272 71.15471372 -8.39064007 71.0764335 -12 71 C-12 65.06 -12 59.12 -12 53 C-8.04 53 -4.08 53 0 53 C0 35.51 0 18.02 0 0 Z " fill="white" transform="translate(316,628)"/>
</svg>
