<?xml version="1.0" encoding="UTF-8"?>
<svg version="1.1" xmlns="http://www.w3.org/2000/svg" width="225" height="196">
<path d="M0 0 C10.58338232 0 17.88946464 0.96472001 26.02734375 7.96875 C35.21183847 17.42605149 36.05830368 33.5105684 36.07421875 46.17578125 C36.03748047 47.57376953 36.03748047 47.57376953 36 49 C35.071875 48.0409375 35.071875 48.0409375 34.125 47.0625 C33.08785446 46.03707362 32.04526865 45.01714483 31 44 C30.26007813 43.27554688 29.52015625 42.55109375 28.7578125 41.8046875 C19.5544477 33.11739923 12.71682629 31.17920657 0 28 C0 18.76 0 9.52 0 0 Z " fill="white" transform="translate(74,64)"/>
<path d="M0 0 C0 9.24 0 18.48 0 28 C-2.145 28.5775 -4.29 29.155 -6.5 29.75 C-19.24331125 33.36899503 -26.70737295 39.62211949 -36 49 C-34.27503338 16.58878505 -34.27503338 16.58878505 -26.28125 8.1953125 C-18.2819463 1.60572216 -10.19928552 0 0 0 Z " fill="white" transform="translate(150,64)"/>
<path d="M0 0 C0 5.94 0 11.88 0 18 C-1.835625 18.721875 -3.67125 19.44375 -5.5625 20.1875 C-14.23588198 23.84642377 -18.89717732 27.11221845 -23.8359375 35.20703125 C-24.22007813 35.79871094 -24.60421875 36.39039063 -25 37 C-25.33 37 -25.66 37 -26 37 C-26.58578486 26.84639575 -24.4490227 16.16560651 -17.57421875 8.38671875 C-13.25383884 4.23131754 -6.18912042 0 0 0 Z " fill="white" transform="translate(141,39)"/>
<path d="M0 0 C9.12749505 2.28187376 16.81866878 5.74825029 22 14 C25.14590935 21.62387041 26.14126779 28.80646798 26 37 C23.75149462 34.87677791 22.04648238 32.67877348 20.3125 30.125 C15.04154784 23.04946078 8.25586502 20.45095993 0 18 C0 12.06 0 6.12 0 0 Z " fill="white" transform="translate(83,39)"/>
<path d="M0 0 C2.21189846 1.00784083 3.84361084 2.17395899 5.6875 3.7578125 C6.30109375 4.27085938 6.9146875 4.78390625 7.546875 5.3125 C8.9375 6.8828125 8.9375 6.8828125 8.9375 9.8828125 C8.195 10.5840625 7.4525 11.2853125 6.6875 12.0078125 C3.25506239 15.59627 1.72196401 19.30700815 -0.0625 23.8828125 C-0.7225 23.8828125 -1.3825 23.8828125 -2.0625 23.8828125 C-2.29324219 23.29113281 -2.52398437 22.69945313 -2.76171875 22.08984375 C-4.87381009 16.97240506 -6.98760681 13.73132273 -11.0625 9.8828125 C-11.0625 6.8828125 -11.0625 6.8828125 -9.234375 5.0234375 C-8.43515625 4.39953125 -7.6359375 3.775625 -6.8125 3.1328125 C-6.02359375 2.49859375 -5.2346875 1.864375 -4.421875 1.2109375 C-2.0625 -0.1171875 -2.0625 -0.1171875 0 0 Z " fill="white" transform="translate(113.0625,29.1171875)"/>
<path d="M0 0 C4.29425875 1.07356469 4.74740471 1.5084773 7 5 C7.33 3.35 7.66 1.7 8 0 C8.99 0 9.98 0 11 0 C11 4.29 11 8.58 11 13 C6.70574125 11.92643531 6.25259529 11.4915227 4 8 C3.67 9.65 3.34 11.3 3 13 C2.01 13 1.02 13 0 13 C0 8.71 0 4.42 0 0 Z " fill="white" transform="translate(169,147)"/>
<path d="M0 0 C4.29425875 1.07356469 4.74740471 1.5084773 7 5 C7.33 3.35 7.66 1.7 8 0 C8.99 0 9.98 0 11 0 C11 4.29 11 8.58 11 13 C6.70574125 11.92643531 6.25259529 11.4915227 4 8 C3.67 9.65 3.34 11.3 3 13 C2.01 13 1.02 13 0 13 C0 8.71 0 4.42 0 0 Z " fill="white" transform="translate(132,147)"/>
<path d="M0 0 C4.29425875 1.07356469 4.74740471 1.5084773 7 5 C7.33 3.35 7.66 1.7 8 0 C8.99 0 9.98 0 11 0 C11 4.29 11 8.58 11 13 C7 12 7 12 5.25 9.4375 C4.8375 8.633125 4.425 7.82875 4 7 C3.67 8.98 3.34 10.96 3 13 C2.01 13 1.02 13 0 13 C0 8.71 0 4.42 0 0 Z " fill="white" transform="translate(96,147)"/>
<path d="M0 0 C3.0625 0.1875 3.0625 0.1875 5.0625 2.1875 C5.4765625 4.7890625 5.4765625 4.7890625 5.6875 7.8125 C5.76226562 8.81539062 5.83703125 9.81828125 5.9140625 10.8515625 C5.98753906 12.00785156 5.98753906 12.00785156 6.0625 13.1875 C4.125 12.875 4.125 12.875 2.0625 12.1875 C1.7325 11.1975 1.4025 10.2075 1.0625 9.1875 C0.4025 8.8575 -0.2575 8.5275 -0.9375 8.1875 C-0.9375 9.8375 -0.9375 11.4875 -0.9375 13.1875 C-1.9275 13.1875 -2.9175 13.1875 -3.9375 13.1875 C-3.96436553 11.20840602 -3.98383375 9.22921029 -4 7.25 C-4.01160156 6.14785156 -4.02320312 5.04570312 -4.03515625 3.91015625 C-3.89929432 0.12232574 -3.80732768 0.24302092 0 0 Z M-0.9375 3.1875 C-0.9375 4.1775 -0.9375 5.1675 -0.9375 6.1875 C0.0525 5.8575 1.0425 5.5275 2.0625 5.1875 C2.0625 4.5275 2.0625 3.8675 2.0625 3.1875 C1.0725 3.1875 0.0825 3.1875 -0.9375 3.1875 Z " fill="white" transform="translate(87.9375,146.8125)"/>
<path d="M0 0 C2.19909502 5.25339367 2.19909502 5.25339367 1.25 8.8125 C0 11 0 11 -2 12 C-7.21653972 12.44396083 -7.21653972 12.44396083 -9.875 10.9375 C-11.66235303 7.85928089 -11.43386742 5.47093932 -11 2 C-7.86386149 -2.0142573 -4.61083486 -0.97536891 0 0 Z M-6 1 C-8.28728734 2.83883881 -8.28728734 2.83883881 -8.125 5.625 C-8.08375 6.40875 -8.0425 7.1925 -8 8 C-6.02 8.99 -6.02 8.99 -4 10 C-2.33378575 8.8354799 -2.33378575 8.8354799 -1 7 C-1.23043864 4.34533951 -1.23043864 4.34533951 -2 2 C-3.89179203 1.3185177 -3.89179203 1.3185177 -6 1 Z " fill="white" transform="translate(166,128)"/>
<path d="M0 0 C0.99 0 1.98 0 3 0 C5.1875 3 5.1875 3 7 6 C7.33 4.02 7.66 2.04 8 0 C8.66 0 9.32 0 10 0 C10 4.29 10 8.58 10 13 C9.01 13 8.02 13 7 13 C4.8125 10 4.8125 10 3 7 C2.67 8.98 2.34 10.96 2 13 C1.34 13 0.68 13 0 13 C0 8.71 0 4.42 0 0 Z " fill="white" transform="translate(60,127)"/>
<path d="M0 0 C6.8359375 0.48828125 6.8359375 0.48828125 9 1 C11 4 11 4 10.8125 7.5625 C10 11 10 11 7 13 C4.66800612 13.07905064 2.33167378 13.08798769 0 13 C0 8.71 0 4.42 0 0 Z M3 2 C1.79438816 2.98267859 1.79438816 2.98267859 1.90234375 4.84765625 C1.91394531 5.57855469 1.92554688 6.30945313 1.9375 7.0625 C1.958125 8.361875 1.97875 9.66125 2 11 C5.29075996 10.62095792 5.29075996 10.62095792 8 9 C8.04063832 7.33382885 8.042721 5.66611905 8 4 C5.525 3.01 5.525 3.01 3 2 Z " fill="white" transform="translate(184,147)"/>
<path d="M0 0 C1.32 0 2.64 0 4 0 C4.67057887 1.7902061 5.3363469 3.58221489 6 5.375 C6.556875 6.87160156 6.556875 6.87160156 7.125 8.3984375 C8 11 8 11 8 13 C7.01 13 6.02 13 5 13 C4.67 11.68 4.34 10.36 4 9 C2.68 9 1.36 9 0 9 C-0.33 10.32 -0.66 11.64 -1 13 C-1.99 13 -2.98 13 -4 13 C-3.52140759 11.39566191 -3.04210442 9.79153584 -2.5625 8.1875 C-2.29566406 7.29417969 -2.02882812 6.40085938 -1.75390625 5.48046875 C-1.19612127 3.64526945 -0.60655425 1.81966274 0 0 Z " fill="white" transform="translate(159,147)"/>
<path d="M0 0 C1.859375 0.12109375 1.859375 0.12109375 4 1 C5.265625 3.72265625 5.265625 3.72265625 6.25 7.0625 C6.58515625 8.16722656 6.9203125 9.27195313 7.265625 10.41015625 C7.50796875 11.26480469 7.7503125 12.11945313 8 13 C6.68 12.67 5.36 12.34 4 12 C4 11.01 4 10.02 4 9 C2.68 9 1.36 9 0 9 C-0.33 10.32 -0.66 11.64 -1 13 C-1.99 13 -2.98 13 -4 13 C-3.52140759 11.39566191 -3.04210442 9.79153584 -2.5625 8.1875 C-2.29566406 7.29417969 -2.02882812 6.40085938 -1.75390625 5.48046875 C-1.19612127 3.64526945 -0.60655425 1.81966274 0 0 Z M1 5 C1 5.66 1 6.32 1 7 C1.66 6.67 2.32 6.34 3 6 C2.34 5.67 1.68 5.34 1 5 Z " fill="white" transform="translate(43,147)"/>
<path d="M0 0 C2.64 0 5.28 0 8 0 C8 0.99 8 1.98 8 3 C6.35 3 4.7 3 3 3 C3 3.66 3 4.32 3 5 C4.65 5 6.3 5 8 5 C8 5.66 8 6.32 8 7 C6.35 7 4.7 7 3 7 C3 8.32 3 9.64 3 11 C4.65 11 6.3 11 8 11 C8 11.66 8 12.32 8 13 C5.36 13 2.72 13 0 13 C0 8.71 0 4.42 0 0 Z " fill="white" transform="translate(73,147)"/>
<path d="M0 0 C2.64 0 5.28 0 8 0 C8 0.99 8 1.98 8 3 C6.35 3 4.7 3 3 3 C3 3.66 3 4.32 3 5 C4.65 5 6.3 5 8 5 C8 5.66 8 6.32 8 7 C6.35 7 4.7 7 3 7 C3 8.32 3 9.64 3 11 C4.65 11 6.3 11 8 11 C8 11.66 8 12.32 8 13 C5.36 13 2.72 13 0 13 C0 8.71 0 4.42 0 0 Z " fill="white" transform="translate(29,147)"/>
<path d="M0 0 C6 0 6 0 8 1 C7.979375 2.051875 7.95875 3.10375 7.9375 4.1875 C7.98896802 7.32704904 8.26517187 9.96883396 9 13 C8.01 13 7.02 13 6 13 C5.67 11.35 5.34 9.7 5 8 C4.01 8 3.02 8 2 8 C2 9.65 2 11.3 2 13 C1.34 13 0.68 13 0 13 C0 8.71 0 4.42 0 0 Z M2 2 C2 3.32 2 4.64 2 6 C3.32 5.34 4.64 4.68 6 4 C4.68 3.34 3.36 2.68 2 2 Z " fill="white" transform="translate(103,127)"/>
<path d="M0 0 C0.99 0 1.98 0 3 0 C3.33 3.3 3.66 6.6 4 10 C4.99 9.67 5.98 9.34 7 9 C7.33 6.03 7.66 3.06 8 0 C8.66 0 9.32 0 10 0 C10.05391993 1.79133978 10.09275571 3.58313899 10.125 5.375 C10.14820313 6.37273437 10.17140625 7.37046875 10.1953125 8.3984375 C10 11 10 11 8 13 C5 13.3125 5 13.3125 2 13 C-0.20914 9.68629 -0.22481553 8.6553979 -0.125 4.8125 C-0.10695312 3.91144531 -0.08890625 3.01039063 -0.0703125 2.08203125 C-0.04710937 1.39496094 -0.02390625 0.70789063 0 0 Z " fill="white" transform="translate(46,127)"/>
<path d="M0 0 C0 0.99 0 1.98 0 3 C-1.32 3.33 -2.64 3.66 -4 4 C-3.360625 4.226875 -2.72125 4.45375 -2.0625 4.6875 C0 6 0 6 0.875 8.5 C0.91625 9.325 0.9575 10.15 1 11 C-1 13 -1 13 -4.625 13.125 C-5.73875 13.08375 -6.8525 13.0425 -8 13 C-8 12.01 -8 11.02 -8 10 C-6.35 10 -4.7 10 -3 10 C-3.845625 9.2575 -4.69125 8.515 -5.5625 7.75 C-8 5 -8 5 -7.9375 2.75 C-6.11616522 -0.64982492 -3.4920724 -0.09189664 0 0 Z " fill="white" transform="translate(60,147)"/>
<path d="M0 0 C1.32 0.33 2.64 0.66 4 1 C4.33 2.98 4.66 4.96 5 7 C5.66 7 6.32 7 7 7 C7.66 4.69 8.32 2.38 9 0 C9.99 0 10.98 0 12 0 C11.54803755 1.60597325 11.08817673 3.20972508 10.625 4.8125 C10.36976562 5.70582031 10.11453125 6.59914062 9.8515625 7.51953125 C9 10 9 10 7 13 C6.01 13 5.02 13 4 13 C2.68 8.71 1.36 4.42 0 0 Z " fill="white" transform="translate(78,127)"/>
<path d="M0 0 C2.64 0 5.28 0 8 0 C8 0.99 8 1.98 8 3 C6.35 3 4.7 3 3 3 C3 3.66 3 4.32 3 5 C4.65 5 6.3 5 8 5 C8 5.99 8 6.98 8 8 C6.35 8 4.7 8 3 8 C3 9.65 3 11.3 3 13 C2.01 13 1.02 13 0 13 C0 8.71 0 4.42 0 0 Z " fill="white" transform="translate(115,147)"/>
<path d="M0 0 C2.64 0 5.28 0 8 0 C8 0.99 8 1.98 8 3 C6.35 3 4.7 3 3 3 C3 3.66 3 4.32 3 5 C4.65 5 6.3 5 8 5 C8 5.99 8 6.98 8 8 C6.35 8 4.7 8 3 8 C3 9.65 3 11.3 3 13 C2.01 13 1.02 13 0 13 C0 8.71 0 4.42 0 0 Z " fill="white" transform="translate(170,127)"/>
<path d="M0 0 C0 0.99 0 1.98 0 3 C-0.99 3 -1.98 3 -3 3 C-3.33 3.66 -3.66 4.32 -4 5 C-3.0409375 5.2165625 -3.0409375 5.2165625 -2.0625 5.4375 C0 6 0 6 1 7 C1.04063832 8.66617115 1.042721 10.33388095 1 12 C-1.70879335 13.35439668 -4.00933268 13.06501451 -7 13 C-7 12.01 -7 11.02 -7 10 C-5.68 10 -4.36 10 -3 10 C-2.67 9.34 -2.34 8.68 -2 8 C-4.475 7.01 -4.475 7.01 -7 6 C-7 4.35 -7 2.7 -7 1 C-4.53721199 -0.231394 -2.7204945 -0.07159196 0 0 Z " fill="white" transform="translate(121,127)"/>
<path d="M0 0 C2.64 0 5.28 0 8 0 C8 0.99 8 1.98 8 3 C6.02 3 4.04 3 2 3 C2 3.66 2 4.32 2 5 C3.65 5 5.3 5 7 5 C7 5.66 7 6.32 7 7 C5.35 7 3.7 7 2 7 C2 8.32 2 9.64 2 11 C3.98 11 5.96 11 8 11 C8 11.66 8 12.32 8 13 C5.36 13 2.72 13 0 13 C0 8.71 0 4.42 0 0 Z " fill="white" transform="translate(92,127)"/>
<path d="M0 0 C3.63 0 7.26 0 11 0 C11 0.99 11 1.98 11 3 C9.68 3 8.36 3 7 3 C7 6.3 7 9.6 7 13 C6.01 13 5.02 13 4 13 C4 9.7 4 6.4 4 3 C2.68 3 1.36 3 0 3 C0 2.01 0 1.02 0 0 Z " fill="white" transform="translate(61,147)"/>
<path d="M0 0 C1.98 0.99 1.98 0.99 4 2 C4 2.66 4 3.32 4 4 C4.66 4 5.32 4 6 4 C6.33 2.68 6.66 1.36 7 0 C7.99 0 8.98 0 10 0 C9.38722388 2.96175123 8.74627478 4.38058783 7 7 C6.60986284 8.9896995 6.26797351 10.99019869 6 13 C5.01 13 4.02 13 3 13 C2.87625 11.906875 2.7525 10.81375 2.625 9.6875 C2.24535199 5.92618198 2.24535199 5.92618198 0 3 C0 2.01 0 1.02 0 0 Z " fill="white" transform="translate(141,127)"/>
<path d="M0 0 C3.3 0 6.6 0 10 0 C10 0.99 10 1.98 10 3 C8.68 3 7.36 3 6 3 C6 6.3 6 9.6 6 13 C5.01 13 4.02 13 3 13 C3 9.7 3 6.4 3 3 C2.01 3 1.02 3 0 3 C0 2.01 0 1.02 0 0 Z " fill="white" transform="translate(130,127)"/>
<path d="M0 0 C0.99 0 1.98 0 3 0 C3 3.63 3 7.26 3 11 C4.65 11 6.3 11 8 11 C8 11.66 8 12.32 8 13 C5.36 13 2.72 13 0 13 C0 8.71 0 4.42 0 0 Z " fill="white" transform="translate(146,147)"/>
<path d="M0 0 C3.0625 0.1875 3.0625 0.1875 5.0625 2.1875 C5.0625 3.5075 5.0625 4.8275 5.0625 6.1875 C4.4025 6.1875 3.7425 6.1875 3.0625 6.1875 C3.0625 5.1975 3.0625 4.2075 3.0625 3.1875 C1.7425 3.1875 0.4225 3.1875 -0.9375 3.1875 C-1.5975 6.1575 -2.2575 9.1275 -2.9375 12.1875 C-2.2775 12.5175 -1.6175 12.8475 -0.9375 13.1875 C-1.9275 13.1875 -2.9175 13.1875 -3.9375 13.1875 C-3.96436553 11.20840602 -3.98383375 9.22921029 -4 7.25 C-4.01160156 6.14785156 -4.02320312 5.04570312 -4.03515625 3.91015625 C-3.89929432 0.12232574 -3.80732768 0.24302092 0 0 Z " fill="white" transform="translate(87.9375,146.8125)"/>
<path d="M0 0 C3.32901247 2.21934164 3.75023244 3.34683329 5 7 C6.32 7 7.64 7 9 7 C9.33 6.34 9.66 5.68 10 5 C10.66 4.67 11.32 4.34 12 4 C11.625 6.4375 11.625 6.4375 11 9 C8.20129973 10.39935013 6.09501208 10.25265405 3 10 C1.125 8.9375 1.125 8.9375 0 7 C-0.1875 3.3125 -0.1875 3.3125 0 0 Z " fill="white" transform="translate(155,130)"/>
<path d="M0 0 C0.99 0 1.98 0 3 0 C3 4.29 3 8.58 3 13 C2.01 13 1.02 13 0 13 C0 8.71 0 4.42 0 0 Z " fill="white" transform="translate(125,127)"/>
<path d="M0 0 C0.99 0 1.98 0 3 0 C2.54965877 1.62723299 2.08944646 3.25173664 1.625 4.875 C1.36976562 5.77992188 1.11453125 6.68484375 0.8515625 7.6171875 C0 10 0 10 -2 12 C-2 11.34 -2 10.68 -2 10 C-2.66 10 -3.32 10 -4 10 C-4 9.01 -4 8.02 -4 7 C-3.34 7 -2.68 7 -2 7 C-1.34 4.69 -0.68 2.38 0 0 Z " fill="white" transform="translate(87,127)"/>
<path d="M0 0 C0 0.99 0 1.98 0 3 C-1.32 3.33 -2.64 3.66 -4 4 C-3.67 5.32 -3.34 6.64 -3 8 C-4.32 7.67 -5.64 7.34 -7 7 C-7.33 5.35 -7.66 3.7 -8 2 C-4.77208445 -0.1519437 -3.71599191 -0.20086443 0 0 Z " fill="white" transform="translate(60,147)"/>
<path d="M0 0 C0.66 0 1.32 0 2 0 C2.99 2.97 3.98 5.94 5 9 C3.68 8.67 2.36 8.34 1 8 C1 7.01 1 6.02 1 5 C-0.65 5 -2.3 5 -4 5 C-2.68 4.67 -1.36 4.34 0 4 C0 2.68 0 1.36 0 0 Z " fill="white" transform="translate(46,151)"/>
<path d="M0 0 C1.32 0 2.64 0 4 0 C3.67 2.64 3.34 5.28 3 8 C2.01 8 1.02 8 0 8 C-0.79953138 4.71303767 -1.09658936 3.28976808 0 0 Z " fill="white" transform="translate(159,147)"/>
<path d="M0 0 C0.33 1.32 0.66 2.64 1 4 C2.65 4 4.3 4 6 4 C5.67 4.99 5.34 5.98 5 7 C4.01 6.67 3.02 6.34 2 6 C2 7.65 2 9.3 2 11 C1.34 11 0.68 11 0 11 C0 7.37 0 3.74 0 0 Z " fill="white" transform="translate(103,129)"/>
<path d="M0 0 C0.66 0 1.32 0 2 0 C2 4.29 2 8.58 2 13 C1.34 13 0.68 13 0 13 C0 8.71 0 4.42 0 0 Z " fill="white" transform="translate(126,147)"/>
<path d="M0 0 C0.66 0 1.32 0 2 0 C2 4.29 2 8.58 2 13 C1.34 13 0.68 13 0 13 C0 8.71 0 4.42 0 0 Z " fill="white" transform="translate(74,127)"/>
<path d="M0 0 C0.66 0 1.32 0 2 0 C2 3.63 2 7.26 2 11 C1.01 11.495 1.01 11.495 0 12 C-0.66 11.34 -1.32 10.68 -2 10 C-1.67 9.67 -1.34 9.34 -1 9 C-0.76807135 7.48530552 -0.58784762 5.96245438 -0.4375 4.4375 C-0.35371094 3.61121094 -0.26992188 2.78492188 -0.18359375 1.93359375 C-0.12300781 1.29550781 -0.06242187 0.65742187 0 0 Z " fill="white" transform="translate(54,127)"/>
<path d="M0 0 C0 0.99 0 1.98 0 3 C-0.99 3 -1.98 3 -3 3 C-4.62514468 4.45833358 -4.62514468 4.45833358 -6 6 C-6.33 6 -6.66 6 -7 6 C-7 4.35 -7 2.7 -7 1 C-4.53721199 -0.231394 -2.7204945 -0.07159196 0 0 Z " fill="white" transform="translate(121,127)"/>
<path d="M0 0 C2.475 0.99 2.475 0.99 5 2 C4.01 2.66 3.02 3.32 2 4 C1.27617533 6.05925139 1.27617533 6.05925139 1 8 C0.01 8 -0.98 8 -2 8 C-1.34 5.36 -0.68 2.72 0 0 Z " fill="white" transform="translate(41,152)"/>
<path d="M0 0 C0.99 0 1.98 0 3 0 C3.33 1.98 3.66 3.96 4 6 C3.34 5.34 2.68 4.68 2 4 C1.67 6.31 1.34 8.62 1 11 C0.67 11 0.34 11 0 11 C0 7.37 0 3.74 0 0 Z " fill="white" transform="translate(170,148)"/>
<path d="M0 0 C0.99 0 1.98 0 3 0 C3.33 1.98 3.66 3.96 4 6 C3.34 5.34 2.68 4.68 2 4 C1.67 6.31 1.34 8.62 1 11 C0.67 11 0.34 11 0 11 C0 7.37 0 3.74 0 0 Z " fill="white" transform="translate(133,148)"/>
<path d="M0 0 C0.33 0.99 0.66 1.98 1 3 C2.65 3.33 4.3 3.66 6 4 C5.67 5.65 5.34 7.3 5 9 C4.34 8.67 3.68 8.34 3 8 C3.33 7.34 3.66 6.68 4 6 C2.68 5.67 1.36 5.34 0 5 C0 3.35 0 1.7 0 0 Z " fill="white" transform="translate(115,129)"/>
<path d="M0 0 C1.32 0.33 2.64 0.66 4 1 C3.67 1.99 3.34 2.98 3 4 C2.67 4 2.34 4 2 4 C1.67 6.31 1.34 8.62 1 11 C0.67 11 0.34 11 0 11 C0 7.37 0 3.74 0 0 Z " fill="white" transform="translate(97,148)"/>
<path d="M0 0 C0.99 0 1.98 0 3 0 C2.43628586 3.26954202 1.50037734 4.82575883 -1 7 C-1 6.34 -1 5.68 -1 5 C-1.66 4.67 -2.32 4.34 -3 4 C-2.34 4 -1.68 4 -1 4 C-0.67 2.68 -0.34 1.36 0 0 Z " fill="white" transform="translate(148,127)"/>
<path d="M0 0 C0.66 0.33 1.32 0.66 2 1 C-0.31 3.31 -2.62 5.62 -5 8 C-5.66 7.67 -6.32 7.34 -7 7 C-4.78071806 4.09197539 -3.07030857 2.04687238 0 0 Z " fill="white" transform="translate(128,69)"/>
<path d="M0 0 C2.35953094 2.35953094 2.49141413 3.77895617 3 7 C2.01 7 1.02 7 0 7 C-1.125 2.25 -1.125 2.25 0 0 Z " fill="white" transform="translate(164,153)"/>
<path d="M0 0 C1.98 0 3.96 0 6 0 C6.33 0.66 6.66 1.32 7 2 C5.35 2 3.7 2 2 2 C1.67 3.32 1.34 4.64 1 6 C0.67 4.02 0.34 2.04 0 0 Z " fill="white" transform="translate(103,127)"/>
<path d="M0 0 C0.99 0 1.98 0 3 0 C2.34 2.31 1.68 4.62 1 7 C0.34 6.34 -0.32 5.68 -1 5 C-0.625 2.375 -0.625 2.375 0 0 Z " fill="white" transform="translate(87,127)"/>
</svg>
