<?xml version="1.0" encoding="UTF-8"?>
<svg version="1.1" xmlns="http://www.w3.org/2000/svg" width="100" height="108">
<path d="M0 0 C-0.34704019 3.12336172 -1.03722786 4.03526849 -3.375 6.25 C-8.93955006 12.07952863 -9.46464957 19.19093199 -10 26.875 C-11.30509928 41.76395128 -15.95465214 53.84362792 -25 66 C-28.15857715 66.52642952 -30.03310267 66.51567857 -32.875 65 C-36.1737508 63.44764668 -39.45473397 63.53439283 -43 64 C-44.19625 64.515625 -45.3925 65.03125 -46.625 65.5625 C-51.38854504 67.59141733 -54.16045373 66.67983232 -58.875 64.9375 C-59.926875 64.4734375 -59.926875 64.4734375 -61 64 C-57.39252376 61.06057491 -53.76913001 59.64724268 -49.4375 58.0625 C-46.88872472 56.95149539 -45.00772346 55.92944066 -43 54 C-42.51942285 51.9511352 -42.51942285 51.9511352 -42.75 49.8125 C-42.8325 48.554375 -42.915 47.29625 -43 46 C-48.59130667 44.10375256 -53.4942254 43.72195323 -59.375 43.8125 C-60.19355469 43.81314453 -61.01210938 43.81378906 -61.85546875 43.81445312 C-65.74004261 43.46980147 -65.74004261 43.46980147 -69 45 C-70.99958364 45.04080783 -73.00045254 45.04254356 -75 45 C-74.58188612 40.12200473 -72.63597431 38.15117773 -69 35 C-67.03852126 33.61061923 -65.03833424 32.2739589 -63 31 C-62.154375 30.4225 -61.30875 29.845 -60.4375 29.25 C-57.72035273 27.85659115 -56.01054639 27.74195317 -53 28 C-53 27.34 -53 26.68 -53 26 C-51.73542969 25.86722656 -50.47085938 25.73445313 -49.16796875 25.59765625 C-47.50779375 25.41944537 -45.84763852 25.24105037 -44.1875 25.0625 C-43.35412109 24.97548828 -42.52074219 24.88847656 -41.66210938 24.79882812 C-40.85966797 24.71181641 -40.05722656 24.62480469 -39.23046875 24.53515625 C-38.12288208 24.41732788 -38.12288208 24.41732788 -36.99291992 24.29711914 C-34.79730622 24.02848004 -34.79730622 24.02848004 -32 23 C-31.979375 22.195625 -31.95875 21.39125 -31.9375 20.5625 C-30.17900625 13.88022373 -24.85940024 7.62724777 -19 4 C-12.79682806 1.48919231 -6.72422717 -0.19212078 0 0 Z " fill="white" transform="translate(89,5)"/>
<path d="M0 0 C3.88257328 1.86363517 6.88831958 2.16357645 11.125 1.5 C13.14086684 0.53238392 15.14253602 -0.46567096 17.125 -1.5 C20.87752882 -1.9690661 22.676643 -1.72894826 26.0625 0 C29.78688001 1.82418613 32.01452583 1.93268149 36.125 1.5 C38.4646553 0.51488198 40.79828135 -0.48470459 43.125 -1.5 C47.26636812 -1.83807087 51.05324107 -1.27557313 55.125 -0.5 C51.92712346 7.00077849 44.57206528 11.79130452 37.265625 14.80859375 C26.49466375 18.28753561 10.36038292 18.58910101 0.125 13.5 C-5.69455271 10.26054455 -10.35623265 6.36636484 -14.875 1.5 C-14.545 0.84 -14.215 0.18 -13.875 -0.5 C-9.00471552 -1.89150985 -4.56122863 -2.37977146 0 0 Z " fill="white" transform="translate(29.875,91.5)"/>
<path d="M0 0 C0.33 0 0.66 0 1 0 C1.495 2.475 1.495 2.475 2 5 C2.33 5 2.66 5 3 5 C4.69349008 23.73040839 1.55937458 36.46493595 -10 52 C-13.15857715 52.52642952 -15.03310267 52.51567857 -17.875 51 C-21.1737508 49.44764668 -24.45473397 49.53439283 -28 50 C-29.19625 50.515625 -30.3925 51.03125 -31.625 51.5625 C-36.38854504 53.59141733 -39.16045373 52.67983232 -43.875 50.9375 C-44.57625 50.628125 -45.2775 50.31875 -46 50 C-42.39252376 47.06057491 -38.76913001 45.64724268 -34.4375 44.0625 C-31.88872472 42.95149539 -30.00772346 41.92944066 -28 40 C-27.51942285 37.9511352 -27.51942285 37.9511352 -27.75 35.8125 C-27.8325 34.554375 -27.915 33.29625 -28 32 C-29.32 31.34 -30.64 30.68 -32 30 C-30.35 30.33 -28.7 30.66 -27 31 C-27 31.66 -27 32.32 -27 33 C-26.01 33 -25.02 33 -24 33 C-23.67 31.02 -23.34 29.04 -23 27 C-22.01 26.67 -21.02 26.34 -20 26 C-19.67 26.66 -19.34 27.32 -19 28 C-18.34 27.67 -17.68 27.34 -17 27 C-16.67 28.98 -16.34 30.96 -16 33 C-15.01 33 -14.02 33 -13 33 C-13.33 32.34 -13.66 31.68 -14 31 C-14.25 27.5625 -14.25 27.5625 -14 24 C-13.00690107 22.99314623 -12.00616125 21.99380055 -11 21 C-10.00626561 18.7396956 -10.00626561 18.7396956 -9.3125 16.3125 C-8.93544922 15.10013672 -8.93544922 15.10013672 -8.55078125 13.86328125 C-8.36902344 13.24839844 -8.18726563 12.63351563 -8 12 C-7.67 12 -7.34 12 -7 12 C-6.97421875 12.77085938 -6.9484375 13.54171875 -6.921875 14.3359375 C-6.86515625 15.33882812 -6.8084375 16.34171875 -6.75 17.375 C-6.70359375 18.37273438 -6.6571875 19.37046875 -6.609375 20.3984375 C-6.27839115 23.1526477 -6.27839115 23.1526477 -3.953125 24.3515625 C-3.30859375 24.56554687 -2.6640625 24.77953125 -2 25 C-1.12489617 19.52140877 -0.70975966 14.10142201 -0.4375 8.5625 C-0.37272461 7.32209961 -0.37272461 7.32209961 -0.30664062 6.05664062 C-0.20161967 4.03790451 -0.10041441 2.01897049 0 0 Z " fill="white" transform="translate(74,19)"/>
<path d="M0 0 C0 0.99 0 1.98 0 3 C2.65228812 4.07525194 5.28368454 5.09456151 8 6 C6.21330533 9.19324153 4.38102174 12.21312229 2 15 C-1.33833176 15.73443299 -2.88040931 15.59711503 -5.875 14 C-9.1737508 12.44764668 -12.45473397 12.53439283 -16 13 C-17.19625 13.515625 -18.3925 14.03125 -19.625 14.5625 C-24.38854504 16.59141733 -27.16045373 15.67983232 -31.875 13.9375 C-32.57625 13.628125 -33.2775 13.31875 -34 13 C-30.39252376 10.06057491 -26.76913001 8.64724268 -22.4375 7.0625 C-19.93751271 6.08533552 -19.93751271 6.08533552 -17.82421875 4.359375 C-16 3 -16 3 -13.8125 3.25 C-12 4 -12 4 -11 5 C-8.32628001 6.68866526 -6.01112473 7.99629176 -3 9 C-4.65 8.34 -6.3 7.68 -8 7 C-7.67 6.34 -7.34 5.68 -7 5 C-7.66 4.34 -8.32 3.68 -9 3 C-6.03 2.01 -3.06 1.02 0 0 Z " fill="white" transform="translate(62,56)"/>
<path d="M0 0 C0.33 0 0.66 0 1 0 C1.33 1.65 1.66 3.3 2 5 C2.33 5 2.66 5 3 5 C4.20982184 18.38092105 4.36900256 28.31123733 -3 40 C-5.3125 40.3125 -5.3125 40.3125 -8 40 C-9.875 37.625 -9.875 37.625 -11 35 C-10 33 -10 33 -9 32 C-8.84344973 30.51361008 -8.74933057 29.02050873 -8.68359375 27.52734375 C-8.64169922 26.62822266 -8.59980469 25.72910156 -8.55664062 24.80273438 C-8.51732422 23.85720703 -8.47800781 22.91167969 -8.4375 21.9375 C-8.39431641 20.98810547 -8.35113281 20.03871094 -8.30664062 19.06054688 C-8.20020724 16.70718647 -8.09818992 14.35371646 -8 12 C-7.67 12 -7.34 12 -7 12 C-6.97421875 12.77085938 -6.9484375 13.54171875 -6.921875 14.3359375 C-6.86515625 15.33882812 -6.8084375 16.34171875 -6.75 17.375 C-6.70359375 18.37273438 -6.6571875 19.37046875 -6.609375 20.3984375 C-6.27839115 23.1526477 -6.27839115 23.1526477 -3.953125 24.3515625 C-3.30859375 24.56554687 -2.6640625 24.77953125 -2 25 C-1.12489617 19.52140877 -0.70975966 14.10142201 -0.4375 8.5625 C-0.39431641 7.73556641 -0.35113281 6.90863281 -0.30664062 6.05664062 C-0.20161967 4.03790451 -0.10041441 2.01897049 0 0 Z " fill="white" transform="translate(74,19)"/>
<path d="M0 0 C0.99 0 1.98 0 3 0 C6.26254201 22.95431346 6.26254201 22.95431346 4 33 C2.515 33.495 2.515 33.495 1 34 C0.96132812 32.80117187 0.96132812 32.80117187 0.921875 31.578125 C0.54676404 24.3146128 -0.61782848 18.30655655 -3.35546875 11.55859375 C-4 9 -4 9 -3.11328125 6.66015625 C-2.74589844 6.11230469 -2.37851562 5.56445312 -2 5 C-1.67 5 -1.34 5 -1 5 C-0.67 3.35 -0.34 1.7 0 0 Z " fill="white" transform="translate(64,14)"/>
<path d="M0 0 C1.5625 1.375 1.5625 1.375 3 3 C3.66 3.28875 4.32 3.5775 5 3.875 C7.7850817 5.44160846 8.75265974 7.08953939 10 10 C9.0703125 12.1640625 9.0703125 12.1640625 8 14 C7.55011719 13.62488281 7.10023437 13.24976563 6.63671875 12.86328125 C1.16047564 8.50643052 -4.55456873 5.67769755 -11 3 C-10.67 2.34 -10.34 1.68 -10 1 C-6.66423294 0.07339804 -3.44781655 -0.36292806 0 0 Z " fill="white" transform="translate(41,32)"/>
<path d="M0 0 C0 0.99 0 1.98 0 3 C2.65228812 4.07525194 5.28368454 5.09456151 8 6 C5.03 10.455 5.03 10.455 2 15 C1.01 14.67 0.02 14.34 -1 14 C-1.28875 13.195625 -1.5775 12.39125 -1.875 11.5625 C-2.77944219 8.76071559 -2.77944219 8.76071559 -5.625 7.6875 C-6.40875 7.460625 -7.1925 7.23375 -8 7 C-7.67 6.34 -7.34 5.68 -7 5 C-7.66 4.34 -8.32 3.68 -9 3 C-6.03 2.01 -3.06 1.02 0 0 Z " fill="white" transform="translate(62,56)"/>
<path d="M0 0 C2.475 0.495 2.475 0.495 5 1 C5 1.66 5 2.32 5 3 C5.99 3 6.98 3 8 3 C8.66 2.34 9.32 1.68 10 1 C12 6.625 12 6.625 12 10 C13.33289654 11.50014391 13.33289654 11.50014391 15 13 C16.01800576 14.31963709 17.02248365 15.65009646 18 17 C17.34 17.66 16.68 18.32 16 19 C16 18.01 16 17.02 16 16 C15.113125 15.71125 14.22625 15.4225 13.3125 15.125 C10.49617576 14.16851252 7.74916844 13.13201054 5 12 C4.97421875 11.30132812 4.9484375 10.60265625 4.921875 9.8828125 C4.86515625 8.97273438 4.8084375 8.06265625 4.75 7.125 C4.70359375 6.22007813 4.6571875 5.31515625 4.609375 4.3828125 C4.24388852 1.82889456 4.24388852 1.82889456 1.953125 0.6796875 C1.30859375 0.45539062 0.6640625 0.23109375 0 0 Z " fill="white" transform="translate(42,49)"/>
<path d="M0 0 C0.66 0.66 1.32 1.32 2 2 C2.66 1.67 3.32 1.34 4 1 C3.7229061 4.45966438 3.42586237 7.91732798 3.125 11.375 C3.04636719 12.35984375 2.96773438 13.3446875 2.88671875 14.359375 C2.80292969 15.30039062 2.71914062 16.24140625 2.6328125 17.2109375 C2.55949707 18.08024902 2.48618164 18.94956055 2.41064453 19.84521484 C2 22 2 22 0 24 C-0.66 24 -1.32 24 -2 24 C-2.05410136 20.93726169 -2.09372225 17.87548548 -2.125 14.8125 C-2.14175781 13.94818359 -2.15851563 13.08386719 -2.17578125 12.19335938 C-2.21038233 7.67791897 -2.15567916 4.09918517 0 0 Z " fill="white" transform="translate(77,14)"/>
<path d="M0 0 C3 1 3 1 4.16796875 2.96875 C6.58155712 8.96110734 7.41641338 13.54559267 7 20 C6.67 20 6.34 20 6 20 C5.67 18.02 5.34 16.04 5 14 C4.01 13.67 3.02 13.34 2 13 C0.61328125 11.00390625 0.61328125 11.00390625 -0.6875 8.5625 C-1.12449219 7.75941406 -1.56148437 6.95632812 -2.01171875 6.12890625 C-3 4 -3 4 -3 2 C-2.01 2 -1.02 2 0 2 C0 1.34 0 0.68 0 0 Z " fill="white" transform="translate(55,29)"/>
<path d="M0 0 C0.33 0 0.66 0 1 0 C1.33 1.65 1.66 3.3 2 5 C2.33 5 2.66 5 3 5 C3.1954384 7.89549503 3.38161395 10.79108998 3.5625 13.6875 C3.61857422 14.50412109 3.67464844 15.32074219 3.73242188 16.16210938 C3.98341571 20.29514123 4.11127743 23.95824282 3 28 C2.67 27.34 2.34 26.68 2 26 C1.01 25.67 0.02 25.34 -1 25 C-0.67 16.75 -0.34 8.5 0 0 Z " fill="white" transform="translate(74,19)"/>
<path d="M0 0 C1.14897419 4.59589675 0.7140729 5.26171852 -1.4375 9.25 C-2.14712891 10.58804688 -2.14712891 10.58804688 -2.87109375 11.953125 C-3.24363281 12.62859375 -3.61617187 13.3040625 -4 14 C-6.3828125 14.1484375 -6.3828125 14.1484375 -9 14 C-10.875 11.625 -10.875 11.625 -12 9 C-10.89131683 6.78263366 -9.50559539 4.96382007 -8 3 C-6.33333333 4.66666667 -4.66666667 6.33333333 -3 8 C-2.01 5.36 -1.02 2.72 0 0 Z " fill="white" transform="translate(75,45)"/>
<path d="M0 0 C8.0256603 -0.55884675 14.75333691 0.3399455 22 4 C23.8125 5.63671875 23.8125 5.63671875 25 7 C24.29617187 6.79503906 23.59234375 6.59007812 22.8671875 6.37890625 C14.90735874 4.20709919 7.23202033 3.3531488 -1 3 C-0.67 2.01 -0.34 1.02 0 0 Z " fill="white" transform="translate(20,40)"/>
<path d="M0 0 C-1 2 -1 2 -3 4 C-2.01 4.66 -1.02 5.32 0 6 C-5.9180497 7.32854177 -8.77729131 6.66464729 -14 4 C-9.3926814 0.24588855 -5.91637072 -1.69039163 0 0 Z " fill="white" transform="translate(42,65)"/>
<path d="M0 0 C2.76276177 0.52268466 5.3260876 1.10869587 8 2 C8.6875 4.0625 8.6875 4.0625 9 6 C7.25 6.625 7.25 6.625 5 7 C4.4225 6.690625 3.845 6.38125 3.25 6.0625 C-0.97251787 4.06853323 -5.62341722 4.54113907 -10 6 C-9.67 5.01 -9.34 4.02 -9 3 C-5.92382812 2.70703125 -5.92382812 2.70703125 -2.84765625 2.4140625 C-2.23792969 2.27742188 -1.62820312 2.14078125 -1 2 C-0.67 1.34 -0.34 0.68 0 0 Z " fill="white" transform="translate(53,64)"/>
<path d="M0 0 C0.33 0.66 0.66 1.32 1 2 C0.01 2 -0.98 2 -2 2 C-1.484375 2.7425 -0.96875 3.485 -0.4375 4.25 C1 7 1 7 0.58984375 9.171875 C0.39519531 9.77515625 0.20054688 10.3784375 0 11 C-1.17825358 10.09827532 -2.34231577 9.17798498 -3.5 8.25 C-4.1496875 7.73953125 -4.799375 7.2290625 -5.46875 6.703125 C-7 5 -7 5 -7 1 C-3.535 0.505 -3.535 0.505 0 0 Z " fill="white" transform="translate(54,29)"/>
<path d="M0 0 C5.05786842 0.47276812 7.87083861 1.9861321 11.875 5.0625 C12.84179688 5.79597656 13.80859375 6.52945313 14.8046875 7.28515625 C15.52914062 7.85105469 16.25359375 8.41695312 17 9 C16.67 9.66 16.34 10.32 16 11 C15.35933594 10.60167969 14.71867187 10.20335937 14.05859375 9.79296875 C9.14423182 6.78283052 4.36809475 4.10055882 -1 2 C-0.67 1.34 -0.34 0.68 0 0 Z " fill="white" transform="translate(31,33)"/>
<path d="M0 0 C0.33 0 0.66 0 1 0 C1.33 3.63 1.66 7.26 2 11 C2.33 11 2.66 11 3 11 C4.25 18.625 4.25 18.625 2 22 C-0.35582065 17.37183267 -0.23521469 13.24465865 -0.125 8.1875 C-0.11597656 7.39923828 -0.10695313 6.61097656 -0.09765625 5.79882812 C-0.07422504 3.86575334 -0.03835838 1.9328362 0 0 Z " fill="white" transform="translate(66,31)"/>
<path d="M0 0 C1.32 0 2.64 0 4 0 C3.67 1.98 3.34 3.96 3 6 C1.02 6 -0.96 6 -3 6 C-2.34 5.67 -1.68 5.34 -1 5 C0.05270463 2.36893239 0.05270463 2.36893239 0 1 C0 0.67 0 0.34 0 0 Z " fill="white" transform="translate(40,64)"/>
<path d="M0 0 C0 0.66 0 1.32 0 2 C-0.99 2.495 -0.99 2.495 -2 3 C-2.99 4.485 -2.99 4.485 -4 6 C-6.475 5.01 -6.475 5.01 -9 4 C-6.10130984 1.70103884 -3.84906588 0 0 0 Z " fill="white" transform="translate(37,65)"/>
<path d="M0 0 C2.475 0.99 2.475 0.99 5 2 C5 2.66 5 3.32 5 4 C6.45833358 5.62514468 6.45833358 5.62514468 8 7 C7.34 7.66 6.68 8.32 6 9 C6 8.01 6 7.02 6 6 C4.5459375 5.5978125 4.5459375 5.5978125 3.0625 5.1875 C2.051875 4.795625 1.04125 4.40375 0 4 C-0.33 3.01 -0.66 2.02 -1 1 C-0.67 0.67 -0.34 0.34 0 0 Z " fill="white" transform="translate(52,59)"/>
<path d="M0 0 C0.66 0 1.32 0 2 0 C2.33 1.32 2.66 2.64 3 4 C-0.75 5.125 -0.75 5.125 -3 4 C-3 3.34 -3 2.68 -3 2 C-2.01 2 -1.02 2 0 2 C0 1.34 0 0.68 0 0 Z " fill="white" transform="translate(59,66)"/>
<path d="M0 0 C-0.33 0.99 -0.66 1.98 -1 3 C-3.31 3 -5.62 3 -8 3 C-7.34 2.67 -6.68 2.34 -6 2 C-6 1.34 -6 0.68 -6 0 C-3 -1 -3 -1 0 0 Z " fill="white" transform="translate(47,46)"/>
<path d="M0 0 C2.97 0.33 5.94 0.66 9 1 C8.34 2.32 7.68 3.64 7 5 C6.67 4.34 6.34 3.68 6 3 C2.97065509 2.34227572 2.97065509 2.34227572 0 2 C0 1.34 0 0.68 0 0 Z " fill="white" transform="translate(61,60)"/>
</svg>
